<svg id="Layer_1" data-name="Layer 1" xmlns="http://www.w3.org/2000/svg" viewBox="0 0 64.59 64.59"><defs><style>.cls-1{fill:#354458;}</style></defs><title>awful</title><path class="cls-1" d="M6373.5,3272.65a32.3,32.3,0,1,0,32.33,32.3A32.26,32.26,0,0,0,6373.5,3272.65Zm0,58.14a25.84,25.84,0,1,1,25.84-25.84A25.83,25.83,0,0,1,6373.54,3330.78Zm13.5-39.53-3.42,3.42-3.42-3.42-3.42,3.42,3.42,3.42-3.42,3.42,3.42,3.42,3.42-3.42,3.42,3.42,3.42-3.42-3.42-3.42,3.42-3.42Zm-27,13.69,3.42-3.42,3.42,3.42,3.42-3.42-3.42-3.42,3.42-3.42-3.42-3.42-3.42,3.42-3.42-3.42-3.42,3.42,3.42,3.42-3.42,3.42Zm13.5,6.46a17.75,17.75,0,0,0-16.5,11.3h33A17.75,17.75,0,0,0,6373.54,3311.41Z" transform="translate(-6341.24 -3272.65)"/></svg>