<svg id="Layer_1" data-name="Layer 1" xmlns="http://www.w3.org/2000/svg" viewBox="0 0 559.63 287.8"><defs><style>.cls-1{font-size:25.15px;fill:#5d5d5d;font-family:Roboto;}.cls-2{fill:#004c43;}.cls-3,.cls-4{fill:#17a697;}.cls-4{stroke:#17a697;stroke-miterlimit:10;opacity:0.35;}.cls-5{fill:#66c6b8;}.cls-6{fill:#007f71;}</style></defs><title>bar_chart</title><text class="cls-1" transform="translate(59.39 23.17) scale(0.92 1)">Ca<tspan x="30.05" y="0">r</tspan><tspan x="38.32" y="0">eer</tspan></text><text class="cls-1" transform="translate(0 151) scale(0.92 1)">Relationship</text><text class="cls-1" transform="translate(41.57 278.82) scale(0.92 1)">Hobbies</text><text class="cls-1" transform="translate(59.74 214.91) scale(0.92 1)">Health</text><text class="cls-1" transform="translate(8.64 87.09) scale(0.92 1)">Community</text><text class="cls-1" transform="translate(479.74 278.82) scale(0.92 1)">2</text><text class="cls-1" transform="translate(479.74 151) scale(0.92 1)">6</text><text class="cls-1" transform="translate(479.74 23.17) scale(0.92 1)">11 d<tspan x="48.65" y="0">a</tspan><tspan x="62.14" y="0">ys</tspan></text><text class="cls-1" transform="translate(479.74 214.91) scale(0.92 1)">4</text><text class="cls-1" transform="translate(479.74 87.09) scale(0.92 1)">8</text><rect class="cls-2" x="155.06" width="299.99" height="31.65" rx="12" ry="12"/><rect class="cls-3" x="155.06" y="127.82" width="220.71" height="31.65" rx="12" ry="12"/><rect class="cls-4" x="155.06" y="255.64" width="75.54" height="31.65" rx="12" ry="12"/><rect class="cls-5" x="155.06" y="191.73" width="164.27" height="31.65" rx="12" ry="12"/><rect class="cls-6" x="155.06" y="63.91" width="250.06" height="31.65" rx="12" ry="12"/></svg>