<svg id="Layer_1" data-name="Layer 1" xmlns="http://www.w3.org/2000/svg" viewBox="0 0 556.6 287.8"><defs><style>.cls-1{fill:#5d5d5d;}.cls-2{fill:#004c43;}.cls-3,.cls-4{fill:#17a697;}.cls-4{stroke:#17a697;stroke-miterlimit:10;opacity:0.35;}.cls-5{fill:#66c6b8;}.cls-6{fill:#007f71;}</style></defs><title>top_tags_bar_chart</title><path class="cls-1" d="M997.18,1151a8.81,8.81,0,0,1-.57,2.35,5.72,5.72,0,0,1-1.2,1.88,5.4,5.4,0,0,1-1.87,1.24,6.86,6.86,0,0,1-2.58.45,5.7,5.7,0,0,1-4.66-2.26,8,8,0,0,1-1.3-2.61,11.82,11.82,0,0,1-.46-3.4v-1.79a11.76,11.76,0,0,1,.46-3.41,7.83,7.83,0,0,1,1.32-2.62,5.93,5.93,0,0,1,2.08-1.68,6.18,6.18,0,0,1,2.75-.6,6.39,6.39,0,0,1,2.46.44,5.21,5.21,0,0,1,1.82,1.23,5.91,5.91,0,0,1,1.19,1.89,8.65,8.65,0,0,1,.56,2.42H995a8.63,8.63,0,0,0-.38-1.68,3.86,3.86,0,0,0-.72-1.28,3,3,0,0,0-1.13-.81,4.2,4.2,0,0,0-1.62-.28,3.9,3.9,0,0,0-1.92.46,4,4,0,0,0-1.39,1.29,6.1,6.1,0,0,0-.84,2,11,11,0,0,0-.28,2.58v1.82a11.49,11.49,0,0,0,.25,2.47,6.69,6.69,0,0,0,.77,2,4,4,0,0,0,1.32,1.36,3.51,3.51,0,0,0,1.89.5,5,5,0,0,0,1.75-.27,3,3,0,0,0,1.18-.78,3.54,3.54,0,0,0,.73-1.25A9,9,0,0,0,995,1151h2.18Z" transform="translate(-925.71 -1133.53)"/><path class="cls-1" d="M1007.34,1156.7a2.61,2.61,0,0,1-.18-0.62c0-.25-0.08-0.51-0.11-0.78a5.82,5.82,0,0,1-.66.63,4.6,4.6,0,0,1-.8.53,4.33,4.33,0,0,1-2,.48,4.49,4.49,0,0,1-1.7-.31,3.88,3.88,0,0,1-1.3-.83,3.69,3.69,0,0,1-.83-1.25,4,4,0,0,1-.29-1.54,4.38,4.38,0,0,1,.38-1.88,3.68,3.68,0,0,1,1.1-1.37,5,5,0,0,1,1.73-.83,8.44,8.44,0,0,1,2.27-.28H1007v-1a2.68,2.68,0,0,0-.65-1.9,2.5,2.5,0,0,0-1.93-.71,3.2,3.2,0,0,0-1.07.17,2.66,2.66,0,0,0-.83.46,2.1,2.1,0,0,0-.54.67,1.75,1.75,0,0,0-.19.8h-2.1a3.17,3.17,0,0,1,.34-1.41,4.07,4.07,0,0,1,1-1.26,5,5,0,0,1,1.53-.91,5.46,5.46,0,0,1,2-.35,5.82,5.82,0,0,1,1.83.28,3.72,3.72,0,0,1,2.37,2.23,5.17,5.17,0,0,1,.34,2v6.18a9.82,9.82,0,0,0,.11,1.42,5.67,5.67,0,0,0,.32,1.28v0.2h-2.19Zm-3.46-1.73a3.2,3.2,0,0,0,1.06-.17,3.79,3.79,0,0,0,.9-0.45,3.43,3.43,0,0,0,.71-0.63,3.13,3.13,0,0,0,.47-0.74v-2.73h-1.74a5.22,5.22,0,0,0-2.76.61,2,2,0,0,0-1,1.84,2.69,2.69,0,0,0,.15.9,1.88,1.88,0,0,0,.45.72,2.18,2.18,0,0,0,.73.48A2.65,2.65,0,0,0,1003.87,1155Z" transform="translate(-925.71 -1133.53)"/><path class="cls-1" d="M1018.26,1145.45l-0.5-.07-0.52,0a2.84,2.84,0,0,0-1.76.52,3.1,3.1,0,0,0-1,1.39v9.43h-2.09v-13.29h2l0,1.54a3.86,3.86,0,0,1,1.18-1.3,3,3,0,0,1,1.73-.48,2.89,2.89,0,0,1,.52.05,1.55,1.55,0,0,1,.41.12v2.11Z" transform="translate(-925.71 -1133.53)"/><path class="cls-1" d="M1025,1156.95a5.41,5.41,0,0,1-2.31-.48,5.17,5.17,0,0,1-1.76-1.33,6,6,0,0,1-1.13-2,8.07,8.07,0,0,1-.39-2.58V1150a8.77,8.77,0,0,1,.45-2.9,6.64,6.64,0,0,1,1.19-2.15,5.19,5.19,0,0,1,1.7-1.33,4.56,4.56,0,0,1,2-.46,4.78,4.78,0,0,1,2.25.5,4.37,4.37,0,0,1,1.56,1.37,6.06,6.06,0,0,1,.91,2.06,10.84,10.84,0,0,1,.29,2.59v1h-8.26a6.1,6.1,0,0,0,.28,1.72,4.3,4.3,0,0,0,.72,1.39,3.49,3.49,0,0,0,1.13.93,3.18,3.18,0,0,0,1.49.34,3.4,3.4,0,0,0,1.87-.49,4.85,4.85,0,0,0,1.34-1.3l1.27,1.08a6,6,0,0,1-.71,1,4.85,4.85,0,0,1-2.25,1.4A5.71,5.71,0,0,1,1025,1156.95Zm-0.26-11.91a2.67,2.67,0,0,0-1.16.25,2.9,2.9,0,0,0-.95.73,4,4,0,0,0-.69,1.19,6.46,6.46,0,0,0-.38,1.63h6.11v-0.17a6.93,6.93,0,0,0-.2-1.31,3.72,3.72,0,0,0-.51-1.17,2.7,2.7,0,0,0-.88-0.83A2.6,2.6,0,0,0,1024.77,1145Z" transform="translate(-925.71 -1133.53)"/><path class="cls-1" d="M1037.26,1156.95a5.41,5.41,0,0,1-2.31-.48,5.17,5.17,0,0,1-1.76-1.33,6,6,0,0,1-1.13-2,8.07,8.07,0,0,1-.39-2.58V1150a8.77,8.77,0,0,1,.45-2.9,6.64,6.64,0,0,1,1.19-2.15,5.19,5.19,0,0,1,1.7-1.33,4.56,4.56,0,0,1,2-.46,4.78,4.78,0,0,1,2.25.5,4.37,4.37,0,0,1,1.56,1.37,6.06,6.06,0,0,1,.91,2.06,10.84,10.84,0,0,1,.29,2.59v1h-8.26a6.1,6.1,0,0,0,.28,1.72,4.3,4.3,0,0,0,.72,1.39,3.49,3.49,0,0,0,1.13.93,3.18,3.18,0,0,0,1.49.34,3.4,3.4,0,0,0,1.87-.49,4.85,4.85,0,0,0,1.34-1.3l1.27,1.08a6,6,0,0,1-.71,1,4.85,4.85,0,0,1-2.25,1.4A5.71,5.71,0,0,1,1037.26,1156.95ZM1037,1145a2.67,2.67,0,0,0-1.16.25,2.9,2.9,0,0,0-.95.73,4,4,0,0,0-.69,1.19,6.46,6.46,0,0,0-.38,1.63h6.11v-0.17a6.93,6.93,0,0,0-.2-1.31,3.72,3.72,0,0,0-.51-1.17,2.7,2.7,0,0,0-.88-0.83A2.6,2.6,0,0,0,1037,1145Z" transform="translate(-925.71 -1133.53)"/><path class="cls-1" d="M1050.33,1145.45l-0.5-.07-0.52,0a2.84,2.84,0,0,0-1.76.52,3.1,3.1,0,0,0-1,1.39v9.43h-2.09v-13.29h2l0,1.54a3.86,3.86,0,0,1,1.18-1.3,3,3,0,0,1,1.73-.48,2.89,2.89,0,0,1,.52.05,1.55,1.55,0,0,1,.41.12v2.11Z" transform="translate(-925.71 -1133.53)"/><path class="cls-1" d="M931.74,1277.29h-3.86v7.23h-2.18v-17.88h5.43a6.08,6.08,0,0,1,4.27,1.38,5.17,5.17,0,0,1,1.49,4,5.12,5.12,0,0,1-.83,2.91,5,5,0,0,1-2.31,1.85l3.86,7.59v0.15H935.3Zm-3.86-1.93h3.33a4.13,4.13,0,0,0,1.54-.26,3.17,3.17,0,0,0,1.1-.71,2.88,2.88,0,0,0,.66-1.06,3.82,3.82,0,0,0,.22-1.31,4.46,4.46,0,0,0-.21-1.41,2.81,2.81,0,0,0-.65-1.09,2.92,2.92,0,0,0-1.12-.7,4.73,4.73,0,0,0-1.61-.25h-3.26v6.78Z" transform="translate(-925.71 -1133.53)"/><path class="cls-1" d="M944.67,1284.77a5.41,5.41,0,0,1-2.31-.48,5.17,5.17,0,0,1-1.76-1.33,6,6,0,0,1-1.13-2,8.07,8.07,0,0,1-.39-2.58v-0.52a8.77,8.77,0,0,1,.45-2.9,6.64,6.64,0,0,1,1.19-2.15,5.19,5.19,0,0,1,1.7-1.33,4.56,4.56,0,0,1,2-.46,4.78,4.78,0,0,1,2.25.5,4.37,4.37,0,0,1,1.56,1.37,6.06,6.06,0,0,1,.91,2.06,10.84,10.84,0,0,1,.29,2.59v1h-8.26a6.1,6.1,0,0,0,.28,1.72,4.3,4.3,0,0,0,.72,1.39,3.49,3.49,0,0,0,1.13.93,3.18,3.18,0,0,0,1.49.34,3.4,3.4,0,0,0,1.87-.49,4.85,4.85,0,0,0,1.34-1.3l1.27,1.08a6,6,0,0,1-.71,1,4.85,4.85,0,0,1-2.25,1.4A5.71,5.71,0,0,1,944.67,1284.77Zm-0.26-11.91a2.67,2.67,0,0,0-1.16.25,2.9,2.9,0,0,0-.95.73,4,4,0,0,0-.69,1.19,6.46,6.46,0,0,0-.38,1.63h6.11v-0.17a6.93,6.93,0,0,0-.2-1.31,3.72,3.72,0,0,0-.51-1.17,2.7,2.7,0,0,0-.88-0.83A2.6,2.6,0,0,0,944.41,1272.86Z" transform="translate(-925.71 -1133.53)"/><path class="cls-1" d="M954.11,1284.52H952v-18.86h2.09v18.86Z" transform="translate(-925.71 -1133.53)"/><path class="cls-1" d="M965,1284.52a2.61,2.61,0,0,1-.18-0.62c0-.25-0.08-0.51-0.11-0.78a5.82,5.82,0,0,1-.66.63,4.6,4.6,0,0,1-.8.53,4.33,4.33,0,0,1-2,.48,4.49,4.49,0,0,1-1.7-.31,3.88,3.88,0,0,1-1.3-.83,3.69,3.69,0,0,1-.83-1.25,4,4,0,0,1-.29-1.54,4.38,4.38,0,0,1,.38-1.88,3.68,3.68,0,0,1,1.1-1.37,5,5,0,0,1,1.73-.83,8.44,8.44,0,0,1,2.27-.28h2.07v-1a2.68,2.68,0,0,0-.65-1.9,2.5,2.5,0,0,0-1.93-.71,3.2,3.2,0,0,0-1.07.17,2.66,2.66,0,0,0-.83.46,2.1,2.1,0,0,0-.54.67,1.75,1.75,0,0,0-.19.8h-2.1a3.17,3.17,0,0,1,.34-1.41,4.07,4.07,0,0,1,1-1.26,5,5,0,0,1,1.53-.91,5.46,5.46,0,0,1,2-.35,5.82,5.82,0,0,1,1.83.28,3.72,3.72,0,0,1,2.37,2.23,5.17,5.17,0,0,1,.34,2v6.18a9.82,9.82,0,0,0,.11,1.42,5.67,5.67,0,0,0,.32,1.28v0.2H965Zm-3.46-1.73a3.2,3.2,0,0,0,1.06-.17,3.79,3.79,0,0,0,.9-0.45,3.43,3.43,0,0,0,.71-0.63,3.13,3.13,0,0,0,.47-0.74v-2.73h-1.74a5.22,5.22,0,0,0-2.76.61,2,2,0,0,0-1,1.84,2.69,2.69,0,0,0,.15.9,1.88,1.88,0,0,0,.45.72,2.18,2.18,0,0,0,.73.48A2.65,2.65,0,0,0,961.51,1282.79Z" transform="translate(-925.71 -1133.53)"/><path class="cls-1" d="M972.83,1268v3.22h2.28V1273h-2.28v8.24a2.5,2.5,0,0,0,.11.83,1.2,1.2,0,0,0,.3.49,0.92,0.92,0,0,0,.43.23,2.24,2.24,0,0,0,.5.06,2.88,2.88,0,0,0,.55-0.06l0.45-.09v1.84l-0.64.16a4.55,4.55,0,0,1-1,.09,3.28,3.28,0,0,1-1.09-.18,2.16,2.16,0,0,1-.9-0.6,3,3,0,0,1-.61-1.1,5.38,5.38,0,0,1-.23-1.68V1273h-2.22v-1.76h2.22V1268h2.09Z" transform="translate(-925.71 -1133.53)"/><path class="cls-1" d="M977.56,1267.72a1.43,1.43,0,0,1,.31-0.93,1.12,1.12,0,0,1,.92-0.38,1.13,1.13,0,0,1,.92.38,1.42,1.42,0,0,1,.32.93,1.37,1.37,0,0,1-.32.92,1.15,1.15,0,0,1-.92.37,1.14,1.14,0,0,1-.92-0.37A1.39,1.39,0,0,1,977.56,1267.72Zm2.25,16.81h-2.09v-13.29h2.09v13.29Z" transform="translate(-925.71 -1133.53)"/><path class="cls-1" d="M982.6,1277.76a8.88,8.88,0,0,1,.39-2.68,6.69,6.69,0,0,1,1.1-2.14,5.13,5.13,0,0,1,1.74-1.42,5,5,0,0,1,2.3-.52,5,5,0,0,1,4.08,1.94,6.52,6.52,0,0,1,1.1,2.14,9,9,0,0,1,.38,2.68V1278a9,9,0,0,1-.38,2.68,6.44,6.44,0,0,1-1.1,2.14,5.19,5.19,0,0,1-8.12,0,6.54,6.54,0,0,1-1.11-2.14,8.87,8.87,0,0,1-.39-2.68v-0.27Zm2.1,0.27a8,8,0,0,0,.21,1.88,5,5,0,0,0,.65,1.55,3.35,3.35,0,0,0,1.08,1.06,3.11,3.11,0,0,0,3,0,3.28,3.28,0,0,0,1.08-1.06,5.18,5.18,0,0,0,.65-1.55,7.77,7.77,0,0,0,.22-1.88v-0.27a7.79,7.79,0,0,0-.22-1.87,5.1,5.1,0,0,0-.65-1.56,3.4,3.4,0,0,0-1.09-1.07,2.86,2.86,0,0,0-1.52-.4,2.78,2.78,0,0,0-1.5.4,3.44,3.44,0,0,0-1.08,1.07,5,5,0,0,0-.65,1.56,8,8,0,0,0-.21,1.87V1278Z" transform="translate(-925.71 -1133.53)"/><path class="cls-1" d="M998.29,1271.24l0.07,1.67a4.81,4.81,0,0,1,1.58-1.41,4.23,4.23,0,0,1,2.08-.51,4.67,4.67,0,0,1,1.61.26,3,3,0,0,1,1.23.85,4,4,0,0,1,.78,1.5,7.76,7.76,0,0,1,.28,2.22v8.71h-2.09v-8.73a4.8,4.8,0,0,0-.16-1.32,2.24,2.24,0,0,0-.47-0.89,1.82,1.82,0,0,0-.77-0.5,3.19,3.19,0,0,0-1.05-.16,2.84,2.84,0,0,0-1.78.59,4,4,0,0,0-1.2,1.55v9.47h-2.09v-13.29h2Z" transform="translate(-925.71 -1133.53)"/><path class="cls-1" d="M1016.16,1281a2.33,2.33,0,0,0-.1-0.69,1.47,1.47,0,0,0-.4-0.61,3,3,0,0,0-.85-0.53,8.38,8.38,0,0,0-1.46-.45,12.84,12.84,0,0,1-1.83-.55,5.42,5.42,0,0,1-1.38-.77,3.09,3.09,0,0,1-.87-1.06,3.2,3.2,0,0,1-.3-1.44,3.57,3.57,0,0,1,.32-1.49,3.79,3.79,0,0,1,.91-1.24,4.36,4.36,0,0,1,1.42-.85,5.28,5.28,0,0,1,1.86-.31,5.51,5.51,0,0,1,2,.33,4.37,4.37,0,0,1,1.47.89,3.78,3.78,0,0,1,.92,1.32,4.14,4.14,0,0,1,.32,1.62H1016a2.15,2.15,0,0,0-.17-0.82,2.24,2.24,0,0,0-.5-0.74,2.55,2.55,0,0,0-.8-0.53,2.77,2.77,0,0,0-1.09-.2,3.28,3.28,0,0,0-1.11.17,2.15,2.15,0,0,0-.75.44,1.71,1.71,0,0,0-.43.63,2,2,0,0,0-.13.72,1.84,1.84,0,0,0,.11.66,1.24,1.24,0,0,0,.43.53,3.38,3.38,0,0,0,.86.44,12.88,12.88,0,0,0,1.42.41,12.9,12.9,0,0,1,1.94.64,5.17,5.17,0,0,1,1.36.83,3,3,0,0,1,.81,1.09,3.59,3.59,0,0,1,.26,1.42,3.78,3.78,0,0,1-.33,1.6,3.48,3.48,0,0,1-1,1.24,4.55,4.55,0,0,1-1.49.8,6.09,6.09,0,0,1-1.93.29,5.79,5.79,0,0,1-2.15-.37,4.72,4.72,0,0,1-1.56-1,4.15,4.15,0,0,1-1.29-3h2.09a2.55,2.55,0,0,0,.31,1.17,2.42,2.42,0,0,0,.69.77,2.7,2.7,0,0,0,.91.42,4.11,4.11,0,0,0,1,.12,3.88,3.88,0,0,0,1.13-.15,2.52,2.52,0,0,0,.82-0.41A1.68,1.68,0,0,0,1016.16,1281Z" transform="translate(-925.71 -1133.53)"/><path class="cls-1" d="M1023.05,1272.85a4.78,4.78,0,0,1,1.57-1.36,4.23,4.23,0,0,1,2-.49,4.67,4.67,0,0,1,1.61.26,3,3,0,0,1,1.23.85,4,4,0,0,1,.78,1.5,7.76,7.76,0,0,1,.28,2.22v8.71h-2.09v-8.73a4.8,4.8,0,0,0-.16-1.32,2.24,2.24,0,0,0-.47-0.89,1.82,1.82,0,0,0-.77-0.5,3.19,3.19,0,0,0-1.05-.16,2.84,2.84,0,0,0-1.78.59,4,4,0,0,0-1.2,1.55v9.47H1021v-18.86h2.09v7.18Z" transform="translate(-925.71 -1133.53)"/><path class="cls-1" d="M1033.7,1267.72a1.43,1.43,0,0,1,.31-0.93,1.12,1.12,0,0,1,.92-0.38,1.13,1.13,0,0,1,.92.38,1.42,1.42,0,0,1,.32.93,1.37,1.37,0,0,1-.32.92,1.15,1.15,0,0,1-.92.37,1.14,1.14,0,0,1-.92-0.37A1.39,1.39,0,0,1,1033.7,1267.72Zm2.25,16.81h-2.09v-13.29H1036v13.29Z" transform="translate(-925.71 -1133.53)"/><path class="cls-1" d="M1049.59,1278a10.88,10.88,0,0,1-.32,2.7,6.91,6.91,0,0,1-.92,2.14,4.41,4.41,0,0,1-1.48,1.41,4,4,0,0,1-2,.5,4.81,4.81,0,0,1-2-.39,4.12,4.12,0,0,1-1.48-1.14v6.4h-2.09v-18.39h1.91l0.1,1.47a4.22,4.22,0,0,1,1.5-1.28,4.5,4.5,0,0,1,2-.44,4.12,4.12,0,0,1,2,.49,4.36,4.36,0,0,1,1.49,1.38,6.53,6.53,0,0,1,.92,2.14,11.46,11.46,0,0,1,.31,2.77V1278Zm-2.09-.26a8.75,8.75,0,0,0-.19-1.87,5,5,0,0,0-.6-1.54,3.15,3.15,0,0,0-1-1,2.73,2.73,0,0,0-1.48-.39,3.24,3.24,0,0,0-1,.13,2.78,2.78,0,0,0-.78.38,3,3,0,0,0-.62.58,4.42,4.42,0,0,0-.47.73v6.35a4.38,4.38,0,0,0,.47.73,2.87,2.87,0,0,0,.62.58,2.93,2.93,0,0,0,.79.38,3.34,3.34,0,0,0,1,.13,2.65,2.65,0,0,0,1.46-.39,3.23,3.23,0,0,0,1-1.06,5,5,0,0,0,.6-1.55,8.94,8.94,0,0,0,.19-1.89v-0.26Z" transform="translate(-925.71 -1133.53)"/><path class="cls-1" d="M979.9,1412.35h-2.18v-8.26h-8.28v8.26h-2.17v-17.88h2.17v7.69h8.28v-7.69h2.18v17.88Z" transform="translate(-925.71 -1133.53)"/><path class="cls-1" d="M982.87,1405.58a8.88,8.88,0,0,1,.39-2.68,6.69,6.69,0,0,1,1.1-2.14,5.13,5.13,0,0,1,1.74-1.42,5,5,0,0,1,2.3-.52,5,5,0,0,1,4.08,1.94,6.52,6.52,0,0,1,1.1,2.14,9,9,0,0,1,.38,2.68v0.27a9,9,0,0,1-.38,2.68,6.44,6.44,0,0,1-1.1,2.14,5.19,5.19,0,0,1-8.12,0,6.54,6.54,0,0,1-1.11-2.14,8.87,8.87,0,0,1-.39-2.68v-0.27Zm2.1,0.27a8,8,0,0,0,.21,1.88,5,5,0,0,0,.65,1.55,3.35,3.35,0,0,0,1.08,1.06,3.11,3.11,0,0,0,3,0,3.28,3.28,0,0,0,1.08-1.06,5.18,5.18,0,0,0,.65-1.55,7.77,7.77,0,0,0,.22-1.88v-0.27a7.79,7.79,0,0,0-.22-1.87,5.1,5.1,0,0,0-.65-1.56,3.4,3.4,0,0,0-1.09-1.07,2.86,2.86,0,0,0-1.52-.4,2.78,2.78,0,0,0-1.5.4,3.44,3.44,0,0,0-1.08,1.07,5,5,0,0,0-.65,1.56,8,8,0,0,0-.21,1.87v0.27Z" transform="translate(-925.71 -1133.53)"/><path class="cls-1" d="M1006.92,1405.85a10.88,10.88,0,0,1-.32,2.7,6.8,6.8,0,0,1-.92,2.14,4.47,4.47,0,0,1-1.49,1.41,4,4,0,0,1-2,.5,4.44,4.44,0,0,1-2.09-.46,4.2,4.2,0,0,1-1.49-1.32l-0.1,1.54h-1.92v-18.86h2.09v7a4.23,4.23,0,0,1,1.47-1.26,4.36,4.36,0,0,1,2-.44,4.12,4.12,0,0,1,2,.49,4.32,4.32,0,0,1,1.49,1.38,6.75,6.75,0,0,1,.92,2.14,11.31,11.31,0,0,1,.32,2.77v0.26Zm-2.09-.26a9.92,9.92,0,0,0-.17-1.87,5,5,0,0,0-.55-1.54,3,3,0,0,0-1-1,2.72,2.72,0,0,0-1.49-.39,3.16,3.16,0,0,0-1,.16,2.88,2.88,0,0,0-.83.44,3.09,3.09,0,0,0-.64.66,4.54,4.54,0,0,0-.46.82v5.75a4.78,4.78,0,0,0,.48.82,3.19,3.19,0,0,0,.64.66,2.88,2.88,0,0,0,.83.44,3.16,3.16,0,0,0,1,.16,2.63,2.63,0,0,0,1.44-.38,3,3,0,0,0,1-1,5,5,0,0,0,.56-1.53,9.31,9.31,0,0,0,.18-1.87v-0.26Z" transform="translate(-925.71 -1133.53)"/><path class="cls-1" d="M1019.87,1405.85a10.88,10.88,0,0,1-.32,2.7,6.8,6.8,0,0,1-.92,2.14,4.47,4.47,0,0,1-1.49,1.41,4,4,0,0,1-2,.5,4.44,4.44,0,0,1-2.09-.46,4.2,4.2,0,0,1-1.49-1.32l-0.1,1.54h-1.92v-18.86h2.09v7a4.23,4.23,0,0,1,1.47-1.26,4.36,4.36,0,0,1,2-.44,4.12,4.12,0,0,1,2,.49,4.32,4.32,0,0,1,1.49,1.38,6.75,6.75,0,0,1,.92,2.14,11.31,11.31,0,0,1,.32,2.77v0.26Zm-2.09-.26a9.92,9.92,0,0,0-.17-1.87,5,5,0,0,0-.55-1.54,3,3,0,0,0-1-1,2.72,2.72,0,0,0-1.49-.39,3.16,3.16,0,0,0-1,.16,2.88,2.88,0,0,0-.83.44,3.09,3.09,0,0,0-.64.66,4.54,4.54,0,0,0-.46.82v5.75a4.78,4.78,0,0,0,.48.82,3.19,3.19,0,0,0,.64.66,2.88,2.88,0,0,0,.83.44,3.16,3.16,0,0,0,1,.16,2.63,2.63,0,0,0,1.44-.38,3,3,0,0,0,1-1,5,5,0,0,0,.56-1.53,9.31,9.31,0,0,0,.18-1.87v-0.26Z" transform="translate(-925.71 -1133.53)"/><path class="cls-1" d="M1022.51,1395.54a1.43,1.43,0,0,1,.31-0.93,1.12,1.12,0,0,1,.92-0.38,1.13,1.13,0,0,1,.92.38,1.42,1.42,0,0,1,.32.93,1.37,1.37,0,0,1-.32.92,1.15,1.15,0,0,1-.92.37,1.14,1.14,0,0,1-.92-0.37A1.39,1.39,0,0,1,1022.51,1395.54Zm2.25,16.81h-2.09v-13.29h2.09v13.29Z" transform="translate(-925.71 -1133.53)"/><path class="cls-1" d="M1033.17,1412.59a5.41,5.41,0,0,1-2.31-.48,5.17,5.17,0,0,1-1.76-1.33,6,6,0,0,1-1.13-2,8.07,8.07,0,0,1-.39-2.58v-0.52a8.77,8.77,0,0,1,.45-2.9,6.64,6.64,0,0,1,1.19-2.15,5.19,5.19,0,0,1,1.7-1.33,4.56,4.56,0,0,1,2-.46,4.78,4.78,0,0,1,2.25.5,4.37,4.37,0,0,1,1.56,1.37,6.06,6.06,0,0,1,.91,2.06,10.84,10.84,0,0,1,.29,2.59v1h-8.26a6.1,6.1,0,0,0,.28,1.72,4.3,4.3,0,0,0,.72,1.39,3.49,3.49,0,0,0,1.13.93,3.18,3.18,0,0,0,1.49.34,3.4,3.4,0,0,0,1.87-.49,4.85,4.85,0,0,0,1.34-1.3l1.27,1.08a6,6,0,0,1-.71,1,4.85,4.85,0,0,1-2.25,1.4A5.71,5.71,0,0,1,1033.17,1412.59Zm-0.26-11.91a2.67,2.67,0,0,0-1.16.25,2.9,2.9,0,0,0-.95.73,4,4,0,0,0-.69,1.19,6.46,6.46,0,0,0-.38,1.63h6.11v-0.17a6.93,6.93,0,0,0-.2-1.31,3.72,3.72,0,0,0-.51-1.17,2.7,2.7,0,0,0-.88-0.83A2.6,2.6,0,0,0,1032.91,1400.68Z" transform="translate(-925.71 -1133.53)"/><path class="cls-1" d="M1047.44,1408.82a2.33,2.33,0,0,0-.1-0.69,1.47,1.47,0,0,0-.4-0.61,3,3,0,0,0-.85-0.53,8.38,8.38,0,0,0-1.46-.45,12.84,12.84,0,0,1-1.83-.55,5.42,5.42,0,0,1-1.38-.77,3.09,3.09,0,0,1-.87-1.06,3.2,3.2,0,0,1-.3-1.44,3.57,3.57,0,0,1,.32-1.49,3.79,3.79,0,0,1,.91-1.24,4.36,4.36,0,0,1,1.42-.85,5.28,5.28,0,0,1,1.86-.31,5.51,5.51,0,0,1,2,.33,4.37,4.37,0,0,1,1.47.89,3.78,3.78,0,0,1,.92,1.32,4.14,4.14,0,0,1,.32,1.62h-2.1a2.15,2.15,0,0,0-.17-0.82,2.24,2.24,0,0,0-.5-0.74,2.55,2.55,0,0,0-.8-0.53,2.77,2.77,0,0,0-1.09-.2,3.28,3.28,0,0,0-1.11.17,2.15,2.15,0,0,0-.75.44,1.71,1.71,0,0,0-.43.63,2,2,0,0,0-.13.72,1.84,1.84,0,0,0,.11.66,1.24,1.24,0,0,0,.43.53,3.38,3.38,0,0,0,.86.44,12.88,12.88,0,0,0,1.42.41,12.9,12.9,0,0,1,1.94.64,5.17,5.17,0,0,1,1.36.83,3,3,0,0,1,.81,1.09,3.59,3.59,0,0,1,.26,1.42,3.78,3.78,0,0,1-.33,1.6,3.48,3.48,0,0,1-1,1.24,4.55,4.55,0,0,1-1.49.8,6.09,6.09,0,0,1-1.93.29,5.79,5.79,0,0,1-2.15-.37,4.72,4.72,0,0,1-1.56-1,4.15,4.15,0,0,1-1.29-3h2.09a2.55,2.55,0,0,0,.31,1.17,2.42,2.42,0,0,0,.69.77,2.7,2.7,0,0,0,.91.42,4.11,4.11,0,0,0,1,.12,3.88,3.88,0,0,0,1.13-.15,2.52,2.52,0,0,0,.82-0.41A1.68,1.68,0,0,0,1047.44,1408.82Z" transform="translate(-925.71 -1133.53)"/><path class="cls-1" d="M998.07,1348.44h-2.18v-8.26h-8.28v8.26h-2.17v-17.88h2.17v7.69h8.28v-7.69h2.18v17.88Z" transform="translate(-925.71 -1133.53)"/><path class="cls-1" d="M1006.65,1348.68a5.41,5.41,0,0,1-2.31-.48,5.17,5.17,0,0,1-1.76-1.33,6,6,0,0,1-1.13-2,8.07,8.07,0,0,1-.39-2.58v-0.52a8.77,8.77,0,0,1,.45-2.9,6.64,6.64,0,0,1,1.19-2.15,5.19,5.19,0,0,1,1.7-1.33,4.56,4.56,0,0,1,2-.46,4.78,4.78,0,0,1,2.25.5,4.37,4.37,0,0,1,1.56,1.37,6.06,6.06,0,0,1,.91,2.06,10.84,10.84,0,0,1,.29,2.59v1h-8.26a6.1,6.1,0,0,0,.28,1.72,4.3,4.3,0,0,0,.72,1.39,3.49,3.49,0,0,0,1.13.93,3.18,3.18,0,0,0,1.49.34,3.4,3.4,0,0,0,1.87-.49,4.85,4.85,0,0,0,1.34-1.3l1.27,1.08a6,6,0,0,1-.71,1,4.85,4.85,0,0,1-2.25,1.4A5.71,5.71,0,0,1,1006.65,1348.68Zm-0.26-11.91a2.67,2.67,0,0,0-1.16.25,2.9,2.9,0,0,0-.95.73,4,4,0,0,0-.69,1.19,6.46,6.46,0,0,0-.38,1.63h6.11v-0.17a6.93,6.93,0,0,0-.2-1.31,3.72,3.72,0,0,0-.51-1.17,2.7,2.7,0,0,0-.88-0.83A2.6,2.6,0,0,0,1006.39,1336.77Z" transform="translate(-925.71 -1133.53)"/><path class="cls-1" d="M1021.35,1348.44a2.61,2.61,0,0,1-.18-0.62c0-.25-0.08-0.51-0.11-0.78a5.82,5.82,0,0,1-.66.63,4.6,4.6,0,0,1-.8.53,4.33,4.33,0,0,1-2,.48,4.49,4.49,0,0,1-1.7-.31,3.88,3.88,0,0,1-1.3-.83,3.69,3.69,0,0,1-.83-1.25,4,4,0,0,1-.29-1.54,4.38,4.38,0,0,1,.38-1.88,3.68,3.68,0,0,1,1.1-1.37,5,5,0,0,1,1.73-.83,8.44,8.44,0,0,1,2.27-.28H1021v-1a2.68,2.68,0,0,0-.65-1.9,2.5,2.5,0,0,0-1.93-.71,3.2,3.2,0,0,0-1.07.17,2.66,2.66,0,0,0-.83.46,2.1,2.1,0,0,0-.54.67,1.75,1.75,0,0,0-.19.8h-2.1a3.17,3.17,0,0,1,.34-1.41,4.07,4.07,0,0,1,1-1.26,5,5,0,0,1,1.53-.91,5.46,5.46,0,0,1,2-.35,5.82,5.82,0,0,1,1.83.28,3.72,3.72,0,0,1,2.37,2.23,5.17,5.17,0,0,1,.34,2v6.18a9.82,9.82,0,0,0,.11,1.42,5.67,5.67,0,0,0,.32,1.28v0.2h-2.19Zm-3.46-1.73a3.2,3.2,0,0,0,1.06-.17,3.79,3.79,0,0,0,.9-0.45,3.43,3.43,0,0,0,.71-0.63,3.13,3.13,0,0,0,.47-0.74V1342h-1.74a5.22,5.22,0,0,0-2.76.61,2,2,0,0,0-1,1.84,2.69,2.69,0,0,0,.15.9,1.88,1.88,0,0,0,.45.72,2.18,2.18,0,0,0,.73.48A2.65,2.65,0,0,0,1017.89,1346.7Z" transform="translate(-925.71 -1133.53)"/><path class="cls-1" d="M1028.65,1348.44h-2.09v-18.86h2.09v18.86Z" transform="translate(-925.71 -1133.53)"/><path class="cls-1" d="M1034.81,1331.93v3.22h2.28v1.76h-2.28v8.24a2.5,2.5,0,0,0,.11.83,1.2,1.2,0,0,0,.3.49,0.92,0.92,0,0,0,.43.23,2.24,2.24,0,0,0,.5.06,2.88,2.88,0,0,0,.55-0.06l0.45-.09v1.84l-0.64.16a4.55,4.55,0,0,1-1,.09,3.28,3.28,0,0,1-1.09-.18,2.16,2.16,0,0,1-.9-0.6,3,3,0,0,1-.61-1.1,5.38,5.38,0,0,1-.23-1.68v-8.23h-2.22v-1.76h2.22v-3.22h2.09Z" transform="translate(-925.71 -1133.53)"/><path class="cls-1" d="M1041.61,1336.76a4.78,4.78,0,0,1,1.57-1.36,4.23,4.23,0,0,1,2-.49,4.67,4.67,0,0,1,1.61.26,3,3,0,0,1,1.23.85,4,4,0,0,1,.78,1.5,7.76,7.76,0,0,1,.28,2.22v8.71H1047v-8.73a4.8,4.8,0,0,0-.16-1.32,2.24,2.24,0,0,0-.47-0.89,1.82,1.82,0,0,0-.77-0.5,3.19,3.19,0,0,0-1.05-.16,2.84,2.84,0,0,0-1.78.59,4,4,0,0,0-1.2,1.55v9.47h-2.09v-18.86h2.09v7.18Z" transform="translate(-925.71 -1133.53)"/><path class="cls-1" d="M946.43,1214.94a8.81,8.81,0,0,1-.57,2.35,5.72,5.72,0,0,1-1.2,1.88,5.4,5.4,0,0,1-1.87,1.24,6.86,6.86,0,0,1-2.58.45,5.7,5.7,0,0,1-4.66-2.26,8,8,0,0,1-1.3-2.61,11.82,11.82,0,0,1-.46-3.4v-1.79a11.76,11.76,0,0,1,.46-3.41,7.83,7.83,0,0,1,1.32-2.62,5.93,5.93,0,0,1,2.08-1.68,6.18,6.18,0,0,1,2.75-.6,6.39,6.39,0,0,1,2.46.44,5.21,5.21,0,0,1,1.82,1.23,5.91,5.91,0,0,1,1.19,1.89,8.65,8.65,0,0,1,.56,2.42h-2.18a8.63,8.63,0,0,0-.38-1.68,3.86,3.86,0,0,0-.72-1.28,3,3,0,0,0-1.13-.81,4.2,4.2,0,0,0-1.62-.28,3.9,3.9,0,0,0-1.92.46,4,4,0,0,0-1.39,1.29,6.1,6.1,0,0,0-.84,2,11,11,0,0,0-.28,2.58v1.82a11.49,11.49,0,0,0,.25,2.47,6.69,6.69,0,0,0,.77,2,4,4,0,0,0,1.32,1.36,3.51,3.51,0,0,0,1.89.5,5,5,0,0,0,1.75-.27,3,3,0,0,0,1.18-.78,3.54,3.54,0,0,0,.73-1.25,9,9,0,0,0,.39-1.69h2.18Z" transform="translate(-925.71 -1133.53)"/><path class="cls-1" d="M948.5,1213.85a8.88,8.88,0,0,1,.39-2.68A6.69,6.69,0,0,1,950,1209a5.13,5.13,0,0,1,1.74-1.42,5,5,0,0,1,2.3-.52,5,5,0,0,1,4.08,1.94,6.52,6.52,0,0,1,1.1,2.14,9,9,0,0,1,.38,2.68v0.27a9,9,0,0,1-.38,2.68,6.44,6.44,0,0,1-1.1,2.14,5.19,5.19,0,0,1-8.12,0,6.54,6.54,0,0,1-1.11-2.14,8.87,8.87,0,0,1-.39-2.68v-0.27Zm2.1,0.27a8,8,0,0,0,.21,1.88,5,5,0,0,0,.65,1.55,3.35,3.35,0,0,0,1.08,1.06,3.11,3.11,0,0,0,3,0,3.28,3.28,0,0,0,1.08-1.06,5.18,5.18,0,0,0,.65-1.55,7.77,7.77,0,0,0,.22-1.88v-0.27a7.79,7.79,0,0,0-.22-1.87,5.1,5.1,0,0,0-.65-1.56,3.4,3.4,0,0,0-1.09-1.07,2.86,2.86,0,0,0-1.52-.4,2.78,2.78,0,0,0-1.5.4,3.44,3.44,0,0,0-1.08,1.07,5,5,0,0,0-.65,1.56,8,8,0,0,0-.21,1.87v0.27Z" transform="translate(-925.71 -1133.53)"/><path class="cls-1" d="M964.19,1207.33l0.06,1.47a4.5,4.5,0,0,1,1.53-1.26,4.57,4.57,0,0,1,2.09-.45,4.2,4.2,0,0,1,2.09.51,3.28,3.28,0,0,1,1.39,1.63,4.78,4.78,0,0,1,1.58-1.55,4.37,4.37,0,0,1,2.31-.59,5,5,0,0,1,1.74.28,3.12,3.12,0,0,1,1.28.87,3.87,3.87,0,0,1,.79,1.5,7.62,7.62,0,0,1,.27,2.16v8.73h-2.09v-8.74a4.41,4.41,0,0,0-.19-1.39,2.19,2.19,0,0,0-.52-0.88,1.82,1.82,0,0,0-.82-0.46,4.16,4.16,0,0,0-1.07-.13,2.77,2.77,0,0,0-1.14.22,2.63,2.63,0,0,0-.85.6,2.84,2.84,0,0,0-.56.88,3.84,3.84,0,0,0-.26,1.09v8.82h-2.1v-8.73a4.12,4.12,0,0,0-.19-1.32,2.3,2.3,0,0,0-.52-0.89,2,2,0,0,0-.82-0.5,3.4,3.4,0,0,0-1.08-.16,2.84,2.84,0,0,0-1.79.53,3.22,3.22,0,0,0-1,1.38v9.7h-2.09v-13.29h2Z" transform="translate(-925.71 -1133.53)"/><path class="cls-1" d="M984.43,1207.33l0.06,1.47a4.5,4.5,0,0,1,1.53-1.26,4.57,4.57,0,0,1,2.09-.45,4.2,4.2,0,0,1,2.09.51,3.28,3.28,0,0,1,1.39,1.63,4.78,4.78,0,0,1,1.58-1.55,4.37,4.37,0,0,1,2.31-.59,5,5,0,0,1,1.74.28,3.12,3.12,0,0,1,1.28.87,3.87,3.87,0,0,1,.79,1.5,7.62,7.62,0,0,1,.27,2.16v8.73h-2.09v-8.74a4.41,4.41,0,0,0-.19-1.39,2.19,2.19,0,0,0-.52-0.88,1.82,1.82,0,0,0-.82-0.46,4.16,4.16,0,0,0-1.07-.13,2.77,2.77,0,0,0-1.14.22,2.63,2.63,0,0,0-.85.6,2.84,2.84,0,0,0-.56.88,3.84,3.84,0,0,0-.26,1.09v8.82H990v-8.73a4.12,4.12,0,0,0-.19-1.32,2.3,2.3,0,0,0-.52-0.89,2,2,0,0,0-.82-0.5,3.4,3.4,0,0,0-1.08-.16,2.84,2.84,0,0,0-1.79.53,3.22,3.22,0,0,0-1,1.38v9.7h-2.09v-13.29h2Z" transform="translate(-925.71 -1133.53)"/><path class="cls-1" d="M1010.23,1219.3a3.91,3.91,0,0,1-1.46,1.15,5,5,0,0,1-2.12.41,4.62,4.62,0,0,1-1.63-.28,3.15,3.15,0,0,1-1.26-.87,4.06,4.06,0,0,1-.82-1.54,7.78,7.78,0,0,1-.29-2.27v-8.58h2.09v8.61a4.82,4.82,0,0,0,.19,1.48,2.45,2.45,0,0,0,.51.92,1.67,1.67,0,0,0,.72.47,2.74,2.74,0,0,0,.83.13,3.57,3.57,0,0,0,2-.53,3.09,3.09,0,0,0,1.13-1.41v-9.66h2.09v13.29h-2Z" transform="translate(-925.71 -1133.53)"/><path class="cls-1" d="M1017.4,1207.33l0.07,1.67a4.81,4.81,0,0,1,1.58-1.41,4.23,4.23,0,0,1,2.08-.51,4.67,4.67,0,0,1,1.61.26,3,3,0,0,1,1.23.85,4,4,0,0,1,.78,1.5,7.76,7.76,0,0,1,.28,2.22v8.71h-2.09v-8.73a4.8,4.8,0,0,0-.16-1.32,2.24,2.24,0,0,0-.47-0.89,1.82,1.82,0,0,0-.77-0.5,3.19,3.19,0,0,0-1.05-.16,2.84,2.84,0,0,0-1.78.59,4,4,0,0,0-1.2,1.55v9.47h-2.09v-13.29h2Z" transform="translate(-925.71 -1133.53)"/><path class="cls-1" d="M1028.18,1203.8a1.43,1.43,0,0,1,.31-0.93,1.12,1.12,0,0,1,.92-0.38,1.13,1.13,0,0,1,.92.38,1.42,1.42,0,0,1,.32.93,1.37,1.37,0,0,1-.32.92,1.15,1.15,0,0,1-.92.37,1.14,1.14,0,0,1-.92-0.37A1.39,1.39,0,0,1,1028.18,1203.8Zm2.25,16.81h-2.09v-13.29h2.09v13.29Z" transform="translate(-925.71 -1133.53)"/><path class="cls-1" d="M1036.61,1204.11v3.22h2.28v1.76h-2.28v8.24a2.5,2.5,0,0,0,.11.83,1.2,1.2,0,0,0,.3.49,0.92,0.92,0,0,0,.43.23,2.24,2.24,0,0,0,.5.06,2.88,2.88,0,0,0,.55-0.06l0.45-.09v1.84l-0.64.16a4.55,4.55,0,0,1-1,.09,3.28,3.28,0,0,1-1.09-.18,2.16,2.16,0,0,1-.9-0.6,3,3,0,0,1-.61-1.1,5.38,5.38,0,0,1-.23-1.68v-8.23h-2.22v-1.76h2.22v-3.22h2.09Z" transform="translate(-925.71 -1133.53)"/><path class="cls-1" d="M1045.31,1217.29l2.84-10h2.23l-4.9,15.34a11,11,0,0,1-.44,1.07,4.59,4.59,0,0,1-.7,1.07,3.88,3.88,0,0,1-1,.83,2.91,2.91,0,0,1-1.43.34l-0.29,0-0.34-.06-0.32-.06-0.23-.05v-1.84l0.12,0h0.44a3.59,3.59,0,0,0,.94-0.11,2,2,0,0,0,.72-0.36,2.21,2.21,0,0,0,.55-0.67,5.58,5.58,0,0,0,.42-1l0.46-1.35-4.35-13.14h2.28Z" transform="translate(-925.71 -1133.53)"/><path class="cls-1" d="M1415.67,1412.35h-10.76v-1.63l5.38-6.51q0.74-.9,1.23-1.58a9.78,9.78,0,0,0,.78-1.26,4.75,4.75,0,0,0,.4-1.07,4.57,4.57,0,0,0,.11-1,4,4,0,0,0-.19-1.25,3,3,0,0,0-.55-1,2.61,2.61,0,0,0-.89-0.68,2.8,2.8,0,0,0-1.22-.25,3.58,3.58,0,0,0-1.45.27,2.77,2.77,0,0,0-1,.75,3.19,3.19,0,0,0-.61,1.15,5.1,5.1,0,0,0-.2,1.48h-2.09a6.56,6.56,0,0,1,.34-2.14,5,5,0,0,1,1-1.76,4.82,4.82,0,0,1,1.68-1.19,5.79,5.79,0,0,1,2.32-.44,5.93,5.93,0,0,1,2.08.34,4.33,4.33,0,0,1,1.56,1,4.23,4.23,0,0,1,1,1.52,5.42,5.42,0,0,1,.34,2,5.33,5.33,0,0,1-.25,1.58,9.48,9.48,0,0,1-.67,1.59,13.18,13.18,0,0,1-1,1.57q-0.56.78-1.18,1.53l-4.41,5.21h8.24v1.85Z" transform="translate(-925.71 -1133.53)"/><path class="cls-1" d="M1413.09,1266.63v1.93h-0.19a6,6,0,0,0-2.55.49,4.9,4.9,0,0,0-1.73,1.31,5.73,5.73,0,0,0-1,1.87,9.23,9.23,0,0,0-.44,2.19,4,4,0,0,1,1.58-1.23,4.93,4.93,0,0,1,2-.39,4.17,4.17,0,0,1,2.11.51,4.48,4.48,0,0,1,1.46,1.34,5.9,5.9,0,0,1,.85,1.88,8.49,8.49,0,0,1,.28,2.16,8.4,8.4,0,0,1-.33,2.39,5.67,5.67,0,0,1-1,1.93,4.62,4.62,0,0,1-1.59,1.29,4.86,4.86,0,0,1-2.2.47,4.39,4.39,0,0,1-2.32-.6,5.27,5.27,0,0,1-1.65-1.58,7.21,7.21,0,0,1-1-2.2,9.57,9.57,0,0,1-.33-2.47v-1.07a22,22,0,0,1,.14-2.5,13,13,0,0,1,.49-2.38,9.63,9.63,0,0,1,.93-2.11,6.42,6.42,0,0,1,1.45-1.7,6.52,6.52,0,0,1,2.07-1.12,8.68,8.68,0,0,1,2.78-.41h0.19Zm-2.74,8.05a3,3,0,0,0-1.06.19,3.46,3.46,0,0,0-.93.52,3.81,3.81,0,0,0-.74.78,3.54,3.54,0,0,0-.49,1V1278a7.63,7.63,0,0,0,.26,2.12,5,5,0,0,0,.71,1.54,3.15,3.15,0,0,0,1,.94,2.43,2.43,0,0,0,1.2.32,2.69,2.69,0,0,0,1.29-.3,2.75,2.75,0,0,0,1-.85,4,4,0,0,0,.59-1.29,6.63,6.63,0,0,0,0-3.19,4.31,4.31,0,0,0-.56-1.31,2.92,2.92,0,0,0-.94-0.92A2.49,2.49,0,0,0,1410.35,1274.69Z" transform="translate(-925.71 -1133.53)"/><path class="cls-1" d="M1411.77,1156.7h-2.1v-15.14l-4.21,1.68v-2.06l6-2.44h0.33v18Z" transform="translate(-925.71 -1133.53)"/><path class="cls-1" d="M1424.74,1156.7h-2.1v-15.14l-4.21,1.68v-2.06l6-2.44h0.33v18Z" transform="translate(-925.71 -1133.53)"/><path class="cls-1" d="M1436.27,1149.95a10.39,10.39,0,0,1,.34-2.77,6.76,6.76,0,0,1,1-2.14,4.57,4.57,0,0,1,1.52-1.38,4,4,0,0,1,2-.49,4.36,4.36,0,0,1,2,.41,4.18,4.18,0,0,1,1.44,1.18v-6.92h2.09v18.86h-1.92l-0.1-1.42a4.13,4.13,0,0,1-1.47,1.24,4.44,4.44,0,0,1-2,.43,3.88,3.88,0,0,1-2-.5,4.65,4.65,0,0,1-1.52-1.41,6.93,6.93,0,0,1-1-2.14,10,10,0,0,1-.34-2.7v-0.26Zm2.09,0.26a9,9,0,0,0,.19,1.87,4.86,4.86,0,0,0,.58,1.53,3.07,3.07,0,0,0,1,1,2.69,2.69,0,0,0,1.46.38,3.25,3.25,0,0,0,1-.14,2.8,2.8,0,0,0,.79-0.4,3.08,3.08,0,0,0,.63-0.61,4.22,4.22,0,0,0,.48-0.79V1147a4.34,4.34,0,0,0-.47-0.75,3,3,0,0,0-.63-0.6,2.91,2.91,0,0,0-.79-0.39,3.21,3.21,0,0,0-1-.14,2.71,2.71,0,0,0-1.47.39,3.07,3.07,0,0,0-1,1,5,5,0,0,0-.58,1.54,9,9,0,0,0-.19,1.87v0.26Z" transform="translate(-925.71 -1133.53)"/><path class="cls-1" d="M1457.33,1156.7a2.61,2.61,0,0,1-.18-0.62c0-.25-0.08-0.51-0.11-0.78a5.82,5.82,0,0,1-.66.63,4.6,4.6,0,0,1-.8.53,4.33,4.33,0,0,1-2,.48,4.49,4.49,0,0,1-1.7-.31,3.88,3.88,0,0,1-1.3-.83,3.69,3.69,0,0,1-.83-1.25,4,4,0,0,1-.29-1.54,4.38,4.38,0,0,1,.38-1.88,3.68,3.68,0,0,1,1.1-1.37,5,5,0,0,1,1.73-.83,8.44,8.44,0,0,1,2.27-.28H1457v-1a2.68,2.68,0,0,0-.65-1.9,2.5,2.5,0,0,0-1.93-.71,3.2,3.2,0,0,0-1.07.17,2.66,2.66,0,0,0-.83.46,2.1,2.1,0,0,0-.54.67,1.75,1.75,0,0,0-.19.8h-2.1a3.17,3.17,0,0,1,.34-1.41,4.07,4.07,0,0,1,1-1.26,5,5,0,0,1,1.53-.91,5.46,5.46,0,0,1,2-.35,5.82,5.82,0,0,1,1.83.28,3.72,3.72,0,0,1,2.37,2.23,5.17,5.17,0,0,1,.34,2v6.18a9.82,9.82,0,0,0,.11,1.42,5.67,5.67,0,0,0,.32,1.28v0.2h-2.19Zm-3.46-1.73a3.2,3.2,0,0,0,1.06-.17,3.79,3.79,0,0,0,.9-0.45,3.43,3.43,0,0,0,.71-0.63,3.13,3.13,0,0,0,.47-0.74v-2.73h-1.74a5.22,5.22,0,0,0-2.76.61,2,2,0,0,0-1,1.84,2.69,2.69,0,0,0,.15.9,1.88,1.88,0,0,0,.45.72,2.18,2.18,0,0,0,.73.48A2.65,2.65,0,0,0,1453.87,1155Z" transform="translate(-925.71 -1133.53)"/><path class="cls-1" d="M1466.18,1153.38l2.84-10h2.23l-4.9,15.34a11,11,0,0,1-.44,1.07,4.59,4.59,0,0,1-.7,1.07,3.88,3.88,0,0,1-1,.83,2.91,2.91,0,0,1-1.43.34l-0.29,0-0.34-.06-0.32-.06-0.23-.05V1160l0.12,0h0.44a3.59,3.59,0,0,0,.94-0.11,2,2,0,0,0,.72-0.36,2.21,2.21,0,0,0,.55-0.67,5.58,5.58,0,0,0,.42-1l0.46-1.35-4.35-13.14h2.28Z" transform="translate(-925.71 -1133.53)"/><path class="cls-1" d="M1480.22,1153.18a2.33,2.33,0,0,0-.1-0.69,1.47,1.47,0,0,0-.4-0.61,3,3,0,0,0-.85-0.53,8.38,8.38,0,0,0-1.46-.45,12.84,12.84,0,0,1-1.83-.55,5.42,5.42,0,0,1-1.38-.77,3.09,3.09,0,0,1-.87-1.06,3.2,3.2,0,0,1-.3-1.44,3.57,3.57,0,0,1,.32-1.49,3.79,3.79,0,0,1,.91-1.24,4.36,4.36,0,0,1,1.42-.85,5.28,5.28,0,0,1,1.86-.31,5.51,5.51,0,0,1,2,.33,4.37,4.37,0,0,1,1.47.89,3.78,3.78,0,0,1,.92,1.32,4.14,4.14,0,0,1,.32,1.62h-2.1a2.15,2.15,0,0,0-.17-0.82,2.24,2.24,0,0,0-.5-0.74,2.55,2.55,0,0,0-.8-0.53,2.77,2.77,0,0,0-1.09-.2,3.28,3.28,0,0,0-1.11.17,2.15,2.15,0,0,0-.75.44,1.71,1.71,0,0,0-.43.63,2,2,0,0,0-.13.72,1.84,1.84,0,0,0,.11.66,1.24,1.24,0,0,0,.43.53,3.38,3.38,0,0,0,.86.44,12.88,12.88,0,0,0,1.42.41,12.9,12.9,0,0,1,1.94.64,5.17,5.17,0,0,1,1.36.83,3,3,0,0,1,.81,1.09,3.59,3.59,0,0,1,.26,1.42,3.78,3.78,0,0,1-.33,1.6,3.48,3.48,0,0,1-1,1.24,4.55,4.55,0,0,1-1.49.8,6.09,6.09,0,0,1-1.93.29,5.79,5.79,0,0,1-2.15-.37,4.72,4.72,0,0,1-1.56-1,4.15,4.15,0,0,1-1.29-3h2.09a2.55,2.55,0,0,0,.31,1.17,2.42,2.42,0,0,0,.69.77,2.7,2.7,0,0,0,.91.42,4.11,4.11,0,0,0,1,.12,3.88,3.88,0,0,0,1.13-.15,2.52,2.52,0,0,0,.82-0.41A1.68,1.68,0,0,0,1480.22,1153.18Z" transform="translate(-925.71 -1133.53)"/><path class="cls-1" d="M1413.72,1342.43H1416v1.85h-2.28v4.15h-2.1v-4.15h-7.48v-1.34l7.35-12.39h2.22v11.87Zm-7.21,0h5.11v-8.77l-0.25.49Z" transform="translate(-925.71 -1133.53)"/><path class="cls-1" d="M1414.87,1207.4a4.43,4.43,0,0,1-.65,2.38,4.53,4.53,0,0,1-1.75,1.63,4.94,4.94,0,0,1,1.14.74,4.76,4.76,0,0,1,.88,1,4.64,4.64,0,0,1,.56,1.22,4.91,4.91,0,0,1,.2,1.41,5.53,5.53,0,0,1-.4,2.17,4.49,4.49,0,0,1-1.1,1.59,4.72,4.72,0,0,1-1.66,1,6.58,6.58,0,0,1-4.12,0,4.65,4.65,0,0,1-1.66-1,4.51,4.51,0,0,1-1.1-1.59,5.53,5.53,0,0,1-.4-2.17,5.05,5.05,0,0,1,.19-1.41,4.82,4.82,0,0,1,.55-1.23,4.54,4.54,0,0,1,.86-1,4.8,4.8,0,0,1,1.14-.74,4.44,4.44,0,0,1-1.73-1.63,4.48,4.48,0,0,1-.63-2.37,5.65,5.65,0,0,1,.36-2.08,4.22,4.22,0,0,1,2.54-2.5,5.81,5.81,0,0,1,3.87,0,4.41,4.41,0,0,1,1.53,1,4.32,4.32,0,0,1,1,1.54A5.65,5.65,0,0,1,1414.87,1207.4Zm-1.7,8.34a4,4,0,0,0-.23-1.37,3.17,3.17,0,0,0-.65-1.07,2.89,2.89,0,0,0-1-.69,3.48,3.48,0,0,0-2.57,0,2.78,2.78,0,0,0-1,.69,3.11,3.11,0,0,0-.63,1.07,4.47,4.47,0,0,0,0,2.75,2.83,2.83,0,0,0,.62,1,2.64,2.64,0,0,0,1,.65,4,4,0,0,0,2.62,0,2.65,2.65,0,0,0,1-.65,2.89,2.89,0,0,0,.63-1A4,4,0,0,0,1413.17,1215.74Zm-0.38-8.3a3.72,3.72,0,0,0-.2-1.23,2.89,2.89,0,0,0-.56-1,2.61,2.61,0,0,0-2-.88,2.84,2.84,0,0,0-1.12.21,2.49,2.49,0,0,0-.87.61,2.73,2.73,0,0,0-.56,1,3.91,3.91,0,0,0-.2,1.28,3.77,3.77,0,0,0,.2,1.25,2.77,2.77,0,0,0,.56,1,2.45,2.45,0,0,0,.87.61,3.07,3.07,0,0,0,2.25,0,2.44,2.44,0,0,0,.87-0.61,2.79,2.79,0,0,0,.56-1A3.8,3.8,0,0,0,1412.78,1207.44Z" transform="translate(-925.71 -1133.53)"/><rect class="cls-2" x="153.16" width="299.99" height="31.65" rx="12" ry="12"/><rect class="cls-3" x="153.16" y="127.82" width="220.71" height="31.65" rx="12" ry="12"/><rect class="cls-4" x="153.16" y="255.64" width="75.54" height="31.65" rx="12" ry="12"/><rect class="cls-5" x="153.16" y="191.73" width="164.27" height="31.65" rx="12" ry="12"/><rect class="cls-6" x="153.16" y="63.91" width="250.06" height="31.65" rx="12" ry="12"/></svg>