<svg id="Layer_1" data-name="Layer 1" xmlns="http://www.w3.org/2000/svg" viewBox="0 0 40.61 45.12"><defs><style>.cls-1{fill:teal;}</style></defs><title>calendar</title><path class="cls-1" d="M3040,1378.93h-4.51v4.51H3040v-4.51Zm9,0h-4.51v4.51H3049v-4.51Zm9,0h-4.51v4.51h4.51v-4.51Zm4.51-15.79h-2.26v-4.51h-4.51v4.51h-18v-4.51h-4.51v4.51H3031a4.49,4.49,0,0,0-4.49,4.51l0,31.58a4.51,4.51,0,0,0,4.51,4.51h31.58a4.53,4.53,0,0,0,4.51-4.51v-31.58A4.53,4.53,0,0,0,3062.57,1363.14Zm0,36.09H3031v-24.81h31.58v24.81Z" transform="translate(-3026.47 -1358.63)"/></svg>