<svg id="Layer_1" data-name="Layer 1" xmlns="http://www.w3.org/2000/svg" viewBox="0 0 42.36 42.36"><defs><style>.cls-1{fill:#17a697;}.cls-2{fill:none;}.cls-3{fill:#fff;}</style></defs><title>cloud</title><path class="cls-1" d="M4723.55,2818.17a21.18,21.18,0,1,1,21.18-21.18,21.18,21.18,0,0,1-21.18,21.18" transform="translate(-4702.37 -2775.81)"/><path class="cls-2" d="M4707.7,2781.13h31.71v31.71H4707.7v-31.71Z" transform="translate(-4702.37 -2775.81)"/><path class="cls-3" d="M4733.27,2794.4a9.9,9.9,0,0,0-18.5-2.64,7.93,7.93,0,0,0,.86,15.8h17.18A6.59,6.59,0,0,0,4733.27,2794.4Zm-0.46,10.52h-17.18a5.29,5.29,0,0,1,0-10.57h0.94a7.27,7.27,0,0,1,14.26,2V2797h2A4,4,0,1,1,4732.8,2804.92Z" transform="translate(-4702.37 -2775.81)"/></svg>