<svg id="Layer_1" data-name="Layer 1" xmlns="http://www.w3.org/2000/svg" viewBox="0 0 433.11 376.68"><defs><style>.cls-1{fill:#007f71;}.cls-2,.cls-5{fill:#17a697;}.cls-2,.cls-3,.cls-4,.cls-5{stroke:#17a697;}.cls-2,.cls-3,.cls-4,.cls-5,.cls-6{stroke-miterlimit:10;}.cls-3{fill:#66c6b8;}.cls-4{fill:#004c43;}.cls-5{opacity:0.35;}.cls-6{fill:none;stroke:#fff;stroke-width:3px;}.cls-7{fill:#636363;}</style></defs><title>donut_chart</title><polygon class="cls-1" points="97.77 96.01 103.01 89.31 111.56 80.15 117.79 74.3 124.42 68.98 131.12 63.98 137.43 59.66 144.59 55.5 150.83 52.19 157.07 49.19 163.91 46.26 171.32 43.72 178.17 41.64 183.71 40.56 189.72 39.33 196.58 38.17 203.59 37.33 210.9 36.87 217.89 36.8 224.19 36.93 231.37 37.26 238.5 37.92 245.59 39.1 251.9 40.38 257.45 41.87 262.89 43.36 269 45.41 274.85 47.78 280.81 50.4 285.73 53.06 290.92 55.73 294.52 57.95 278.68 80.02 271.98 76.43 262.84 72.47 254.57 69.34 245.95 67 234.68 64.92 228.21 64.25 219.12 63.69 212.24 63.82 204.13 64.54 196.25 65.52 189.26 66.93 183.71 68.34 177.53 70.44 171.24 72.75 165.08 75.48 157.74 79.38 151.29 83.1 146.01 86.72 139.33 91.78 133.17 97.25 128.24 102.28 124.49 106.2 119.33 112.93 97.77 96.01"/><polygon class="cls-2" points="294.37 57.94 303.25 63.66 313.36 71.38 324.27 81.33 331.98 89.6 339.3 99.05 344.2 106.28 319.55 119.28 312.72 109.78 306.46 102.49 300.81 96.84 291.93 89.24 283.1 83.23 278.73 80.41 294.37 57.94"/><polygon class="cls-3" points="344.42 106.41 348.86 113.88 352.3 120.5 358.9 136.34 363.73 152.77 365.99 165.81 367.37 183.73 366.45 203.91 364.24 217.36 359.88 233.43 355.56 244.78 350.38 255.97 326.66 241.65 332.25 228.4 336.46 215.05 338.82 202.01 339.9 186.33 338.62 169.61 334.98 152.21 327.02 131.82 320.14 119.66 344.42 106.41"/><path class="cls-4" d="M118.3,1261.94l-11.22,17.18-3.44,6.62L97,1301.58,92.22,1318l-2.26,13L88.57,1349l0.92,20.18,2.21,13.45,4.36,16.07,4.31,11.35,9.73,18.87,8.12,12.06c4,3.59,7.59,10.15,11.59,13.73,4.61,4.14,8.77,8.32,13.39,12.45a118.62,118.62,0,0,0,11.3,8.2c2.32,1.52,4,2.88,7.87,5.23l14.83-23.34c-3.67-3.16-8.4-4.81-12.06-8-4.26-3.68-8.79-7.62-13-11.29-3.57-3.08-5.82-7.42-9.39-10.5l-10.38-15.29-8.63-18.53-4.21-13.35-2.36-13L116,1351.57l1.28-16.71,3.65-17.41,8-20.38,11.45-18.5Z" transform="translate(-20.83 -1165.17)"/><polygon class="cls-5" points="326.29 242.13 349.63 255.97 346.71 261.39 341.65 269.76 334.28 279.72 325.78 289.37 315.23 299.51 305.68 307.06 298.21 312.12 286.17 319.18 272.31 325.49 262.38 328.98 253.6 331.42 240.22 334.17 227.64 335.53 208.08 335.53 192.32 333.68 180.74 331.32 165.47 326.52 154.71 322.02 141.82 315.22 156.48 292.37 166.08 297.25 174.96 300.9 182.46 303.49 190.55 305.57 198.53 307.06 207.49 308.19 216.83 308.57 226 308.41 234.81 307.34 243.61 305.72 251.06 303.9 259.78 301 270.54 296.56 278.47 292.55 287.82 286.42 292.13 283.03 296.16 279.9 302.68 274.02 309.28 266.91 316.26 258.67 321.34 251.2 326.29 242.13"/><circle class="cls-6" cx="217.45" cy="186.33" r="149.71"/><circle class="cls-6" cx="217.45" cy="186.33" r="122.08"/><line class="cls-6" x1="119.54" y1="113.4" x2="97.79" y2="96.34"/><line class="cls-6" x1="319.7" y1="119.59" x2="344.06" y2="106.4"/><line class="cls-6" x1="278.51" y1="80.6" x2="294.52" y2="57.95"/><line class="cls-6" x1="141.55" y1="315.4" x2="156.38" y2="292.06"/><line class="cls-6" x1="326.2" y1="241.85" x2="350.02" y2="255.95"/><path class="cls-7" d="M95.56,1176.26H92.17v6.9H90.26V1166.1H95a5.08,5.08,0,0,1,3.75,1.31,6,6,0,0,1,.58,6.6,4.49,4.49,0,0,1-2,1.77l3.39,7.24v0.14h-2Zm-3.39-1.84H95.1a3.37,3.37,0,0,0,1.35-.25,2.77,2.77,0,0,0,1-.68,2.8,2.8,0,0,0,.58-1,3.92,3.92,0,0,0,.19-1.25,4.61,4.61,0,0,0-.18-1.34,2.73,2.73,0,0,0-.57-1,2.54,2.54,0,0,0-1-.67A3.86,3.86,0,0,0,95,1168H92.17v6.47Z" transform="translate(-20.83 -1165.17)"/><path class="cls-7" d="M106.94,1183.4a4.44,4.44,0,0,1-2-.46,4.59,4.59,0,0,1-1.55-1.27,5.88,5.88,0,0,1-1-1.94,8.31,8.31,0,0,1-.35-2.46v-0.49a9,9,0,0,1,.39-2.77,6.5,6.5,0,0,1,1-2.05,4.63,4.63,0,0,1,1.5-1.27,3.75,3.75,0,0,1,1.75-.44,3.79,3.79,0,0,1,3.36,1.78,6,6,0,0,1,.8,2,11.2,11.2,0,0,1,.26,2.47v1h-7.27a6.34,6.34,0,0,0,.24,1.64,4.24,4.24,0,0,0,.63,1.32,3.12,3.12,0,0,0,1,.89,2.62,2.62,0,0,0,1.31.33,2.81,2.81,0,0,0,1.65-.47,4.46,4.46,0,0,0,1.18-1.24l1.12,1a5.71,5.71,0,0,1-.62.91,4.44,4.44,0,0,1-.86.79,4.17,4.17,0,0,1-1.13.55A4.67,4.67,0,0,1,106.94,1183.4ZM106.71,1172a2.19,2.19,0,0,0-1,.24,2.59,2.59,0,0,0-.83.7,3.89,3.89,0,0,0-.61,1.14,6.62,6.62,0,0,0-.33,1.56h5.37v-0.16a7,7,0,0,0-.17-1.25,3.71,3.71,0,0,0-.45-1.11,2.46,2.46,0,0,0-.78-0.8A2.15,2.15,0,0,0,106.71,1172Z" transform="translate(-20.83 -1165.17)"/><path class="cls-7" d="M115.23,1183.17H113.4v-18h1.83v18Z" transform="translate(-20.83 -1165.17)"/><path class="cls-7" d="M124.79,1183.17a2.64,2.64,0,0,1-.16-0.59q-0.06-.36-0.1-0.74a5.3,5.3,0,0,1-.58.6,4.1,4.1,0,0,1-.7.5,3.61,3.61,0,0,1-.83.34,3.53,3.53,0,0,1-.94.12,3.68,3.68,0,0,1-1.49-.29,3.41,3.41,0,0,1-1.14-.8,3.55,3.55,0,0,1-.73-1.19,4.14,4.14,0,0,1-.26-1.47,4.49,4.49,0,0,1,.34-1.8,3.48,3.48,0,0,1,1-1.31,4.26,4.26,0,0,1,1.52-.8,6.88,6.88,0,0,1,2-.27h1.82v-1a2.7,2.7,0,0,0-.58-1.81,2.11,2.11,0,0,0-1.7-.67,2.6,2.6,0,0,0-.94.16,2.29,2.29,0,0,0-.73.44,2,2,0,0,0-.47.64,1.79,1.79,0,0,0-.17.76h-1.84a3.24,3.24,0,0,1,.3-1.35,3.86,3.86,0,0,1,.86-1.2,4.39,4.39,0,0,1,1.34-.87,4.47,4.47,0,0,1,1.76-.33,4.76,4.76,0,0,1,1.61.26,3.31,3.31,0,0,1,1.26.8,3.72,3.72,0,0,1,.82,1.33,5.32,5.32,0,0,1,.3,1.86v5.89a10.26,10.26,0,0,0,.09,1.35,5.85,5.85,0,0,0,.28,1.22v0.19h-1.92Zm-3-1.65a2.63,2.63,0,0,0,.93-0.16,3.26,3.26,0,0,0,.79-0.43,3.13,3.13,0,0,0,.62-0.6,3,3,0,0,0,.41-0.7V1177H123a4.3,4.3,0,0,0-2.43.58,2,2,0,0,0-.85,1.75,2.76,2.76,0,0,0,.13.86,1.83,1.83,0,0,0,.39.69,1.91,1.91,0,0,0,.64.46A2.16,2.16,0,0,0,121.75,1181.51Z" transform="translate(-20.83 -1165.17)"/><path class="cls-7" d="M131.7,1167.42v3.07h2v1.68h-2V1180a2.58,2.58,0,0,0,.1.79,1.17,1.17,0,0,0,.26.46,0.8,0.8,0,0,0,.38.22,1.83,1.83,0,0,0,.44.05,2.35,2.35,0,0,0,.48-0.05l0.39-.09v1.76l-0.57.15a3.72,3.72,0,0,1-.84.08,2.69,2.69,0,0,1-1-.17,1.9,1.9,0,0,1-.79-0.57,2.93,2.93,0,0,1-.54-1,5.55,5.55,0,0,1-.2-1.6v-7.85h-2v-1.68h2v-3.07h1.83Z" transform="translate(-20.83 -1165.17)"/><path class="cls-7" d="M135.86,1167.12a1.44,1.44,0,0,1,.27-0.89,1,1,0,0,1,.81-0.36,1,1,0,0,1,.81.36,1.42,1.42,0,0,1,.28.89,1.37,1.37,0,0,1-.28.88,1,1,0,0,1-.81.35,1,1,0,0,1-.81-0.35A1.39,1.39,0,0,1,135.86,1167.12Zm2,16H136v-12.68h1.83v12.68Z" transform="translate(-20.83 -1165.17)"/><path class="cls-7" d="M140.29,1176.71a9.15,9.15,0,0,1,.34-2.56,6.56,6.56,0,0,1,1-2,4.6,4.6,0,0,1,1.53-1.36,4.15,4.15,0,0,1,2-.49,4.22,4.22,0,0,1,2,.49,4.63,4.63,0,0,1,1.54,1.36,6.42,6.42,0,0,1,1,2,9.28,9.28,0,0,1,.34,2.56V1177a9.28,9.28,0,0,1-.34,2.56,6.35,6.35,0,0,1-1,2,4.62,4.62,0,0,1-1.54,1.35,4.49,4.49,0,0,1-4.06,0,4.62,4.62,0,0,1-1.54-1.35,6.43,6.43,0,0,1-1-2,9.15,9.15,0,0,1-.34-2.56v-0.26Zm1.84,0.26a8.22,8.22,0,0,0,.19,1.79,5,5,0,0,0,.57,1.48,3.08,3.08,0,0,0,1,1,2.55,2.55,0,0,0,2.66,0,3,3,0,0,0,1-1,5.17,5.17,0,0,0,.57-1.48,8,8,0,0,0,.19-1.79v-0.26a8,8,0,0,0-.19-1.79,5.08,5.08,0,0,0-.58-1.49,3.12,3.12,0,0,0-1-1,2.37,2.37,0,0,0-1.34-.38,2.3,2.3,0,0,0-1.32.38,3.16,3.16,0,0,0-.95,1,5,5,0,0,0-.57,1.49,8.24,8.24,0,0,0-.19,1.79V1177Z" transform="translate(-20.83 -1165.17)"/><path class="cls-7" d="M154.09,1170.49l0.06,1.59a4.38,4.38,0,0,1,1.39-1.34,3.48,3.48,0,0,1,1.82-.49,3.81,3.81,0,0,1,1.42.25,2.6,2.6,0,0,1,1.08.81,4,4,0,0,1,.69,1.43,8,8,0,0,1,.24,2.12v8.31H159v-8.33a5,5,0,0,0-.14-1.26,2.2,2.2,0,0,0-.41-0.85,1.6,1.6,0,0,0-.67-0.48,2.6,2.6,0,0,0-.93-0.15,2.37,2.37,0,0,0-1.57.56,3.73,3.73,0,0,0-1.05,1.48v9h-1.83v-12.68h1.73Z" transform="translate(-20.83 -1165.17)"/><path class="cls-7" d="M169.8,1179.8a2.38,2.38,0,0,0-.09-0.66,1.42,1.42,0,0,0-.35-0.59,2.57,2.57,0,0,0-.75-0.51,6.85,6.85,0,0,0-1.28-.43,10.68,10.68,0,0,1-1.61-.53,4.69,4.69,0,0,1-1.21-.73,2.91,2.91,0,0,1-.77-1,3.27,3.27,0,0,1-.27-1.37,3.65,3.65,0,0,1,1.08-2.61,3.77,3.77,0,0,1,1.25-.81,4.3,4.3,0,0,1,1.64-.3,4.51,4.51,0,0,1,1.72.31,3.8,3.8,0,0,1,1.29.85,3.64,3.64,0,0,1,.81,1.26,4.25,4.25,0,0,1,.28,1.54H169.7a2.19,2.19,0,0,0-.15-0.78,2.15,2.15,0,0,0-.44-0.7,2.22,2.22,0,0,0-.7-0.5,2.26,2.26,0,0,0-1-.19,2.67,2.67,0,0,0-1,.16,1.86,1.86,0,0,0-.66.42,1.63,1.63,0,0,0-.38.6,2,2,0,0,0-.12.69,1.89,1.89,0,0,0,.1.63,1.17,1.17,0,0,0,.38.51,2.9,2.9,0,0,0,.76.42,10.6,10.6,0,0,0,1.24.39,10.72,10.72,0,0,1,1.71.61,4.51,4.51,0,0,1,1.2.79,2.89,2.89,0,0,1,.71,1,3.66,3.66,0,0,1,.23,1.36,3.87,3.87,0,0,1-.29,1.52,3.31,3.31,0,0,1-.84,1.18,3.91,3.91,0,0,1-1.31.77,5,5,0,0,1-1.7.28,4.75,4.75,0,0,1-1.89-.35,4.13,4.13,0,0,1-1.37-.93,4,4,0,0,1-.84-1.32,4.2,4.2,0,0,1-.29-1.53h1.83a2.59,2.59,0,0,0,.27,1.12,2.25,2.25,0,0,0,.61.73,2.28,2.28,0,0,0,.8.4,3.35,3.35,0,0,0,.87.12,3.17,3.17,0,0,0,1-.14,2.15,2.15,0,0,0,.72-0.39,1.61,1.61,0,0,0,.44-0.58A1.75,1.75,0,0,0,169.8,1179.8Z" transform="translate(-20.83 -1165.17)"/><path class="cls-7" d="M175.86,1172a4.32,4.32,0,0,1,1.38-1.3,3.49,3.49,0,0,1,1.79-.47,3.81,3.81,0,0,1,1.42.25,2.6,2.6,0,0,1,1.08.81,4,4,0,0,1,.69,1.43,8,8,0,0,1,.24,2.12v8.31h-1.83v-8.33a5,5,0,0,0-.14-1.26,2.2,2.2,0,0,0-.41-0.85,1.6,1.6,0,0,0-.67-0.48,2.6,2.6,0,0,0-.93-0.15,2.37,2.37,0,0,0-1.57.56,3.73,3.73,0,0,0-1.05,1.48v9H174v-18h1.83V1172Z" transform="translate(-20.83 -1165.17)"/><path class="cls-7" d="M185.22,1167.12a1.44,1.44,0,0,1,.27-0.89,1,1,0,0,1,.81-0.36,1,1,0,0,1,.81.36,1.42,1.42,0,0,1,.28.89,1.37,1.37,0,0,1-.28.88,1,1,0,0,1-.81.35,1,1,0,0,1-.81-0.35A1.39,1.39,0,0,1,185.22,1167.12Zm2,16h-1.83v-12.68h1.83v12.68Z" transform="translate(-20.83 -1165.17)"/><path class="cls-7" d="M199.2,1177a11.21,11.21,0,0,1-.28,2.57,6.87,6.87,0,0,1-.81,2,4,4,0,0,1-1.3,1.34,3.28,3.28,0,0,1-1.76.48,4,4,0,0,1-1.77-.37,3.69,3.69,0,0,1-1.3-1.09V1188h-1.83v-17.55h1.68l0.09,1.41a3.8,3.8,0,0,1,1.32-1.22,3.69,3.69,0,0,1,1.79-.42,3.4,3.4,0,0,1,1.79.47,4,4,0,0,1,1.31,1.32,6.54,6.54,0,0,1,.81,2,11.85,11.85,0,0,1,.27,2.64V1177Zm-1.83-.25a9.06,9.06,0,0,0-.17-1.79,5,5,0,0,0-.53-1.47,2.91,2.91,0,0,0-.9-1,2.26,2.26,0,0,0-1.3-.37,2.64,2.64,0,0,0-.85.13,2.38,2.38,0,0,0-.69.36,2.74,2.74,0,0,0-.55.56,4.24,4.24,0,0,0-.42.7v6.06a4.24,4.24,0,0,0,.42.7,2.62,2.62,0,0,0,.55.55,2.45,2.45,0,0,0,.69.36,2.72,2.72,0,0,0,.86.13,2.2,2.2,0,0,0,1.28-.37,3,3,0,0,0,.9-1,5,5,0,0,0,.53-1.48,9.24,9.24,0,0,0,.17-1.8v-0.25Z" transform="translate(-20.83 -1165.17)"/><path class="cls-7" d="M354.46,1224.59h-1.91v-7.89h-7.28v7.89h-1.9v-17.06h1.9v7.34h7.28v-7.34h1.91v17.06Z" transform="translate(-20.83 -1165.17)"/><path class="cls-7" d="M357.07,1218.13a9.15,9.15,0,0,1,.34-2.56,6.56,6.56,0,0,1,1-2,4.6,4.6,0,0,1,1.53-1.36,4.15,4.15,0,0,1,2-.49,4.22,4.22,0,0,1,2,.49,4.63,4.63,0,0,1,1.54,1.36,6.42,6.42,0,0,1,1,2,9.28,9.28,0,0,1,.34,2.56v0.26a9.28,9.28,0,0,1-.34,2.56,6.35,6.35,0,0,1-1,2,4.62,4.62,0,0,1-1.54,1.35,4.49,4.49,0,0,1-4.06,0,4.62,4.62,0,0,1-1.54-1.35,6.43,6.43,0,0,1-1-2,9.15,9.15,0,0,1-.34-2.56v-0.26Zm1.84,0.26a8.22,8.22,0,0,0,.19,1.79,5,5,0,0,0,.57,1.48,3.08,3.08,0,0,0,1,1,2.55,2.55,0,0,0,2.66,0,3,3,0,0,0,1-1,5.17,5.17,0,0,0,.57-1.48,8,8,0,0,0,.19-1.79v-0.26a8,8,0,0,0-.19-1.79,5.08,5.08,0,0,0-.58-1.49,3.12,3.12,0,0,0-1-1,2.37,2.37,0,0,0-1.34-.38,2.3,2.3,0,0,0-1.32.38,3.16,3.16,0,0,0-.95,1,5,5,0,0,0-.57,1.49,8.24,8.24,0,0,0-.19,1.79v0.26Z" transform="translate(-20.83 -1165.17)"/><path class="cls-7" d="M378.22,1218.39a11.21,11.21,0,0,1-.28,2.57,6.79,6.79,0,0,1-.81,2,4.08,4.08,0,0,1-1.31,1.34,3.27,3.27,0,0,1-1.76.48,3.65,3.65,0,0,1-1.83-.44,3.81,3.81,0,0,1-1.31-1.26l-0.09,1.46h-1.69v-18H371v6.71a3.81,3.81,0,0,1,1.29-1.21,3.57,3.57,0,0,1,1.77-.42,3.4,3.4,0,0,1,1.79.47,3.94,3.94,0,0,1,1.31,1.32,6.71,6.71,0,0,1,.81,2,11.64,11.64,0,0,1,.28,2.64v0.25Zm-1.83-.25a10.23,10.23,0,0,0-.15-1.79,5,5,0,0,0-.48-1.47,2.73,2.73,0,0,0-.87-1,2.25,2.25,0,0,0-1.31-.37,2.58,2.58,0,0,0-.91.15,2.49,2.49,0,0,0-.73.42,2.87,2.87,0,0,0-.56.63,4.42,4.42,0,0,0-.41.79V1221a4.71,4.71,0,0,0,.42.79,3,3,0,0,0,.57.63,2.48,2.48,0,0,0,.73.42,2.58,2.58,0,0,0,.91.15,2.18,2.18,0,0,0,1.27-.36,2.79,2.79,0,0,0,.86-1,5,5,0,0,0,.5-1.46,9.63,9.63,0,0,0,.16-1.79v-0.25Z" transform="translate(-20.83 -1165.17)"/><path class="cls-7" d="M389.61,1218.39a11.21,11.21,0,0,1-.28,2.57,6.79,6.79,0,0,1-.81,2,4.08,4.08,0,0,1-1.31,1.34,3.27,3.27,0,0,1-1.76.48,3.65,3.65,0,0,1-1.83-.44,3.81,3.81,0,0,1-1.31-1.26l-0.09,1.46h-1.69v-18h1.83v6.71a3.81,3.81,0,0,1,1.29-1.21,3.57,3.57,0,0,1,1.77-.42,3.4,3.4,0,0,1,1.79.47,3.94,3.94,0,0,1,1.31,1.32,6.71,6.71,0,0,1,.81,2,11.64,11.64,0,0,1,.28,2.64v0.25Zm-1.83-.25a10.23,10.23,0,0,0-.15-1.79,5,5,0,0,0-.48-1.47,2.73,2.73,0,0,0-.87-1,2.25,2.25,0,0,0-1.31-.37,2.58,2.58,0,0,0-.91.15,2.49,2.49,0,0,0-.73.42,2.87,2.87,0,0,0-.56.63,4.42,4.42,0,0,0-.41.79V1221a4.71,4.71,0,0,0,.42.79,3,3,0,0,0,.57.63,2.48,2.48,0,0,0,.73.42,2.58,2.58,0,0,0,.91.15,2.18,2.18,0,0,0,1.27-.36,2.79,2.79,0,0,0,.86-1,5,5,0,0,0,.5-1.46,9.63,9.63,0,0,0,.16-1.79v-0.25Z" transform="translate(-20.83 -1165.17)"/><path class="cls-7" d="M391.93,1208.54a1.44,1.44,0,0,1,.27-0.89,1,1,0,0,1,.81-0.36,1,1,0,0,1,.81.36,1.42,1.42,0,0,1,.28.89,1.37,1.37,0,0,1-.28.88,1,1,0,0,1-.81.35,1,1,0,0,1-.81-0.35A1.39,1.39,0,0,1,391.93,1208.54Zm2,16h-1.83v-12.68h1.83v12.68Z" transform="translate(-20.83 -1165.17)"/><path class="cls-7" d="M401.3,1224.82a4.44,4.44,0,0,1-2-.46,4.59,4.59,0,0,1-1.55-1.27,5.88,5.88,0,0,1-1-1.94,8.31,8.31,0,0,1-.35-2.46v-0.49a9,9,0,0,1,.39-2.77,6.5,6.5,0,0,1,1-2.05,4.63,4.63,0,0,1,1.5-1.27,3.75,3.75,0,0,1,1.75-.44,3.79,3.79,0,0,1,3.36,1.78,6,6,0,0,1,.8,2,11.2,11.2,0,0,1,.26,2.47v1h-7.27a6.34,6.34,0,0,0,.24,1.64,4.24,4.24,0,0,0,.63,1.32,3.12,3.12,0,0,0,1,.89,2.62,2.62,0,0,0,1.31.33,2.81,2.81,0,0,0,1.65-.47,4.46,4.46,0,0,0,1.18-1.24l1.12,1a5.71,5.71,0,0,1-.62.91,4.44,4.44,0,0,1-.86.79,4.17,4.17,0,0,1-1.13.55A4.67,4.67,0,0,1,401.3,1224.82Zm-0.23-11.37a2.19,2.19,0,0,0-1,.24,2.59,2.59,0,0,0-.83.7,3.89,3.89,0,0,0-.61,1.14,6.62,6.62,0,0,0-.33,1.56h5.37v-0.16a7,7,0,0,0-.17-1.25,3.71,3.71,0,0,0-.45-1.11,2.46,2.46,0,0,0-.78-0.8A2.15,2.15,0,0,0,401.07,1213.45Z" transform="translate(-20.83 -1165.17)"/><path class="cls-7" d="M413.85,1221.22a2.38,2.38,0,0,0-.09-0.66,1.42,1.42,0,0,0-.35-0.59,2.57,2.57,0,0,0-.75-0.51,6.85,6.85,0,0,0-1.28-.43,10.68,10.68,0,0,1-1.61-.53,4.69,4.69,0,0,1-1.21-.73,2.91,2.91,0,0,1-.77-1,3.27,3.27,0,0,1-.27-1.37,3.65,3.65,0,0,1,1.08-2.61,3.77,3.77,0,0,1,1.25-.81,4.3,4.3,0,0,1,1.64-.3,4.51,4.51,0,0,1,1.72.31,3.8,3.8,0,0,1,1.29.85,3.64,3.64,0,0,1,.81,1.26,4.25,4.25,0,0,1,.28,1.54h-1.84a2.19,2.19,0,0,0-.15-0.78,2.15,2.15,0,0,0-.44-0.7,2.22,2.22,0,0,0-.7-0.5,2.26,2.26,0,0,0-1-.19,2.67,2.67,0,0,0-1,.16,1.86,1.86,0,0,0-.66.42,1.63,1.63,0,0,0-.38.6,2,2,0,0,0-.12.69,1.89,1.89,0,0,0,.1.63,1.17,1.17,0,0,0,.38.51,2.9,2.9,0,0,0,.76.42,10.6,10.6,0,0,0,1.24.39,10.72,10.72,0,0,1,1.71.61,4.51,4.51,0,0,1,1.2.79,2.89,2.89,0,0,1,.71,1,3.66,3.66,0,0,1,.23,1.36,3.87,3.87,0,0,1-.29,1.52,3.31,3.31,0,0,1-.84,1.18,3.91,3.91,0,0,1-1.31.77,5,5,0,0,1-1.7.28,4.75,4.75,0,0,1-1.89-.35,4.13,4.13,0,0,1-1.37-.93,4,4,0,0,1-.84-1.32,4.2,4.2,0,0,1-.29-1.53H409a2.59,2.59,0,0,0,.27,1.12,2.25,2.25,0,0,0,.61.73,2.28,2.28,0,0,0,.8.4,3.35,3.35,0,0,0,.87.12,3.17,3.17,0,0,0,1-.14,2.15,2.15,0,0,0,.72-0.39,1.61,1.61,0,0,0,.44-0.58A1.75,1.75,0,0,0,413.85,1221.22Z" transform="translate(-20.83 -1165.17)"/><path class="cls-7" d="M132.76,1208.83h-1.84v-14.45l-3.7,1.61v-2l5.25-2.33h0.29v17.14Z" transform="translate(-20.83 -1165.17)"/><path class="cls-7" d="M140.14,1207a5.53,5.53,0,0,0,2.45-.47,4,4,0,0,0,1.52-1.27,5,5,0,0,0,.79-1.82,11.73,11.73,0,0,0,.27-2.13,4.71,4.71,0,0,1-1.37,1.3,3.27,3.27,0,0,1-1.75.49,3.36,3.36,0,0,1-1.85-.5,4.09,4.09,0,0,1-1.28-1.3,6.08,6.08,0,0,1-.74-1.82,9.12,9.12,0,0,1,0-4.36,5.94,5.94,0,0,1,.85-1.88,4.11,4.11,0,0,1,1.4-1.27,3.94,3.94,0,0,1,1.94-.46,3.67,3.67,0,0,1,2.11.59,4.63,4.63,0,0,1,1.43,1.56,7.52,7.52,0,0,1,.81,2.21,12.4,12.4,0,0,1,.26,2.54v0.79q0,1.11-.09,2.26a14.2,14.2,0,0,1-.36,2.21,9.53,9.53,0,0,1-.73,2,5.44,5.44,0,0,1-3.09,2.74,7.49,7.49,0,0,1-2.59.4H140V1207h0.18Zm2.2-5.68a2.39,2.39,0,0,0,.9-0.18,2.86,2.86,0,0,0,.8-0.49,3.92,3.92,0,0,0,.66-0.74,4,4,0,0,0,.47-0.91v-0.87a8.39,8.39,0,0,0-.23-2.06,5.3,5.3,0,0,0-.61-1.51,2.87,2.87,0,0,0-.88-0.93,1.93,1.93,0,0,0-1-.32,2.13,2.13,0,0,0-1.14.3,2.63,2.63,0,0,0-.84.84,4.14,4.14,0,0,0-.52,1.26,6.62,6.62,0,0,0-.18,1.58,6.86,6.86,0,0,0,.16,1.48,4.51,4.51,0,0,0,.48,1.28,2.72,2.72,0,0,0,.81.9A2,2,0,0,0,142.34,1201.33Z" transform="translate(-20.83 -1165.17)"/><path class="cls-7" d="M149.38,1195.05a4.48,4.48,0,0,1,.2-1.37,3.48,3.48,0,0,1,.58-1.12,2.81,2.81,0,0,1,.93-0.76,2.87,2.87,0,0,1,2.48,0,2.76,2.76,0,0,1,.93.76,3.54,3.54,0,0,1,.58,1.12,4.48,4.48,0,0,1,.2,1.37v0.9a4.55,4.55,0,0,1-.2,1.35,3.34,3.34,0,0,1-.58,1.11,2.85,2.85,0,0,1-.93.76,2.64,2.64,0,0,1-1.23.28,2.7,2.7,0,0,1-1.24-.28,2.9,2.9,0,0,1-.94-0.76,3.36,3.36,0,0,1-.59-1.11,4.44,4.44,0,0,1-.2-1.35v-0.9Zm1.37,0.9a3.07,3.07,0,0,0,.1.79,2.16,2.16,0,0,0,.3.67,1.52,1.52,0,0,0,.5.47,1.38,1.38,0,0,0,.71.18,1.34,1.34,0,0,0,.69-0.18,1.51,1.51,0,0,0,.49-0.46,2.08,2.08,0,0,0,.29-0.67,3.3,3.3,0,0,0,.09-0.79v-0.9a3.14,3.14,0,0,0-.1-0.79,2.24,2.24,0,0,0-.29-0.67,1.48,1.48,0,0,0-.5-0.47,1.49,1.49,0,0,0-1.4,0,1.49,1.49,0,0,0-.49.47,2.23,2.23,0,0,0-.29.67,3.14,3.14,0,0,0-.1.79v0.9Zm2,11.59-1-.77,7-13.34,1,0.77Zm3.64-2.89a4.49,4.49,0,0,1,.2-1.36,3.38,3.38,0,0,1,.58-1.12,2.84,2.84,0,0,1,.93-0.76,2.87,2.87,0,0,1,2.48,0,2.84,2.84,0,0,1,.93.76,3.39,3.39,0,0,1,.58,1.12,4.49,4.49,0,0,1,.2,1.36v0.91a4.47,4.47,0,0,1-.2,1.37,3.4,3.4,0,0,1-.58,1.11,2.86,2.86,0,0,1-.93.76,2.64,2.64,0,0,1-1.23.28,2.69,2.69,0,0,1-1.24-.28,2.89,2.89,0,0,1-.94-0.76,3.35,3.35,0,0,1-.59-1.11,4.47,4.47,0,0,1-.2-1.37v-0.91Zm1.37,0.91a3.11,3.11,0,0,0,.1.79,2.16,2.16,0,0,0,.3.67,1.52,1.52,0,0,0,.5.47,1.39,1.39,0,0,0,.71.18,1.34,1.34,0,0,0,.69-0.18,1.49,1.49,0,0,0,.49-0.47,2.14,2.14,0,0,0,.29-0.67,3.27,3.27,0,0,0,.09-0.79v-0.91a3.14,3.14,0,0,0-.1-0.79,2.15,2.15,0,0,0-.29-0.67,1.49,1.49,0,0,0-.5-0.46,1.37,1.37,0,0,0-.7-0.18,1.34,1.34,0,0,0-.69.18,1.56,1.56,0,0,0-.5.46,2.08,2.08,0,0,0-.3.67,3.11,3.11,0,0,0-.1.79v0.91Z" transform="translate(-20.83 -1165.17)"/><path class="cls-7" d="M375.67,1233.52l-6,15.84h-1.92l6-15.28h-7.81v-1.78h9.76v1.22Z" transform="translate(-20.83 -1165.17)"/><path class="cls-7" d="M377.6,1235.59a4.48,4.48,0,0,1,.2-1.37,3.48,3.48,0,0,1,.58-1.12,2.81,2.81,0,0,1,.93-0.76,2.87,2.87,0,0,1,2.48,0,2.76,2.76,0,0,1,.93.76,3.54,3.54,0,0,1,.58,1.12,4.48,4.48,0,0,1,.2,1.37v0.9a4.55,4.55,0,0,1-.2,1.35,3.34,3.34,0,0,1-.58,1.11,2.85,2.85,0,0,1-.93.76,2.64,2.64,0,0,1-1.23.28,2.7,2.7,0,0,1-1.24-.28,2.9,2.9,0,0,1-.94-0.76,3.36,3.36,0,0,1-.59-1.11,4.44,4.44,0,0,1-.2-1.35v-0.9Zm1.37,0.9a3.07,3.07,0,0,0,.1.79,2.16,2.16,0,0,0,.3.67,1.52,1.52,0,0,0,.5.47,1.38,1.38,0,0,0,.71.18,1.34,1.34,0,0,0,.69-0.18,1.51,1.51,0,0,0,.49-0.46,2.08,2.08,0,0,0,.29-0.67,3.3,3.3,0,0,0,.09-0.79v-0.9a3.14,3.14,0,0,0-.1-0.79,2.24,2.24,0,0,0-.29-0.67,1.48,1.48,0,0,0-.5-0.47,1.49,1.49,0,0,0-1.4,0,1.49,1.49,0,0,0-.49.47,2.23,2.23,0,0,0-.29.67,3.14,3.14,0,0,0-.1.79v0.9Zm2,11.59-1-.77,7-13.34,1,0.77Zm3.64-2.89a4.49,4.49,0,0,1,.2-1.36,3.38,3.38,0,0,1,.58-1.12,2.84,2.84,0,0,1,.93-0.76,2.87,2.87,0,0,1,2.48,0,2.84,2.84,0,0,1,.93.76,3.39,3.39,0,0,1,.58,1.12,4.49,4.49,0,0,1,.2,1.36v0.91a4.47,4.47,0,0,1-.2,1.37,3.4,3.4,0,0,1-.58,1.11,2.86,2.86,0,0,1-.93.76,2.64,2.64,0,0,1-1.23.28,2.69,2.69,0,0,1-1.24-.28,2.89,2.89,0,0,1-.94-0.76,3.35,3.35,0,0,1-.59-1.11,4.47,4.47,0,0,1-.2-1.37v-0.91Zm1.37,0.91a3.11,3.11,0,0,0,.1.79,2.16,2.16,0,0,0,.3.67,1.52,1.52,0,0,0,.5.47,1.39,1.39,0,0,0,.71.18,1.34,1.34,0,0,0,.69-0.18,1.49,1.49,0,0,0,.49-0.47,2.14,2.14,0,0,0,.29-0.67,3.27,3.27,0,0,0,.09-0.79v-0.91a3.14,3.14,0,0,0-.1-0.79,2.15,2.15,0,0,0-.29-0.67,1.49,1.49,0,0,0-.5-0.46,1.37,1.37,0,0,0-.7-0.18,1.34,1.34,0,0,0-.69.18,1.56,1.56,0,0,0-.5.46,2.08,2.08,0,0,0-.3.67,3.11,3.11,0,0,0-.1.79v0.91Z" transform="translate(-20.83 -1165.17)"/><path class="cls-7" d="M409.05,1346.7h-1.91v-7.89h-7.28v7.89H398v-17.06h1.9V1337h7.28v-7.34h1.91v17.06Z" transform="translate(-20.83 -1165.17)"/><path class="cls-7" d="M416.6,1346.94a4.44,4.44,0,0,1-2-.46,4.59,4.59,0,0,1-1.55-1.27,5.88,5.88,0,0,1-1-1.94,8.31,8.31,0,0,1-.35-2.46v-0.49a9,9,0,0,1,.39-2.77,6.5,6.5,0,0,1,1-2.05,4.63,4.63,0,0,1,1.5-1.27,3.75,3.75,0,0,1,1.75-.44,3.79,3.79,0,0,1,3.36,1.78,6,6,0,0,1,.8,2,11.2,11.2,0,0,1,.26,2.47v1h-7.27a6.34,6.34,0,0,0,.24,1.64,4.24,4.24,0,0,0,.63,1.32,3.12,3.12,0,0,0,1,.89,2.62,2.62,0,0,0,1.31.33,2.81,2.81,0,0,0,1.65-.47,4.46,4.46,0,0,0,1.18-1.24l1.12,1a5.71,5.71,0,0,1-.62.91,4.44,4.44,0,0,1-.86.79,4.17,4.17,0,0,1-1.13.55A4.67,4.67,0,0,1,416.6,1346.94Zm-0.23-11.37a2.19,2.19,0,0,0-1,.24,2.59,2.59,0,0,0-.83.7,3.89,3.89,0,0,0-.61,1.14,6.62,6.62,0,0,0-.33,1.56h5.37V1339a7,7,0,0,0-.17-1.25,3.71,3.71,0,0,0-.45-1.11,2.46,2.46,0,0,0-.78-0.8A2.15,2.15,0,0,0,416.37,1335.57Z" transform="translate(-20.83 -1165.17)"/><path class="cls-7" d="M429.53,1346.7a2.64,2.64,0,0,1-.16-0.59q-0.06-.36-0.1-0.74a5.3,5.3,0,0,1-.58.6,4.1,4.1,0,0,1-.7.5,3.61,3.61,0,0,1-.83.34,3.53,3.53,0,0,1-.94.12,3.68,3.68,0,0,1-1.49-.29,3.41,3.41,0,0,1-1.14-.8,3.55,3.55,0,0,1-.73-1.19,4.14,4.14,0,0,1-.26-1.47,4.49,4.49,0,0,1,.34-1.8,3.48,3.48,0,0,1,1-1.31,4.26,4.26,0,0,1,1.52-.8,6.88,6.88,0,0,1,2-.27h1.82v-1a2.7,2.7,0,0,0-.58-1.81,2.11,2.11,0,0,0-1.7-.67,2.6,2.6,0,0,0-.94.16,2.29,2.29,0,0,0-.73.44,2,2,0,0,0-.47.64,1.79,1.79,0,0,0-.17.76h-1.84a3.24,3.24,0,0,1,.3-1.35,3.86,3.86,0,0,1,.86-1.2,4.39,4.39,0,0,1,1.34-.87,4.47,4.47,0,0,1,1.76-.33,4.76,4.76,0,0,1,1.61.26,3.31,3.31,0,0,1,1.26.8,3.72,3.72,0,0,1,.82,1.33,5.32,5.32,0,0,1,.3,1.86v5.89a10.26,10.26,0,0,0,.09,1.35,5.85,5.85,0,0,0,.28,1.22v0.19h-1.92Zm-3-1.65a2.63,2.63,0,0,0,.93-0.16,3.26,3.26,0,0,0,.79-0.43,3.13,3.13,0,0,0,.62-0.6,3,3,0,0,0,.41-0.7v-2.6h-1.53a4.3,4.3,0,0,0-2.43.58,2,2,0,0,0-.85,1.75,2.76,2.76,0,0,0,.13.86,1.83,1.83,0,0,0,.39.69,1.91,1.91,0,0,0,.64.46A2.16,2.16,0,0,0,426.48,1345.05Z" transform="translate(-20.83 -1165.17)"/><path class="cls-7" d="M435.94,1346.7h-1.83v-18h1.83v18Z" transform="translate(-20.83 -1165.17)"/><path class="cls-7" d="M441.36,1331V1334h2v1.68h-2v7.86a2.58,2.58,0,0,0,.1.79,1.17,1.17,0,0,0,.26.46,0.8,0.8,0,0,0,.38.22,1.83,1.83,0,0,0,.44.05A2.35,2.35,0,0,0,443,1345l0.39-.09v1.76l-0.57.15a3.72,3.72,0,0,1-.84.08,2.69,2.69,0,0,1-1-.17,1.9,1.9,0,0,1-.79-0.57,2.93,2.93,0,0,1-.54-1,5.55,5.55,0,0,1-.2-1.6v-7.85h-2V1334h2V1331h1.83Z" transform="translate(-20.83 -1165.17)"/><path class="cls-7" d="M447.34,1335.56a4.32,4.32,0,0,1,1.38-1.3,3.49,3.49,0,0,1,1.79-.47,3.81,3.81,0,0,1,1.42.25,2.6,2.6,0,0,1,1.08.81,4,4,0,0,1,.69,1.43,8,8,0,0,1,.24,2.12v8.31h-1.83v-8.33a5,5,0,0,0-.14-1.26,2.2,2.2,0,0,0-.41-0.85,1.6,1.6,0,0,0-.67-0.48,2.6,2.6,0,0,0-.93-0.15,2.37,2.37,0,0,0-1.57.56,3.73,3.73,0,0,0-1.05,1.48v9h-1.83v-18h1.83v6.86Z" transform="translate(-20.83 -1165.17)"/><path class="cls-7" d="M411.72,1371.49h-1.84V1357l-3.7,1.61v-2l5.25-2.33h0.29v17.14Z" transform="translate(-20.83 -1165.17)"/><path class="cls-7" d="M419.76,1361.9h1.31a3.24,3.24,0,0,0,1.25-.22,2.46,2.46,0,0,0,.89-0.62,2.57,2.57,0,0,0,.54-0.93,3.66,3.66,0,0,0,.18-1.17,3.46,3.46,0,0,0-.62-2.23,2.31,2.31,0,0,0-1.9-.77,2.69,2.69,0,0,0-1.07.21,2.31,2.31,0,0,0-.82.59,2.67,2.67,0,0,0-.53.93,3.7,3.7,0,0,0-.19,1.21H417a5.25,5.25,0,0,1,.32-1.84,4.5,4.5,0,0,1,.9-1.49,4.25,4.25,0,0,1,1.4-1,4.37,4.37,0,0,1,1.82-.37,4.91,4.91,0,0,1,1.78.31,3.7,3.7,0,0,1,1.37.91,4.18,4.18,0,0,1,.89,1.51,6.32,6.32,0,0,1,.32,2.1,4.11,4.11,0,0,1-.13,1,4.49,4.49,0,0,1-.41,1,4.2,4.2,0,0,1-.7.94,3.73,3.73,0,0,1-1,.73,3.58,3.58,0,0,1,2,1.69,4.11,4.11,0,0,1,.41,1.14,6,6,0,0,1,.12,1.17,6.08,6.08,0,0,1-.35,2.13,4.43,4.43,0,0,1-1,1.56,4.14,4.14,0,0,1-1.45,1,4.83,4.83,0,0,1-1.81.33,5,5,0,0,1-1.77-.31,4.17,4.17,0,0,1-1.46-.91,4.3,4.3,0,0,1-1-1.49,5.3,5.3,0,0,1-.36-2h1.84a3.7,3.7,0,0,0,.19,1.21,2.67,2.67,0,0,0,.55.94,2.39,2.39,0,0,0,.86.6,2.93,2.93,0,0,0,1.14.21,3.17,3.17,0,0,0,1.14-.19,2.19,2.19,0,0,0,.86-0.59,2.67,2.67,0,0,0,.55-1,4.65,4.65,0,0,0,.19-1.39,4,4,0,0,0-.22-1.38,2.52,2.52,0,0,0-.62-1,2.55,2.55,0,0,0-1-.57,4,4,0,0,0-1.27-.19h-1.31v-1.77Z" transform="translate(-20.83 -1165.17)"/><path class="cls-7" d="M428.34,1357.7a4.48,4.48,0,0,1,.2-1.37,3.48,3.48,0,0,1,.58-1.12,2.81,2.81,0,0,1,.93-0.76,2.87,2.87,0,0,1,2.48,0,2.76,2.76,0,0,1,.93.76,3.54,3.54,0,0,1,.58,1.12,4.48,4.48,0,0,1,.2,1.37v0.9a4.55,4.55,0,0,1-.2,1.35,3.34,3.34,0,0,1-.58,1.11,2.85,2.85,0,0,1-.93.76,2.64,2.64,0,0,1-1.23.28,2.7,2.7,0,0,1-1.24-.28,2.9,2.9,0,0,1-.94-0.76,3.36,3.36,0,0,1-.59-1.11,4.44,4.44,0,0,1-.2-1.35v-0.9Zm1.37,0.9a3.07,3.07,0,0,0,.1.79,2.16,2.16,0,0,0,.3.67,1.52,1.52,0,0,0,.5.47,1.38,1.38,0,0,0,.71.18,1.34,1.34,0,0,0,.69-0.18,1.51,1.51,0,0,0,.49-0.46,2.08,2.08,0,0,0,.29-0.67,3.3,3.3,0,0,0,.09-0.79v-0.9a3.14,3.14,0,0,0-.1-0.79,2.24,2.24,0,0,0-.29-0.67,1.48,1.48,0,0,0-.5-0.47,1.49,1.49,0,0,0-1.4,0,1.49,1.49,0,0,0-.49.47,2.23,2.23,0,0,0-.29.67,3.14,3.14,0,0,0-.1.79v0.9Zm2,11.59-1-.77,7-13.34,1,0.77Zm3.64-2.89a4.49,4.49,0,0,1,.2-1.36,3.38,3.38,0,0,1,.58-1.12,2.84,2.84,0,0,1,.93-0.76,2.87,2.87,0,0,1,2.48,0,2.84,2.84,0,0,1,.93.76,3.39,3.39,0,0,1,.58,1.12,4.49,4.49,0,0,1,.2,1.36v0.91a4.47,4.47,0,0,1-.2,1.37,3.4,3.4,0,0,1-.58,1.11,2.86,2.86,0,0,1-.93.76,2.64,2.64,0,0,1-1.23.28,2.69,2.69,0,0,1-1.24-.28,2.89,2.89,0,0,1-.94-0.76,3.35,3.35,0,0,1-.59-1.11,4.47,4.47,0,0,1-.2-1.37v-0.91Zm1.37,0.91a3.11,3.11,0,0,0,.1.79,2.16,2.16,0,0,0,.3.67,1.52,1.52,0,0,0,.5.47,1.39,1.39,0,0,0,.71.18,1.34,1.34,0,0,0,.69-0.18,1.49,1.49,0,0,0,.49-0.47,2.14,2.14,0,0,0,.29-0.67,3.27,3.27,0,0,0,.09-0.79v-0.91a3.14,3.14,0,0,0-.1-0.79,2.15,2.15,0,0,0-.29-0.67,1.49,1.49,0,0,0-.5-0.46,1.37,1.37,0,0,0-.7-0.18,1.34,1.34,0,0,0-.69.18,1.56,1.56,0,0,0-.5.46,2.08,2.08,0,0,0-.3.67,3.11,3.11,0,0,0-.1.79v0.91Z" transform="translate(-20.83 -1165.17)"/><path class="cls-7" d="M315.28,1511.95h-9.46v-1.56l4.73-6.21q0.65-.86,1.09-1.51a9.5,9.5,0,0,0,.68-1.2,4.78,4.78,0,0,0,.35-1,4.73,4.73,0,0,0,.1-1,4.09,4.09,0,0,0-.17-1.19,3,3,0,0,0-.49-1,2.26,2.26,0,0,0-1.85-.89,2.93,2.93,0,0,0-1.27.26,2.47,2.47,0,0,0-.9.71,3.12,3.12,0,0,0-.54,1.1,5.25,5.25,0,0,0-.18,1.41h-1.83a6.75,6.75,0,0,1,.3-2,4.87,4.87,0,0,1,.9-1.68,4.25,4.25,0,0,1,1.48-1.13,4.74,4.74,0,0,1,2-.42,4.83,4.83,0,0,1,1.83.33,3.78,3.78,0,0,1,1.37.93,4.1,4.1,0,0,1,.86,1.45,5.56,5.56,0,0,1,.3,1.86,5.47,5.47,0,0,1-.22,1.51,9.41,9.41,0,0,1-.58,1.52,12.74,12.74,0,0,1-.86,1.5q-0.5.74-1,1.46l-3.88,5h7.25v1.77Z" transform="translate(-20.83 -1165.17)"/><path class="cls-7" d="M324.41,1494.88v1.84h-0.17a4.9,4.9,0,0,0-2.24.47,4.37,4.37,0,0,0-1.52,1.25,5.61,5.61,0,0,0-.9,1.79,9.5,9.5,0,0,0-.39,2.09,3.62,3.62,0,0,1,1.39-1.18,4,4,0,0,1,1.72-.37,3.44,3.44,0,0,1,1.86.49,4.07,4.07,0,0,1,1.28,1.28,5.86,5.86,0,0,1,.75,1.8,9,9,0,0,1,0,4.34,5.6,5.6,0,0,1-.85,1.84,4.15,4.15,0,0,1-1.4,1.23,4,4,0,0,1-1.93.45,3.63,3.63,0,0,1-2-.57,4.82,4.82,0,0,1-1.45-1.51,7.18,7.18,0,0,1-.87-2.1,9.84,9.84,0,0,1-.29-2.36v-1a22.89,22.89,0,0,1,.12-2.38,13.39,13.39,0,0,1,.43-2.27,9.67,9.67,0,0,1,.82-2,6,6,0,0,1,1.28-1.62,5.6,5.6,0,0,1,1.82-1.07,7.09,7.09,0,0,1,2.44-.39h0.17Zm-2.41,7.69a2.45,2.45,0,0,0-.93.18,3,3,0,0,0-.82.5,3.56,3.56,0,0,0-1.09,1.66v0.8a7.88,7.88,0,0,0,.23,2,5,5,0,0,0,.62,1.46,2.86,2.86,0,0,0,.9.9,2,2,0,0,0,1.05.3,2.21,2.21,0,0,0,1.13-.29,2.49,2.49,0,0,0,.84-0.81,4,4,0,0,0,.52-1.24,6.85,6.85,0,0,0,0-3,4.29,4.29,0,0,0-.49-1.25,2.69,2.69,0,0,0-.82-0.87A2.05,2.05,0,0,0,322,1502.56Z" transform="translate(-20.83 -1165.17)"/><path class="cls-7" d="M328.46,1498.17a4.48,4.48,0,0,1,.2-1.37,3.48,3.48,0,0,1,.58-1.12,2.81,2.81,0,0,1,.93-0.76,2.87,2.87,0,0,1,2.48,0,2.76,2.76,0,0,1,.93.76,3.54,3.54,0,0,1,.58,1.12,4.48,4.48,0,0,1,.2,1.37v0.9a4.55,4.55,0,0,1-.2,1.35,3.34,3.34,0,0,1-.58,1.11,2.85,2.85,0,0,1-.93.76,2.64,2.64,0,0,1-1.23.28,2.7,2.7,0,0,1-1.24-.28,2.9,2.9,0,0,1-.94-0.76,3.36,3.36,0,0,1-.59-1.11,4.44,4.44,0,0,1-.2-1.35v-0.9Zm1.37,0.9a3.07,3.07,0,0,0,.1.79,2.16,2.16,0,0,0,.3.67,1.52,1.52,0,0,0,.5.47,1.38,1.38,0,0,0,.71.18,1.34,1.34,0,0,0,.69-0.18,1.51,1.51,0,0,0,.49-0.46,2.08,2.08,0,0,0,.29-0.67,3.3,3.3,0,0,0,.09-0.79v-0.9a3.14,3.14,0,0,0-.1-0.79,2.24,2.24,0,0,0-.29-0.67,1.48,1.48,0,0,0-.5-0.47,1.49,1.49,0,0,0-1.4,0,1.49,1.49,0,0,0-.49.47,2.23,2.23,0,0,0-.29.67,3.14,3.14,0,0,0-.1.79v0.9Zm2,11.59-1-.77,7-13.34,1,0.77Zm3.64-2.89a4.49,4.49,0,0,1,.2-1.36,3.38,3.38,0,0,1,.58-1.12,2.84,2.84,0,0,1,.93-0.76,2.87,2.87,0,0,1,2.48,0,2.84,2.84,0,0,1,.93.76,3.39,3.39,0,0,1,.58,1.12,4.49,4.49,0,0,1,.2,1.36v0.91a4.47,4.47,0,0,1-.2,1.37,3.4,3.4,0,0,1-.58,1.11,2.86,2.86,0,0,1-.93.76,2.64,2.64,0,0,1-1.23.28,2.69,2.69,0,0,1-1.24-.28,2.89,2.89,0,0,1-.94-0.76,3.35,3.35,0,0,1-.59-1.11,4.47,4.47,0,0,1-.2-1.37v-0.91Zm1.37,0.91a3.11,3.11,0,0,0,.1.79,2.16,2.16,0,0,0,.3.67,1.52,1.52,0,0,0,.5.47,1.39,1.39,0,0,0,.71.18,1.34,1.34,0,0,0,.69-0.18,1.49,1.49,0,0,0,.49-0.47,2.14,2.14,0,0,0,.29-0.67,3.27,3.27,0,0,0,.09-0.79v-0.91a3.14,3.14,0,0,0-.1-0.79,2.15,2.15,0,0,0-.29-0.67,1.49,1.49,0,0,0-.5-0.46,1.37,1.37,0,0,0-.7-0.18,1.34,1.34,0,0,0-.69.18,1.56,1.56,0,0,0-.5.46,2.08,2.08,0,0,0-.3.67,3.11,3.11,0,0,0-.1.79v0.91Z" transform="translate(-20.83 -1165.17)"/><path class="cls-7" d="M277.38,1531.32a9,9,0,0,1-.5,2.24,5.53,5.53,0,0,1-1.06,1.79,4.73,4.73,0,0,1-1.65,1.18,5.6,5.6,0,0,1-2.27.43,4.8,4.8,0,0,1-2.32-.56,5.22,5.22,0,0,1-1.78-1.6,7.86,7.86,0,0,1-1.14-2.49,12.17,12.17,0,0,1-.4-3.25v-1.71a12.11,12.11,0,0,1,.41-3.25,7.74,7.74,0,0,1,1.16-2.5,5.31,5.31,0,0,1,1.83-1.61,5.09,5.09,0,0,1,2.41-.57,5.24,5.24,0,0,1,2.16.42,4.58,4.58,0,0,1,1.6,1.18,5.73,5.73,0,0,1,1,1.8,8.87,8.87,0,0,1,.5,2.31h-1.91a8.88,8.88,0,0,0-.34-1.61,3.77,3.77,0,0,0-.63-1.22,2.66,2.66,0,0,0-1-.77,3.44,3.44,0,0,0-1.43-.27,3.21,3.21,0,0,0-1.69.44,3.65,3.65,0,0,0-1.22,1.23,6.1,6.1,0,0,0-.74,1.91,11.4,11.4,0,0,0-.25,2.47v1.73a11.88,11.88,0,0,0,.22,2.36,6.74,6.74,0,0,0,.68,1.93,3.67,3.67,0,0,0,1.16,1.3,2.91,2.91,0,0,0,1.67.47,4,4,0,0,0,1.54-.26,2.66,2.66,0,0,0,1-.74,3.48,3.48,0,0,0,.64-1.2,9.26,9.26,0,0,0,.35-1.61h1.91Z" transform="translate(-20.83 -1165.17)"/><path class="cls-7" d="M279.21,1530.27a9.15,9.15,0,0,1,.34-2.56,6.56,6.56,0,0,1,1-2,4.6,4.6,0,0,1,1.53-1.36,4.15,4.15,0,0,1,2-.49,4.22,4.22,0,0,1,2,.49,4.63,4.63,0,0,1,1.54,1.36,6.42,6.42,0,0,1,1,2,9.28,9.28,0,0,1,.34,2.56v0.26a9.28,9.28,0,0,1-.34,2.56,6.35,6.35,0,0,1-1,2,4.62,4.62,0,0,1-1.54,1.35,4.49,4.49,0,0,1-4.06,0,4.62,4.62,0,0,1-1.54-1.35,6.43,6.43,0,0,1-1-2,9.15,9.15,0,0,1-.34-2.56v-0.26Zm1.84,0.26a8.22,8.22,0,0,0,.19,1.79,5,5,0,0,0,.57,1.48,3.08,3.08,0,0,0,1,1,2.55,2.55,0,0,0,2.66,0,3,3,0,0,0,1-1,5.17,5.17,0,0,0,.57-1.48,8,8,0,0,0,.19-1.79v-0.26a8,8,0,0,0-.19-1.79,5.08,5.08,0,0,0-.58-1.49,3.12,3.12,0,0,0-1-1,2.37,2.37,0,0,0-1.34-.38,2.3,2.3,0,0,0-1.32.38,3.16,3.16,0,0,0-.95,1,5,5,0,0,0-.57,1.49,8.24,8.24,0,0,0-.19,1.79v0.26Z" transform="translate(-20.83 -1165.17)"/><path class="cls-7" d="M293,1524.05l0,1.41a4,4,0,0,1,1.34-1.21,3.75,3.75,0,0,1,1.84-.43,3.46,3.46,0,0,1,1.84.49,3.08,3.08,0,0,1,1.22,1.55,4.39,4.39,0,0,1,1.39-1.48,3.61,3.61,0,0,1,2-.56,4.12,4.12,0,0,1,1.53.26,2.75,2.75,0,0,1,1.13.83,3.82,3.82,0,0,1,.7,1.43,7.86,7.86,0,0,1,.24,2.06v8.33h-1.83v-8.34a4.55,4.55,0,0,0-.16-1.32,2.13,2.13,0,0,0-.46-0.84,1.57,1.57,0,0,0-.72-0.44,3.39,3.39,0,0,0-.94-0.12,2.27,2.27,0,0,0-1,.21,2.32,2.32,0,0,0-.75.57,2.74,2.74,0,0,0-.5.84,3.94,3.94,0,0,0-.23,1v8.41h-1.84v-8.33a4.23,4.23,0,0,0-.16-1.26,2.24,2.24,0,0,0-.46-0.85,1.77,1.77,0,0,0-.72-0.48,2.77,2.77,0,0,0-.95-0.15,2.36,2.36,0,0,0-1.58.5,3.07,3.07,0,0,0-.89,1.31v9.26h-1.83v-12.68H293Z" transform="translate(-20.83 -1165.17)"/><path class="cls-7" d="M310.79,1524.05l0,1.41a4,4,0,0,1,1.34-1.21,3.75,3.75,0,0,1,1.84-.43,3.46,3.46,0,0,1,1.84.49,3.08,3.08,0,0,1,1.22,1.55,4.39,4.39,0,0,1,1.39-1.48,3.61,3.61,0,0,1,2-.56,4.12,4.12,0,0,1,1.53.26,2.75,2.75,0,0,1,1.13.83,3.82,3.82,0,0,1,.7,1.43,7.86,7.86,0,0,1,.24,2.06v8.33h-1.83v-8.34a4.55,4.55,0,0,0-.16-1.32,2.13,2.13,0,0,0-.46-0.84,1.57,1.57,0,0,0-.72-0.44,3.39,3.39,0,0,0-.94-0.12,2.27,2.27,0,0,0-1,.21,2.32,2.32,0,0,0-.75.57,2.74,2.74,0,0,0-.5.84,3.94,3.94,0,0,0-.23,1v8.41h-1.84v-8.33a4.23,4.23,0,0,0-.16-1.26,2.24,2.24,0,0,0-.46-0.85,1.77,1.77,0,0,0-.72-0.48,2.77,2.77,0,0,0-.95-0.15,2.36,2.36,0,0,0-1.58.5,3.07,3.07,0,0,0-.89,1.31v9.26h-1.83v-12.68h1.74Z" transform="translate(-20.83 -1165.17)"/><path class="cls-7" d="M333.49,1535.48a3.51,3.51,0,0,1-1.28,1.1,4.08,4.08,0,0,1-1.86.39,3.76,3.76,0,0,1-1.44-.26,2.79,2.79,0,0,1-1.11-.83,4,4,0,0,1-.72-1.46,8.05,8.05,0,0,1-.25-2.16v-8.19h1.83v8.21a5,5,0,0,0,.17,1.41,2.4,2.4,0,0,0,.45.88,1.46,1.46,0,0,0,.63.45,2.24,2.24,0,0,0,.73.12,3,3,0,0,0,1.8-.5,2.91,2.91,0,0,0,1-1.35v-9.22h1.83v12.68h-1.75Z" transform="translate(-20.83 -1165.17)"/><path class="cls-7" d="M339.79,1524.05l0.06,1.59a4.38,4.38,0,0,1,1.39-1.34,3.48,3.48,0,0,1,1.82-.49,3.81,3.81,0,0,1,1.42.25,2.6,2.6,0,0,1,1.08.81,4,4,0,0,1,.69,1.43,8,8,0,0,1,.24,2.12v8.31h-1.83v-8.33a5,5,0,0,0-.14-1.26,2.2,2.2,0,0,0-.41-0.85,1.6,1.6,0,0,0-.67-0.48,2.6,2.6,0,0,0-.93-0.15,2.37,2.37,0,0,0-1.57.56,3.73,3.73,0,0,0-1.05,1.48v9h-1.83v-12.68h1.73Z" transform="translate(-20.83 -1165.17)"/><path class="cls-7" d="M349.27,1520.69a1.44,1.44,0,0,1,.27-0.89,1,1,0,0,1,.81-0.36,1,1,0,0,1,.81.36,1.42,1.42,0,0,1,.28.89,1.37,1.37,0,0,1-.28.88,1,1,0,0,1-.81.35,1,1,0,0,1-.81-0.35A1.39,1.39,0,0,1,349.27,1520.69Zm2,16h-1.83v-12.68h1.83v12.68Z" transform="translate(-20.83 -1165.17)"/><path class="cls-7" d="M356.68,1521v3.07h2v1.68h-2v7.86a2.58,2.58,0,0,0,.1.79,1.17,1.17,0,0,0,.26.46,0.8,0.8,0,0,0,.38.22,1.83,1.83,0,0,0,.44.05,2.35,2.35,0,0,0,.48-0.05l0.39-.09v1.76l-0.57.15a3.72,3.72,0,0,1-.84.08,2.69,2.69,0,0,1-1-.17,1.9,1.9,0,0,1-.79-0.57,2.93,2.93,0,0,1-.54-1,5.55,5.55,0,0,1-.2-1.6v-7.85h-2v-1.68h2V1521h1.83Z" transform="translate(-20.83 -1165.17)"/><path class="cls-7" d="M364.33,1533.55l2.5-9.5h2l-4.31,14.64a10.9,10.9,0,0,1-.39,1,4.43,4.43,0,0,1-.62,1,3.45,3.45,0,0,1-.92.8,2.4,2.4,0,0,1-1.26.32l-0.26,0-0.3-.05-0.28-.06-0.2-.05v-1.76l0.11,0h0.39a2.91,2.91,0,0,0,.82-0.11,1.69,1.69,0,0,0,.63-0.35,2.09,2.09,0,0,0,.48-0.64,5.6,5.6,0,0,0,.37-1l0.41-1.29-3.83-12.54h2Z" transform="translate(-20.83 -1165.17)"/><path class="cls-7" d="M31.95,1373a9,9,0,0,1-.5,2.24,5.53,5.53,0,0,1-1.06,1.79,4.73,4.73,0,0,1-1.65,1.18,5.6,5.6,0,0,1-2.27.43,4.8,4.8,0,0,1-2.32-.56,5.22,5.22,0,0,1-1.78-1.6,7.86,7.86,0,0,1-1.14-2.49,12.17,12.17,0,0,1-.4-3.25v-1.71a12.11,12.11,0,0,1,.41-3.25,7.74,7.74,0,0,1,1.16-2.5,5.31,5.31,0,0,1,1.83-1.61,5.09,5.09,0,0,1,2.41-.57,5.24,5.24,0,0,1,2.16.42,4.58,4.58,0,0,1,1.6,1.18,5.73,5.73,0,0,1,1,1.8,8.87,8.87,0,0,1,.5,2.31H30a8.88,8.88,0,0,0-.34-1.61,3.77,3.77,0,0,0-.63-1.22,2.66,2.66,0,0,0-1-.77,3.44,3.44,0,0,0-1.43-.27,3.21,3.21,0,0,0-1.69.44,3.65,3.65,0,0,0-1.22,1.23,6.1,6.1,0,0,0-.74,1.91,11.4,11.4,0,0,0-.25,2.47v1.73a11.88,11.88,0,0,0,.22,2.36,6.74,6.74,0,0,0,.68,1.93,3.67,3.67,0,0,0,1.16,1.3,2.91,2.91,0,0,0,1.67.47,4,4,0,0,0,1.54-.26,2.66,2.66,0,0,0,1-.74,3.48,3.48,0,0,0,.64-1.2A9.26,9.26,0,0,0,30,1373h1.91Z" transform="translate(-20.83 -1165.17)"/><path class="cls-7" d="M40.88,1378.46a2.64,2.64,0,0,1-.16-0.59q-0.06-.36-0.1-0.74a5.3,5.3,0,0,1-.58.6,4.1,4.1,0,0,1-.7.5,3.61,3.61,0,0,1-.83.34,3.53,3.53,0,0,1-.94.12,3.68,3.68,0,0,1-1.49-.29,3.41,3.41,0,0,1-1.14-.8,3.55,3.55,0,0,1-.73-1.19,4.14,4.14,0,0,1-.26-1.47,4.49,4.49,0,0,1,.34-1.8,3.48,3.48,0,0,1,1-1.31,4.26,4.26,0,0,1,1.52-.8,6.88,6.88,0,0,1,2-.27h1.82v-1A2.7,2.7,0,0,0,40,1368a2.11,2.11,0,0,0-1.7-.67,2.6,2.6,0,0,0-.94.16,2.29,2.29,0,0,0-.73.44,2,2,0,0,0-.47.64,1.79,1.79,0,0,0-.17.76H34.17a3.24,3.24,0,0,1,.3-1.35,3.86,3.86,0,0,1,.86-1.2,4.39,4.39,0,0,1,1.34-.87,4.47,4.47,0,0,1,1.76-.33,4.76,4.76,0,0,1,1.61.26,3.31,3.31,0,0,1,1.26.8,3.72,3.72,0,0,1,.82,1.33,5.32,5.32,0,0,1,.3,1.86v5.89a10.26,10.26,0,0,0,.09,1.35,5.85,5.85,0,0,0,.28,1.22v0.19H40.88Zm-3-1.65a2.63,2.63,0,0,0,.93-0.16,3.26,3.26,0,0,0,.79-0.43,3.13,3.13,0,0,0,.62-0.6,3,3,0,0,0,.41-0.7v-2.6H39.07a4.3,4.3,0,0,0-2.43.58,2,2,0,0,0-.85,1.75,2.76,2.76,0,0,0,.13.86,1.83,1.83,0,0,0,.39.69,1.91,1.91,0,0,0,.64.46A2.16,2.16,0,0,0,37.84,1376.81Z" transform="translate(-20.83 -1165.17)"/><path class="cls-7" d="M50.49,1367.73l-0.44-.06-0.46,0a2.37,2.37,0,0,0-1.55.49,3,3,0,0,0-.9,1.32v9H45.3v-12.68h1.78l0,1.46a3.58,3.58,0,0,1,1-1.24,2.5,2.5,0,0,1,1.52-.46,2.31,2.31,0,0,1,.46.05,1.27,1.27,0,0,1,.36.11v2Z" transform="translate(-20.83 -1165.17)"/><path class="cls-7" d="M56.44,1378.7a4.44,4.44,0,0,1-2-.46,4.59,4.59,0,0,1-1.55-1.27,5.88,5.88,0,0,1-1-1.94,8.31,8.31,0,0,1-.35-2.46v-0.49a9,9,0,0,1,.39-2.77,6.5,6.5,0,0,1,1-2.05,4.63,4.63,0,0,1,1.5-1.27,3.75,3.75,0,0,1,1.75-.44,3.79,3.79,0,0,1,3.36,1.78,6,6,0,0,1,.8,2,11.2,11.2,0,0,1,.26,2.47v1H53.35a6.34,6.34,0,0,0,.24,1.64,4.24,4.24,0,0,0,.63,1.32,3.12,3.12,0,0,0,1,.89,2.62,2.62,0,0,0,1.31.33,2.81,2.81,0,0,0,1.65-.47,4.46,4.46,0,0,0,1.18-1.24l1.12,1a5.71,5.71,0,0,1-.62.91,4.44,4.44,0,0,1-.86.79,4.17,4.17,0,0,1-1.13.55A4.67,4.67,0,0,1,56.44,1378.7Zm-0.23-11.37a2.19,2.19,0,0,0-1,.24,2.59,2.59,0,0,0-.83.7,3.89,3.89,0,0,0-.61,1.14,6.62,6.62,0,0,0-.33,1.56h5.37v-0.16a7,7,0,0,0-.17-1.25,3.71,3.71,0,0,0-.45-1.11,2.46,2.46,0,0,0-.78-0.8A2.15,2.15,0,0,0,56.21,1367.33Z" transform="translate(-20.83 -1165.17)"/><path class="cls-7" d="M67.19,1378.7a4.44,4.44,0,0,1-2-.46,4.59,4.59,0,0,1-1.55-1.27,5.88,5.88,0,0,1-1-1.94,8.31,8.31,0,0,1-.35-2.46v-0.49a9,9,0,0,1,.39-2.77,6.5,6.5,0,0,1,1-2.05,4.63,4.63,0,0,1,1.5-1.27,3.75,3.75,0,0,1,1.75-.44,3.79,3.79,0,0,1,3.36,1.78,6,6,0,0,1,.8,2,11.2,11.2,0,0,1,.26,2.47v1H64.11a6.34,6.34,0,0,0,.24,1.64,4.24,4.24,0,0,0,.63,1.32,3.12,3.12,0,0,0,1,.89,2.62,2.62,0,0,0,1.31.33,2.81,2.81,0,0,0,1.65-.47,4.46,4.46,0,0,0,1.18-1.24l1.12,1a5.71,5.71,0,0,1-.62.91,4.44,4.44,0,0,1-.86.79,4.17,4.17,0,0,1-1.13.55A4.67,4.67,0,0,1,67.19,1378.7ZM67,1367.33a2.19,2.19,0,0,0-1,.24,2.59,2.59,0,0,0-.83.7,3.89,3.89,0,0,0-.61,1.14,6.62,6.62,0,0,0-.33,1.56h5.37v-0.16a7,7,0,0,0-.17-1.25,3.71,3.71,0,0,0-.45-1.11,2.46,2.46,0,0,0-.78-0.8A2.15,2.15,0,0,0,67,1367.33Z" transform="translate(-20.83 -1165.17)"/><path class="cls-7" d="M78.68,1367.73l-0.44-.06-0.46,0a2.37,2.37,0,0,0-1.55.49,3,3,0,0,0-.9,1.32v9H73.5v-12.68h1.78l0,1.46a3.58,3.58,0,0,1,1-1.24,2.5,2.5,0,0,1,1.52-.46,2.31,2.31,0,0,1,.46.05,1.27,1.27,0,0,1,.36.11v2Z" transform="translate(-20.83 -1165.17)"/><path class="cls-7" d="M32.75,1393.66h1.31a3.24,3.24,0,0,0,1.25-.22,2.46,2.46,0,0,0,.89-0.62,2.57,2.57,0,0,0,.54-0.93,3.66,3.66,0,0,0,.18-1.17,3.46,3.46,0,0,0-.62-2.23,2.31,2.31,0,0,0-1.9-.77,2.69,2.69,0,0,0-1.07.21,2.31,2.31,0,0,0-.82.59,2.67,2.67,0,0,0-.53.93,3.7,3.7,0,0,0-.19,1.21H29.95a5.25,5.25,0,0,1,.32-1.84,4.5,4.5,0,0,1,.9-1.49,4.25,4.25,0,0,1,1.4-1,4.37,4.37,0,0,1,1.82-.37,4.91,4.91,0,0,1,1.78.31,3.7,3.7,0,0,1,1.37.91,4.18,4.18,0,0,1,.89,1.51,6.32,6.32,0,0,1,.32,2.1,4.11,4.11,0,0,1-.13,1,4.49,4.49,0,0,1-.41,1,4.2,4.2,0,0,1-.7.94,3.73,3.73,0,0,1-1,.73,3.58,3.58,0,0,1,2,1.69,4.11,4.11,0,0,1,.41,1.14,6,6,0,0,1,.12,1.17,6.08,6.08,0,0,1-.35,2.13,4.43,4.43,0,0,1-1,1.56,4.14,4.14,0,0,1-1.45,1,4.83,4.83,0,0,1-1.81.33,5,5,0,0,1-1.77-.31,4.17,4.17,0,0,1-1.46-.91,4.3,4.3,0,0,1-1-1.49,5.3,5.3,0,0,1-.36-2h1.84a3.7,3.7,0,0,0,.19,1.21,2.67,2.67,0,0,0,.55.94,2.39,2.39,0,0,0,.86.6,2.93,2.93,0,0,0,1.14.21,3.17,3.17,0,0,0,1.14-.19,2.19,2.19,0,0,0,.86-0.59,2.67,2.67,0,0,0,.55-1,4.65,4.65,0,0,0,.19-1.39,4,4,0,0,0-.22-1.38,2.52,2.52,0,0,0-.62-1,2.55,2.55,0,0,0-1-.57,4,4,0,0,0-1.27-.19H32.75v-1.77Z" transform="translate(-20.83 -1165.17)"/><path class="cls-7" d="M42.33,1394.69l0.73-8.51h7.4v2H44.62l-0.44,4.65a4.7,4.7,0,0,1,1-.5,4.25,4.25,0,0,1,3.2.17,3.83,3.83,0,0,1,1.35,1.15,5.45,5.45,0,0,1,.85,1.8,9.37,9.37,0,0,1,0,4.62,5.28,5.28,0,0,1-.85,1.79,4,4,0,0,1-1.42,1.18,4.47,4.47,0,0,1-2,.43,4.73,4.73,0,0,1-1.65-.29,3.92,3.92,0,0,1-1.38-.87,4.54,4.54,0,0,1-1-1.48,6.43,6.43,0,0,1-.48-2.09h1.73a3.72,3.72,0,0,0,.88,2.21,2.49,2.49,0,0,0,1.88.74,2.35,2.35,0,0,0,2-1,3.72,3.72,0,0,0,.54-1.22,6.55,6.55,0,0,0,.18-1.61,5.65,5.65,0,0,0-.19-1.49,3.7,3.7,0,0,0-.56-1.2,2.68,2.68,0,0,0-.91-0.8,2.55,2.55,0,0,0-1.23-.29,3.69,3.69,0,0,0-.8.08,2.46,2.46,0,0,0-.6.22,2.29,2.29,0,0,0-.49.35l-0.47.45Z" transform="translate(-20.83 -1165.17)"/><path class="cls-7" d="M52.73,1389.46a4.48,4.48,0,0,1,.2-1.37,3.48,3.48,0,0,1,.58-1.12,2.81,2.81,0,0,1,.93-0.76,2.87,2.87,0,0,1,2.48,0,2.76,2.76,0,0,1,.93.76,3.54,3.54,0,0,1,.58,1.12,4.48,4.48,0,0,1,.2,1.37v0.9a4.55,4.55,0,0,1-.2,1.35,3.34,3.34,0,0,1-.58,1.11,2.85,2.85,0,0,1-.93.76,2.64,2.64,0,0,1-1.23.28,2.7,2.7,0,0,1-1.24-.28,2.9,2.9,0,0,1-.94-0.76,3.36,3.36,0,0,1-.59-1.11,4.44,4.44,0,0,1-.2-1.35v-0.9Zm1.37,0.9a3.07,3.07,0,0,0,.1.79,2.16,2.16,0,0,0,.3.67,1.52,1.52,0,0,0,.5.47,1.38,1.38,0,0,0,.71.18,1.34,1.34,0,0,0,.69-0.18,1.51,1.51,0,0,0,.49-0.46,2.08,2.08,0,0,0,.29-0.67,3.3,3.3,0,0,0,.09-0.79v-0.9a3.14,3.14,0,0,0-.1-0.79,2.24,2.24,0,0,0-.29-0.67,1.48,1.48,0,0,0-.5-0.47,1.49,1.49,0,0,0-1.4,0,1.49,1.49,0,0,0-.49.47,2.23,2.23,0,0,0-.29.67,3.14,3.14,0,0,0-.1.79v0.9Zm2,11.59-1-.77,7-13.34,1,0.77Zm3.64-2.89a4.49,4.49,0,0,1,.2-1.36,3.38,3.38,0,0,1,.58-1.12,2.84,2.84,0,0,1,.93-0.76,2.87,2.87,0,0,1,2.48,0,2.84,2.84,0,0,1,.93.76,3.39,3.39,0,0,1,.58,1.12,4.49,4.49,0,0,1,.2,1.36V1400a4.47,4.47,0,0,1-.2,1.37,3.4,3.4,0,0,1-.58,1.11,2.86,2.86,0,0,1-.93.76,2.64,2.64,0,0,1-1.23.28,2.69,2.69,0,0,1-1.24-.28,2.89,2.89,0,0,1-.94-0.76,3.35,3.35,0,0,1-.59-1.11,4.47,4.47,0,0,1-.2-1.37v-0.91Zm1.37,0.91a3.11,3.11,0,0,0,.1.79,2.16,2.16,0,0,0,.3.67,1.52,1.52,0,0,0,.5.47,1.39,1.39,0,0,0,.71.18,1.34,1.34,0,0,0,.69-0.18,1.49,1.49,0,0,0,.49-0.47,2.14,2.14,0,0,0,.29-0.67,3.27,3.27,0,0,0,.09-0.79v-0.91a3.14,3.14,0,0,0-.1-0.79,2.15,2.15,0,0,0-.29-0.67,1.49,1.49,0,0,0-.5-0.46,1.37,1.37,0,0,0-.7-0.18,1.34,1.34,0,0,0-.69.18,1.56,1.56,0,0,0-.5.46,2.08,2.08,0,0,0-.3.67,3.11,3.11,0,0,0-.1.79V1400Z" transform="translate(-20.83 -1165.17)"/><path class="cls-7" d="M169.32,1335.83H161.2v26.62h-3.31v-26.62h-8.1v-3.24h19.54v3.24Z" transform="translate(-20.83 -1165.17)"/><path class="cls-7" d="M170,1351.15a16,16,0,0,1,.6-4.48,11.48,11.48,0,0,1,1.7-3.58,8.05,8.05,0,0,1,2.68-2.38,7.27,7.27,0,0,1,3.54-.86,7.39,7.39,0,0,1,3.58.86,8.11,8.11,0,0,1,2.7,2.38,11.25,11.25,0,0,1,1.7,3.58,16.25,16.25,0,0,1,.59,4.48v0.45a16.25,16.25,0,0,1-.59,4.48,11.14,11.14,0,0,1-1.7,3.57,8.07,8.07,0,0,1-2.69,2.36,7.85,7.85,0,0,1-7.11,0,8.07,8.07,0,0,1-2.69-2.36,11.25,11.25,0,0,1-1.71-3.57,16,16,0,0,1-.6-4.48v-0.45Zm3.23,0.45a14.38,14.38,0,0,0,.33,3.14,8.72,8.72,0,0,0,1,2.59,5.38,5.38,0,0,0,1.67,1.77,4.46,4.46,0,0,0,4.66,0,5.27,5.27,0,0,0,1.67-1.77,9,9,0,0,0,1-2.59,14,14,0,0,0,.34-3.14v-0.45a14.07,14.07,0,0,0-.34-3.13,8.89,8.89,0,0,0-1-2.6,5.47,5.47,0,0,0-1.67-1.79,4.15,4.15,0,0,0-2.34-.67,4,4,0,0,0-2.31.67,5.55,5.55,0,0,0-1.66,1.79,8.73,8.73,0,0,0-1,2.6,14.43,14.43,0,0,0-.33,3.13v0.45Z" transform="translate(-20.83 -1165.17)"/><path class="cls-7" d="M207,1351.6a19.61,19.61,0,0,1-.49,4.5,12,12,0,0,1-1.41,3.57,7.05,7.05,0,0,1-2.28,2.35,5.73,5.73,0,0,1-3.09.84,6.91,6.91,0,0,1-3.1-.66,6.44,6.44,0,0,1-2.28-1.91V1371h-3.21v-30.72H194l0.16,2.46a6.64,6.64,0,0,1,2.31-2.13,6.45,6.45,0,0,1,3.14-.74,6,6,0,0,1,3.13.82,7,7,0,0,1,2.3,2.31,11.47,11.47,0,0,1,1.41,3.57,20.75,20.75,0,0,1,.48,4.63v0.43Zm-3.21-.43a15.83,15.83,0,0,0-.29-3.13,8.71,8.71,0,0,0-.92-2.57,5.1,5.1,0,0,0-1.58-1.75,4,4,0,0,0-2.27-.65,4.61,4.61,0,0,0-1.48.23,4.18,4.18,0,0,0-1.21.64,4.84,4.84,0,0,0-1,1,7.42,7.42,0,0,0-.73,1.22v10.6a7.33,7.33,0,0,0,.73,1.22,4.6,4.6,0,0,0,1,1,4.32,4.32,0,0,0,1.21.63,4.75,4.75,0,0,0,1.51.23,3.84,3.84,0,0,0,2.25-.66,5.23,5.23,0,0,0,1.57-1.76,8.69,8.69,0,0,0,.92-2.59,16.13,16.13,0,0,0,.29-3.15v-0.43Z" transform="translate(-20.83 -1165.17)"/><path class="cls-7" d="M221,1347.48l1.28-14.89h12.94v3.51H225l-0.76,8.14a8.23,8.23,0,0,1,1.74-.88,7.44,7.44,0,0,1,5.6.3,6.71,6.71,0,0,1,2.37,2,9.54,9.54,0,0,1,1.49,3.15,16.38,16.38,0,0,1,0,8.09A9.23,9.23,0,0,1,234,1360a6.91,6.91,0,0,1-2.49,2.07,7.84,7.84,0,0,1-3.53.75,8.3,8.3,0,0,1-2.89-.5,6.85,6.85,0,0,1-2.42-1.53,8,8,0,0,1-1.73-2.58,11.24,11.24,0,0,1-.83-3.65h3a6.51,6.51,0,0,0,1.54,3.87,4.36,4.36,0,0,0,3.3,1.3,4.1,4.1,0,0,0,3.53-1.83,6.53,6.53,0,0,0,.94-2.14,11.46,11.46,0,0,0,.32-2.82,9.88,9.88,0,0,0-.33-2.6,6.49,6.49,0,0,0-1-2.1,4.7,4.7,0,0,0-1.59-1.4,4.46,4.46,0,0,0-2.16-.51,6.45,6.45,0,0,0-1.41.13,4.3,4.3,0,0,0-1.06.38,4,4,0,0,0-.86.61q-0.39.36-.82,0.79Z" transform="translate(-20.83 -1165.17)"/><path class="cls-7" d="M265.85,1335.83h-8.12v26.62h-3.31v-26.62h-8.1v-3.24h19.54v3.24Z" transform="translate(-20.83 -1165.17)"/><path class="cls-7" d="M278.73,1362.45a4.62,4.62,0,0,1-.28-1q-0.1-.63-0.17-1.3a9.28,9.28,0,0,1-1,1.06,7.11,7.11,0,0,1-1.23.88,6.33,6.33,0,0,1-1.45.6,6.22,6.22,0,0,1-1.65.21,6.44,6.44,0,0,1-2.61-.51,6,6,0,0,1-2-1.39,6.22,6.22,0,0,1-1.28-2.08,7.26,7.26,0,0,1-.45-2.57,7.88,7.88,0,0,1,.59-3.15,6.09,6.09,0,0,1,1.69-2.29,7.44,7.44,0,0,1,2.66-1.39A12,12,0,0,1,275,1349h3.19v-1.74a4.72,4.72,0,0,0-1-3.17,3.69,3.69,0,0,0-3-1.18,4.55,4.55,0,0,0-1.65.29,4,4,0,0,0-1.28.77,3.49,3.49,0,0,0-.82,1.12,3.13,3.13,0,0,0-.29,1.33H267a5.67,5.67,0,0,1,.53-2.36,6.78,6.78,0,0,1,1.5-2.1,7.72,7.72,0,0,1,2.35-1.52,7.84,7.84,0,0,1,3.08-.58,8.36,8.36,0,0,1,2.82.46,5.82,5.82,0,0,1,2.21,1.39,6.52,6.52,0,0,1,1.44,2.33,9.31,9.31,0,0,1,.52,3.26v10.32a18,18,0,0,0,.16,2.37,10.2,10.2,0,0,0,.49,2.14v0.33h-3.37Zm-5.33-2.89a4.6,4.6,0,0,0,1.63-.29,5.67,5.67,0,0,0,1.39-.75,5.45,5.45,0,0,0,1.08-1.06,5.28,5.28,0,0,0,.72-1.23v-4.55h-2.67a7.53,7.53,0,0,0-4.25,1,3.46,3.46,0,0,0-1.49,3.07,4.84,4.84,0,0,0,.23,1.5,3.22,3.22,0,0,0,.69,1.2,3.34,3.34,0,0,0,1.13.8A3.77,3.77,0,0,0,273.4,1359.56Z" transform="translate(-20.83 -1165.17)"/><path class="cls-7" d="M285.7,1351.17a19.39,19.39,0,0,1,.51-4.62,11.63,11.63,0,0,1,1.47-3.57,7.18,7.18,0,0,1,2.33-2.31,5.9,5.9,0,0,1,3.09-.82,6.26,6.26,0,0,1,3.11.74,6.61,6.61,0,0,1,2.26,2.13l0.16-2.46h2.93V1362a12.14,12.14,0,0,1-.58,3.91,8.23,8.23,0,0,1-1.64,2.89,7,7,0,0,1-2.52,1.79,8.22,8.22,0,0,1-3.23.62,8.42,8.42,0,0,1-1.67-.2,9,9,0,0,1-1.91-.63,8.28,8.28,0,0,1-1.85-1.18,6.68,6.68,0,0,1-1.51-1.83l1.67-2.28a8.33,8.33,0,0,0,1.21,1.44,6.5,6.5,0,0,0,1.26.92,5.12,5.12,0,0,0,1.28.5,5.66,5.66,0,0,0,1.29.15,5.32,5.32,0,0,0,2-.38,4.1,4.1,0,0,0,1.57-1.14,5.24,5.24,0,0,0,1-1.86,8.48,8.48,0,0,0,.35-2.55v-1.93a6.51,6.51,0,0,1-2.23,1.95,6.44,6.44,0,0,1-3,.68,5.68,5.68,0,0,1-3-.84,7.33,7.33,0,0,1-2.33-2.35,12.07,12.07,0,0,1-1.48-3.57,18.37,18.37,0,0,1-.52-4.5v-0.43Zm3.23,0.43a16.31,16.31,0,0,0,.29,3.13,8.74,8.74,0,0,0,.88,2.55,4.88,4.88,0,0,0,1.54,1.72,3.89,3.89,0,0,0,2.24.64,4.53,4.53,0,0,0,1.54-.25,4.36,4.36,0,0,0,1.23-.68,4.81,4.81,0,0,0,1-1,7.49,7.49,0,0,0,.73-1.31v-10.13a7.85,7.85,0,0,0-.73-1.26,4.94,4.94,0,0,0-1-1,4.22,4.22,0,0,0-1.22-.67,4.59,4.59,0,0,0-1.51-.24,3.88,3.88,0,0,0-2.26.65,5,5,0,0,0-1.54,1.75,8.85,8.85,0,0,0-.89,2.57,16.3,16.3,0,0,0-.29,3.13v0.43Z" transform="translate(-20.83 -1165.17)"/><path class="cls-7" d="M317.33,1356.57a4.17,4.17,0,0,0-.16-1.16,2.5,2.5,0,0,0-.62-1,4.52,4.52,0,0,0-1.31-.89,12,12,0,0,0-2.24-.76,18.7,18.7,0,0,1-2.81-.92,8.17,8.17,0,0,1-2.13-1.28,5.08,5.08,0,0,1-1.34-1.77,5.72,5.72,0,0,1-.47-2.4,6.38,6.38,0,0,1,1.89-4.56,6.61,6.61,0,0,1,2.19-1.41,7.51,7.51,0,0,1,2.86-.52,7.9,7.9,0,0,1,3,.54,6.68,6.68,0,0,1,2.26,1.49,6.39,6.39,0,0,1,1.41,2.2,7.45,7.45,0,0,1,.49,2.7h-3.23a3.82,3.82,0,0,0-.26-1.36,3.75,3.75,0,0,0-.76-1.23,3.9,3.9,0,0,0-1.23-.88,4,4,0,0,0-1.68-.34,4.65,4.65,0,0,0-1.71.28,3.23,3.23,0,0,0-1.15.74,2.85,2.85,0,0,0-.66,1,3.55,3.55,0,0,0-.21,1.2,3.32,3.32,0,0,0,.17,1.11,2,2,0,0,0,.66.89,5,5,0,0,0,1.33.74,18.35,18.35,0,0,0,2.18.69,18.74,18.74,0,0,1,3,1.07,7.91,7.91,0,0,1,2.1,1.38,5.05,5.05,0,0,1,1.24,1.81,6.42,6.42,0,0,1,.41,2.38A6.78,6.78,0,0,1,320,1359a5.79,5.79,0,0,1-1.47,2.07,6.82,6.82,0,0,1-2.29,1.34,8.7,8.7,0,0,1-3,.48,8.31,8.31,0,0,1-3.31-.62,7.21,7.21,0,0,1-2.4-1.63,6.92,6.92,0,0,1-1.48-2.32,7.37,7.37,0,0,1-.5-2.68h3.21a4.52,4.52,0,0,0,.48,2,3.92,3.92,0,0,0,1.07,1.28,4,4,0,0,0,1.41.7,5.86,5.86,0,0,0,1.53.21,5.55,5.55,0,0,0,1.74-.25,3.76,3.76,0,0,0,1.26-.68,2.8,2.8,0,0,0,.77-1A3.05,3.05,0,0,0,317.33,1356.57Z" transform="translate(-20.83 -1165.17)"/></svg>