<svg id="Layer_1" data-name="Layer 1" xmlns="http://www.w3.org/2000/svg" viewBox="0 0 453.06 385.73"><defs><style>.cls-1{font-size:24.58px;}.cls-1,.cls-2{fill:#636363;font-family:Roboto;}.cls-2{font-size:41.18px;}.cls-3{letter-spacing:-1.18px;}.cls-4{fill:#007f71;}.cls-5,.cls-8{fill:#17a697;}.cls-5,.cls-6,.cls-7,.cls-8{stroke:#17a697;}.cls-5,.cls-6,.cls-7,.cls-8,.cls-9{stroke-miterlimit:10;}.cls-6{fill:#66c6b8;}.cls-7{fill:#004c43;}.cls-8{opacity:0.35;}.cls-9{fill:none;stroke:#fff;stroke-width:3px;}</style></defs><title>donut_chart</title><text class="cls-1" transform="translate(0 211.55) scale(0.92 1)">Ca<tspan x="29.37" y="0">r</tspan><tspan x="37.46" y="0">eer</tspan></text><text class="cls-1" transform="translate(64.95 21.03) scale(0.92 1)">Relationship</text><text class="cls-2" transform="translate(143.72 200.56) scale(0.85 1)"><tspan class="cls-3">T</tspan><tspan x="22.58" y="0">op 5</tspan><tspan x="102.49" y="0"> </tspan><tspan class="cls-3" x="111.88" y="0">T</tspan><tspan x="134.18" y="0">ags</tspan></text><text class="cls-1" transform="translate(342.19 60.22) scale(0.92 1)">Hobbies</text><text class="cls-1" transform="translate(387.45 177.16) scale(0.92 1)">Health</text><text class="cls-1" transform="translate(255.66 379.07) scale(0.92 1)">Community</text><polygon class="cls-4" points="108.92 98.22 114.16 91.52 122.71 82.35 128.95 76.5 135.57 71.18 142.27 66.18 148.58 61.87 155.75 57.71 161.99 54.4 168.22 51.39 175.06 48.47 182.47 45.92 189.32 43.84 194.86 42.77 200.88 41.53 207.73 40.38 214.74 39.53 222.06 39.07 229.04 39 235.34 39.14 242.53 39.46 249.65 40.12 256.74 41.3 263.05 42.59 268.6 44.08 274.04 45.56 280.15 47.62 286 49.98 291.96 52.6 296.88 55.27 302.07 57.94 305.67 60.16 289.83 82.22 283.13 78.63 273.99 74.67 265.72 71.54 257.1 69.21 245.83 67.13 239.36 66.45 230.27 65.9 223.39 66.02 215.28 66.74 207.4 67.72 200.41 69.13 194.86 70.54 188.68 72.65 182.39 74.96 176.23 77.68 168.89 81.58 162.45 85.3 157.16 88.92 150.48 93.98 144.32 99.45 139.39 104.48 135.65 108.41 130.49 115.13 108.92 98.22"/><polygon class="cls-5" points="305.52 60.15 314.4 65.86 324.51 73.58 335.43 83.53 343.13 91.8 350.45 101.25 355.35 108.49 330.7 121.48 323.88 111.98 317.61 104.69 311.96 99.04 303.08 91.44 294.25 85.44 289.89 82.61 305.52 60.15"/><polygon class="cls-6" points="355.57 108.61 360.01 116.08 363.45 122.71 370.05 138.55 374.88 154.98 377.14 168.02 378.52 185.94 377.6 206.11 375.39 219.56 371.03 235.63 366.71 246.98 361.53 258.18 337.81 243.85 343.4 230.6 347.62 217.25 349.98 204.21 351.06 188.53 349.77 171.82 346.13 154.41 338.17 134.03 331.29 121.86 355.57 108.61"/><path class="cls-7" d="M748.23,223.07L737,240.25l-3.44,6.62L727,262.71l-4.83,16.43-2.26,13L718.5,310.1l0.92,20.18,2.21,13.45L726,359.8l4.31,11.35L740,390l8.12,12.06c4,3.59,7.59,10.15,11.59,13.73,4.61,4.14,8.77,8.32,13.39,12.45a118.62,118.62,0,0,0,11.3,8.2c2.32,1.52,4,2.88,7.87,5.23l14.83-23.34c-3.67-3.16-8.4-4.81-12.06-8-4.26-3.68-8.79-7.62-13-11.29-3.57-3.08-5.82-7.42-9.39-10.5l-10.38-15.29-8.63-18.53-4.21-13.35-2.36-13L746,312.69,747.25,296l3.65-17.41,8-20.38,11.45-18.5Z" transform="translate(-639.61 -124.09)"/><polygon class="cls-8" points="337.44 244.33 360.79 258.18 357.86 263.59 352.8 271.96 345.43 281.92 336.94 291.57 326.38 301.71 316.83 309.26 309.37 314.32 297.32 321.38 283.46 327.69 273.53 331.19 264.75 333.62 251.37 336.37 238.79 337.73 219.23 337.73 203.47 335.88 191.89 333.52 176.62 328.72 165.86 324.23 152.97 317.43 167.63 294.58 177.23 299.45 186.12 303.1 193.61 305.69 201.7 307.77 209.68 309.26 218.64 310.39 227.99 310.78 237.15 310.61 245.96 309.54 254.76 307.93 262.21 306.1 270.94 303.2 281.69 298.76 289.62 294.76 298.97 288.62 303.28 285.23 307.31 282.1 313.83 276.22 320.43 269.11 327.41 260.87 332.5 253.4 337.44 244.33"/><circle class="cls-9" cx="228.6" cy="188.53" r="149.71"/><circle class="cls-9" cx="228.6" cy="188.53" r="122.08"/><line class="cls-9" x1="130.69" y1="115.6" x2="108.94" y2="98.55"/><line class="cls-9" x1="330.85" y1="121.79" x2="355.21" y2="108.6"/><line class="cls-9" x1="289.66" y1="82.8" x2="305.67" y2="60.16"/><line class="cls-9" x1="152.7" y1="317.6" x2="167.53" y2="294.26"/><line class="cls-9" x1="337.35" y1="244.05" x2="361.17" y2="258.15"/><text class="cls-1" transform="translate(369.27 89.47) scale(0.92 1)">7%</text><text class="cls-1" transform="translate(399.31 205.97) scale(0.92 1)">13%</text><text class="cls-1" transform="translate(295.06 351.57) scale(0.92 1)">26%</text><text class="cls-1" transform="translate(106.01 48.9) scale(0.92 1)">19%</text><text class="cls-1" transform="translate(12.04 242.41) scale(0.92 1)">35%</text></svg>