<svg id="Layer_1" data-name="Layer 1" xmlns="http://www.w3.org/2000/svg" viewBox="0 0 42.36 42.36"><defs><style>.cls-1{fill:#17a697;}.cls-2{fill:#fff;}</style></defs><title>face</title><path class="cls-1" d="M5464,2821.24a21.18,21.18,0,1,1,21.18-21.18,21.18,21.18,0,0,1-21.18,21.18" transform="translate(-5442.85 -2778.88)"/><path class="cls-2" d="M5460.11,2799.7a1.82,1.82,0,1,0,1.79,1.82A1.81,1.81,0,0,0,5460.11,2799.7Zm8.6,0a1.82,1.82,0,1,0,1.79,1.82A1.81,1.81,0,0,0,5468.71,2799.7Zm-4.3-14.21a14.57,14.57,0,1,0,14.33,14.57A14.46,14.46,0,0,0,5464.41,2785.49Zm0,26.23a11.58,11.58,0,0,1-11.47-11.66,12,12,0,0,1,.07-1.25,14.55,14.55,0,0,0,7.47-7.82,14.23,14.23,0,0,0,11.7,6.16,13.77,13.77,0,0,0,3.23-.38,11.78,11.78,0,0,1,.47,3.29A11.58,11.58,0,0,1,5464.41,2811.72Z" transform="translate(-5442.85 -2778.88)"/></svg>