<svg id="Layer_1" data-name="Layer 1" xmlns="http://www.w3.org/2000/svg" viewBox="0 0 62.87 62.87"><defs><style>.cls-1{fill:#354458;}</style></defs><title>goof</title><circle class="cls-1" cx="42.43" cy="23.57" r="4.71"/><circle class="cls-1" cx="20.43" cy="23.57" r="4.71"/><path class="cls-1" d="M6372.45,2987.36a31.43,31.43,0,1,0,31.46,31.43A31.42,31.42,0,0,0,6372.45,2987.36Zm0,56.58a25.15,25.15,0,1,1,25.15-25.15A25.14,25.14,0,0,1,6372.48,3043.94Zm0-12.57a12.56,12.56,0,0,1-10.84-6.29h-5.25a17.27,17.27,0,0,0,32.19,0h-5.25A12.56,12.56,0,0,1,6372.48,3031.36Z" transform="translate(-6341.04 -2987.36)"/></svg>