<svg id="Layer_1" data-name="Layer 1" xmlns="http://www.w3.org/2000/svg" viewBox="0 0 75.17 75.17"><defs><style>.cls-1{fill:#354458;}.cls-2{fill:none;}</style></defs><title>great</title><path class="cls-1" d="M6373.06,2892.08a31.32,31.32,0,1,0,31.35,31.32A31.29,31.29,0,0,0,6373.06,2892.08Zm0,56.38a25.06,25.06,0,1,1,25.06-25.06A25,25,0,0,1,6373.09,2948.46Zm3.13-31.51,3.32,3.32,3.32-3.32,3.32,3.32,3.32-3.32-6.64-6.64Zm-12.9,0,3.32,3.32L6370,2917l-6.64-6.64-6.64,6.64,3.32,3.32Zm9.77,23.68a17.21,17.21,0,0,0,16-11h-32A17.21,17.21,0,0,0,6373.09,2940.63Z" transform="translate(-6335.5 -2885.82)"/><path class="cls-2" d="M6335.5,2885.82h75.17V2961H6335.5v-75.17Z" transform="translate(-6335.5 -2885.82)"/></svg>