<svg id="Layer_1" data-name="Layer 1" xmlns="http://www.w3.org/2000/svg" viewBox="0 0 864.46 265.72"><defs><style>.cls-1,.cls-3{fill:#17a697;}.cls-2{fill:#636363;}.cls-3{opacity:0.7;}</style></defs><title>journal_usage</title><rect class="cls-1" x="2.65" y="75.8" width="33.8" height="128.21" rx="7" ry="7"/><path class="cls-2" d="M4852.62,1131.7h-11.41v-1.36l6-8q0.84-1.12,1.42-2a13.76,13.76,0,0,0,.94-1.68,7.57,7.57,0,0,0,.51-1.46,6.37,6.37,0,0,0-.09-3.15,4,4,0,0,0-.73-1.4,3.26,3.26,0,0,0-1.19-.92,3.91,3.91,0,0,0-1.64-.33,3.71,3.71,0,0,0-3,1.42,4.82,4.82,0,0,0-.82,1.58,6.62,6.62,0,0,0-.29,2h-1.49a8.12,8.12,0,0,1,.38-2.51,6.27,6.27,0,0,1,1.11-2.07,5.34,5.34,0,0,1,1.76-1.4,5.15,5.15,0,0,1,2.35-.52,6,6,0,0,1,2.21.39,4.49,4.49,0,0,1,1.68,1.14,5.09,5.09,0,0,1,1.06,1.82,7.45,7.45,0,0,1,.37,2.43,6.75,6.75,0,0,1-.3,2,11.85,11.85,0,0,1-.8,2,18.69,18.69,0,0,1-1.15,1.94q-0.65,1-1.34,1.89l-5.08,6.79h9.57v1.49Z" transform="translate(-4832.05 -1063.46)"/><path class="cls-2" d="M4862.38,1131.7h-1.5v-19.4l-5,2.17v-1.66l6.21-2.72h0.25v21.6Z" transform="translate(-4832.05 -1063.46)"/><path class="cls-2" d="M4841.51,1301.19h1.55v15.13a9,9,0,0,1-.42,2.88,6.19,6.19,0,0,1-1.15,2.1,4.75,4.75,0,0,1-1.75,1.29,5.47,5.47,0,0,1-2.19.44,6.42,6.42,0,0,1-2.25-.38,4.44,4.44,0,0,1-1.73-1.15,5.4,5.4,0,0,1-1.12-1.94,8.5,8.5,0,0,1-.4-2.75h1.54a5.17,5.17,0,0,0,1,3.51,3.7,3.7,0,0,0,2.93,1.17,3.64,3.64,0,0,0,1.54-.33,3.57,3.57,0,0,0,1.26-1,4.79,4.79,0,0,0,.84-1.61,7.36,7.36,0,0,0,.31-2.23v-15.13Z" transform="translate(-4832.05 -1063.46)"/><path class="cls-2" d="M4855.75,1322.72a5.9,5.9,0,0,1-.19-1q-0.07-.6-0.09-1.22a6,6,0,0,1-.8,1,5.32,5.32,0,0,1-1,.8,5.71,5.71,0,0,1-1.26.55,5.16,5.16,0,0,1-1.49.21,4.58,4.58,0,0,1-1.8-.34,3.94,3.94,0,0,1-1.38-1,4.38,4.38,0,0,1-.88-1.44,5.4,5.4,0,0,1,.11-3.91,4.38,4.38,0,0,1,1.23-1.6,5.58,5.58,0,0,1,1.95-1,8.84,8.84,0,0,1,2.57-.35h2.78v-1.82a3.87,3.87,0,0,0-.89-2.7,3.35,3.35,0,0,0-2.61-1,4.06,4.06,0,0,0-1.45.25,3.52,3.52,0,0,0-1.14.69,3.2,3.2,0,0,0-.75,1,2.94,2.94,0,0,0-.27,1.25h-1.5a4.25,4.25,0,0,1,.38-1.75,4.75,4.75,0,0,1,1.06-1.5,5.23,5.23,0,0,1,1.64-1.06,5.45,5.45,0,0,1,2.12-.4,5.83,5.83,0,0,1,2,.33,4.16,4.16,0,0,1,1.56,1,4.46,4.46,0,0,1,1,1.63,6.54,6.54,0,0,1,.36,2.28v7.75q0,0.41,0,.86t0.08,0.86q0.06,0.41.13,0.79a4.58,4.58,0,0,0,.17.66v0.18h-1.6Zm-4.7-1.27a4.49,4.49,0,0,0,2.76-.92,4.75,4.75,0,0,0,1-1,5.22,5.22,0,0,0,.66-1.23v-3.52h-2.56a8,8,0,0,0-2.06.24,4.57,4.57,0,0,0-1.53.7,3.09,3.09,0,0,0-1,1.12,3.25,3.25,0,0,0-.33,1.49,3.45,3.45,0,0,0,.21,1.22,2.94,2.94,0,0,0,.61,1,2.84,2.84,0,0,0,1,.67A3.14,3.14,0,0,0,4851.05,1321.45Z" transform="translate(-4832.05 -1063.46)"/><path class="cls-2" d="M4862.36,1306.72l0,2.74a7.16,7.16,0,0,1,.81-1.24,5.2,5.2,0,0,1,1-1,4.54,4.54,0,0,1,1.21-.61,4.37,4.37,0,0,1,1.38-.21,4.79,4.79,0,0,1,1.81.33,3.28,3.28,0,0,1,1.36,1,5,5,0,0,1,.85,1.83,10.76,10.76,0,0,1,.29,2.7v10.41h-1.49V1312.3a8,8,0,0,0-.23-2.07,3.53,3.53,0,0,0-.64-1.33,2.3,2.3,0,0,0-1-.72,3.88,3.88,0,0,0-1.32-.21,3.26,3.26,0,0,0-1.45.32,3.94,3.94,0,0,0-1.15.85,5.52,5.52,0,0,0-.86,1.22,7.56,7.56,0,0,0-.58,1.41v11h-1.49v-16h1.43Z" transform="translate(-4832.05 -1063.46)"/><rect class="cls-1" x="77.65" y="59.91" width="33.8" height="144.1" rx="7" ry="7"/><path class="cls-2" d="M4925.09,1115.23h-11.41v-1.36l6-8q0.84-1.12,1.42-2a13.76,13.76,0,0,0,.94-1.68,7.57,7.57,0,0,0,.51-1.46,6.37,6.37,0,0,0-.09-3.15,4,4,0,0,0-.73-1.4,3.26,3.26,0,0,0-1.19-.92,3.91,3.91,0,0,0-1.64-.33,3.71,3.71,0,0,0-3,1.42,4.82,4.82,0,0,0-.82,1.58,6.62,6.62,0,0,0-.29,2h-1.49a8.12,8.12,0,0,1,.38-2.51,6.27,6.27,0,0,1,1.11-2.07,5.34,5.34,0,0,1,1.76-1.4,5.15,5.15,0,0,1,2.35-.52,6,6,0,0,1,2.21.39,4.49,4.49,0,0,1,1.68,1.14,5.09,5.09,0,0,1,1.06,1.82,7.45,7.45,0,0,1,.37,2.43,6.75,6.75,0,0,1-.3,2,11.85,11.85,0,0,1-.8,2,18.69,18.69,0,0,1-1.15,1.94q-0.65,1-1.34,1.89l-5.08,6.79h9.57v1.49Z" transform="translate(-4832.05 -1063.46)"/><path class="cls-2" d="M4937.07,1108.3h2.84v1.49h-2.84v5.44h-1.5v-5.44H4927v-1l8.43-15.08h1.64v14.59Zm-8.23,0h6.73V1096l-0.66,1.36Z" transform="translate(-4832.05 -1063.46)"/><path class="cls-2" d="M4917.66,1313.85h-8.49v10.05h-1.54v-21.53h11.28v1.55h-9.74v8.37h8.49v1.55Z" transform="translate(-4832.05 -1063.46)"/><path class="cls-2" d="M4926.67,1324.2a5.18,5.18,0,0,1-2.44-.58,5.84,5.84,0,0,1-1.92-1.63,7.84,7.84,0,0,1-1.26-2.48,10.48,10.48,0,0,1-.45-3.15v-0.64a11.21,11.21,0,0,1,.47-3.35,8.3,8.3,0,0,1,1.27-2.56,5.88,5.88,0,0,1,1.85-1.63,4.5,4.5,0,0,1,2.21-.58,4.7,4.7,0,0,1,2.29.55,4.92,4.92,0,0,1,1.68,1.52,7.2,7.2,0,0,1,1,2.32,11.67,11.67,0,0,1,.35,2.94V1316h-9.66v0.34a8.8,8.8,0,0,0,.34,2.48,6.61,6.61,0,0,0,1,2,4.68,4.68,0,0,0,1.46,1.35,3.68,3.68,0,0,0,1.89.5,4.25,4.25,0,0,0,2.12-.52,5,5,0,0,0,1.67-1.66l0.94,0.84a7.5,7.5,0,0,1-.78,1.09,4.8,4.8,0,0,1-1,.9,5.07,5.07,0,0,1-1.33.61A5.74,5.74,0,0,1,4926.67,1324.2Zm-0.28-15.08a3.32,3.32,0,0,0-1.58.38,4,4,0,0,0-1.28,1.09,6,6,0,0,0-.91,1.71,9.45,9.45,0,0,0-.48,2.21h8.12v-0.19a8.32,8.32,0,0,0-.28-1.94,5.59,5.59,0,0,0-.73-1.66,3.82,3.82,0,0,0-1.2-1.16A3.13,3.13,0,0,0,4926.39,1309.12Z" transform="translate(-4832.05 -1063.46)"/><path class="cls-2" d="M4945.56,1316.07a14.69,14.69,0,0,1-.34,3.3,8.46,8.46,0,0,1-1,2.57,5.06,5.06,0,0,1-1.63,1.67,4.07,4.07,0,0,1-2.19.6,4.68,4.68,0,0,1-2.55-.67,5.22,5.22,0,0,1-1.73-1.82l-0.06,2.19h-1.4v-22.71h1.49v9a5.28,5.28,0,0,1,1.71-1.93,4.45,4.45,0,0,1,2.51-.69,4.2,4.2,0,0,1,2.2.58,4.92,4.92,0,0,1,1.63,1.64,8.29,8.29,0,0,1,1,2.57,15.09,15.09,0,0,1,.34,3.36v0.31Zm-1.5-.31a14.32,14.32,0,0,0-.22-2.6,7.1,7.1,0,0,0-.71-2.1,3.89,3.89,0,0,0-1.23-1.4,3.13,3.13,0,0,0-1.8-.51,3.84,3.84,0,0,0-1.5.27,3.63,3.63,0,0,0-1.13.73,4.38,4.38,0,0,0-.8,1,6.71,6.71,0,0,0-.53,1.23v7.22a6.21,6.21,0,0,0,.59,1.19,4.19,4.19,0,0,0,.84,1,3.71,3.71,0,0,0,1.12.64,4.16,4.16,0,0,0,1.42.23,3.06,3.06,0,0,0,1.76-.5,3.91,3.91,0,0,0,1.23-1.39,7.09,7.09,0,0,0,.72-2.09,13.84,13.84,0,0,0,.23-2.61v-0.31Z" transform="translate(-4832.05 -1063.46)"/><rect class="cls-3" x="152.35" y="30.68" width="33.8" height="173.33" rx="7" ry="7"/><rect class="cls-1" x="152.94" y="30.68" width="33.8" height="173.33" rx="7" ry="7"/><path class="cls-2" d="M4994.58,1073.79h1.53a4.77,4.77,0,0,0,1.84-.33,3.88,3.88,0,0,0,1.33-.9,3.71,3.71,0,0,0,.81-1.33,4.85,4.85,0,0,0,.27-1.62,6.46,6.46,0,0,0-.23-1.78,3.91,3.91,0,0,0-.7-1.39,3.18,3.18,0,0,0-1.19-.91,4.12,4.12,0,0,0-1.71-.32,4,4,0,0,0-1.59.31,3.69,3.69,0,0,0-1.26.89,4.07,4.07,0,0,0-.84,1.4,5.33,5.33,0,0,0-.3,1.84H4991a6.66,6.66,0,0,1,.42-2.4,5.79,5.79,0,0,1,1.15-1.88,5.1,5.1,0,0,1,1.74-1.23,5.43,5.43,0,0,1,2.18-.44,5.8,5.8,0,0,1,2.19.4,4.54,4.54,0,0,1,1.68,1.16,5.29,5.29,0,0,1,1.08,1.87,7.81,7.81,0,0,1,.38,2.54,5.38,5.38,0,0,1-.79,2.79,5.1,5.1,0,0,1-1,1.16,5.17,5.17,0,0,1-1.35.87,5,5,0,0,1,1.55.8,4.55,4.55,0,0,1,1.07,1.19,5.33,5.33,0,0,1,.63,1.49,6.89,6.89,0,0,1,.21,1.7,7.4,7.4,0,0,1-.42,2.6,5.63,5.63,0,0,1-1.18,1.93,4.9,4.9,0,0,1-1.78,1.2,6,6,0,0,1-2.23.41,6.21,6.21,0,0,1-2.16-.38,5.51,5.51,0,0,1-1.86-1.15,5.58,5.58,0,0,1-1.31-1.91,6.8,6.8,0,0,1-.49-2.69h1.5a5.33,5.33,0,0,0,.32,1.88,4.34,4.34,0,0,0,.89,1.47,4,4,0,0,0,1.37,1,4.39,4.39,0,0,0,1.75.34,3.9,3.9,0,0,0,3-1.18,4.86,4.86,0,0,0,1.08-3.41,5.49,5.49,0,0,0-.33-2,3.56,3.56,0,0,0-.94-1.38,3.77,3.77,0,0,0-1.45-.79,6.52,6.52,0,0,0-1.87-.25h-1.53v-1.51Z" transform="translate(-4832.05 -1063.46)"/><path class="cls-2" d="M5012.42,1085.51h-1.5v-19.4l-5,2.17v-1.66l6.21-2.72h0.25v21.6Z" transform="translate(-4832.05 -1063.46)"/><path class="cls-2" d="M4982.72,1301.19l6.72,19,6.74-19h2.05v21.53h-1.54v-9.4l0.13-9.58-6.78,19h-1.19l-6.76-18.91,0.13,9.51v9.4h-1.54v-21.53h2Z" transform="translate(-4832.05 -1063.46)"/><path class="cls-2" d="M5011,1322.72a5.9,5.9,0,0,1-.19-1q-0.07-.6-0.09-1.22a6,6,0,0,1-.8,1,5.32,5.32,0,0,1-1,.8,5.71,5.71,0,0,1-1.26.55,5.16,5.16,0,0,1-1.49.21,4.58,4.58,0,0,1-1.8-.34,3.94,3.94,0,0,1-1.38-1,4.38,4.38,0,0,1-.88-1.44,5.4,5.4,0,0,1,.11-3.91,4.38,4.38,0,0,1,1.23-1.6,5.58,5.58,0,0,1,1.95-1,8.84,8.84,0,0,1,2.57-.35h2.78v-1.82a3.87,3.87,0,0,0-.89-2.7,3.35,3.35,0,0,0-2.61-1,4.06,4.06,0,0,0-1.45.25,3.52,3.52,0,0,0-1.14.69,3.2,3.2,0,0,0-.75,1,2.94,2.94,0,0,0-.27,1.25h-1.5a4.25,4.25,0,0,1,.38-1.75,4.75,4.75,0,0,1,1.06-1.5,5.23,5.23,0,0,1,1.64-1.06,5.45,5.45,0,0,1,2.12-.4,5.83,5.83,0,0,1,2,.33,4.16,4.16,0,0,1,1.56,1,4.46,4.46,0,0,1,1,1.63,6.54,6.54,0,0,1,.36,2.28v7.75q0,0.41,0,.86t0.08,0.86q0.06,0.41.13,0.79a4.58,4.58,0,0,0,.17.66v0.18H5011Zm-4.7-1.27a4.49,4.49,0,0,0,2.76-.92,4.75,4.75,0,0,0,1-1,5.22,5.22,0,0,0,.66-1.23v-3.52h-2.56a8,8,0,0,0-2.06.24,4.57,4.57,0,0,0-1.53.7,3.09,3.09,0,0,0-1,1.12,3.25,3.25,0,0,0-.33,1.49,3.45,3.45,0,0,0,.21,1.22,2.94,2.94,0,0,0,.61,1,2.84,2.84,0,0,0,1,.67A3.14,3.14,0,0,0,5006.33,1321.45Z" transform="translate(-4832.05 -1063.46)"/><path class="cls-2" d="M5022.47,1308.23a4.8,4.8,0,0,0-1-.1,3.32,3.32,0,0,0-2.46,1,4.33,4.33,0,0,0-.79,1.14,7.06,7.06,0,0,0-.51,1.46v11h-1.49v-16h1.46l0,2.54a5.16,5.16,0,0,1,1.49-2.08,3.58,3.58,0,0,1,2.32-.76,2.83,2.83,0,0,1,.56.06,1.68,1.68,0,0,1,.43.13Z" transform="translate(-4832.05 -1063.46)"/><rect class="cls-1" x="227.64" y="47.54" width="33.8" height="156.47" rx="7" ry="7"/><path class="cls-2" d="M5075.5,1102.66h-11.41v-1.36l6-8q0.84-1.12,1.42-2a13.76,13.76,0,0,0,.94-1.68,7.57,7.57,0,0,0,.51-1.46,6.37,6.37,0,0,0-.09-3.15,4,4,0,0,0-.73-1.4,3.26,3.26,0,0,0-1.19-.92,3.91,3.91,0,0,0-1.64-.33,3.71,3.71,0,0,0-3,1.42,4.82,4.82,0,0,0-.82,1.58,6.62,6.62,0,0,0-.29,2h-1.49a8.12,8.12,0,0,1,.38-2.51,6.27,6.27,0,0,1,1.11-2.07,5.34,5.34,0,0,1,1.76-1.4,5.15,5.15,0,0,1,2.35-.52,6,6,0,0,1,2.21.39,4.49,4.49,0,0,1,1.68,1.14,5.09,5.09,0,0,1,1.06,1.82,7.45,7.45,0,0,1,.37,2.43,6.75,6.75,0,0,1-.3,2,11.85,11.85,0,0,1-.8,2,18.69,18.69,0,0,1-1.15,1.94q-0.65,1-1.34,1.89l-5.08,6.79h9.57v1.49Z" transform="translate(-4832.05 -1063.46)"/><path class="cls-2" d="M5089,1086.67a5.81,5.81,0,0,1-.22,1.62,5.4,5.4,0,0,1-.61,1.39,5.29,5.29,0,0,1-.94,1.12,4.86,4.86,0,0,1-1.23.81,5.45,5.45,0,0,1,1.41.83,5.5,5.5,0,0,1,1.1,1.21,5.57,5.57,0,0,1,.71,1.52,6.18,6.18,0,0,1,.25,1.78,6.94,6.94,0,0,1-.45,2.6,5.29,5.29,0,0,1-1.23,1.88,5.13,5.13,0,0,1-1.84,1.14,6.57,6.57,0,0,1-2.27.38,6.65,6.65,0,0,1-2.29-.38,5.14,5.14,0,0,1-1.84-1.14,5.22,5.22,0,0,1-1.23-1.88,7,7,0,0,1-.44-2.6,6.32,6.32,0,0,1,.24-1.78,5.75,5.75,0,0,1,.69-1.52,5.17,5.17,0,0,1,1.08-1.21,5.33,5.33,0,0,1,1.41-.83,4.74,4.74,0,0,1-1.22-.81,5,5,0,0,1-.93-1.12,5.5,5.5,0,0,1-.59-1.39,6,6,0,0,1-.21-1.62,7.16,7.16,0,0,1,.4-2.49,5.22,5.22,0,0,1,1.11-1.83,4.69,4.69,0,0,1,1.68-1.13,6,6,0,0,1,4.22,0,4.75,4.75,0,0,1,1.7,1.13,5.33,5.33,0,0,1,1.13,1.83A7,7,0,0,1,5089,1086.67Zm-1,10.29a5.15,5.15,0,0,0-.33-1.88,4.34,4.34,0,0,0-.91-1.45,4,4,0,0,0-1.37-.93,4.59,4.59,0,0,0-3.43,0,4,4,0,0,0-1.36.93,4.24,4.24,0,0,0-.89,1.45,5.81,5.81,0,0,0,0,3.8,4,4,0,0,0,.89,1.41,3.71,3.71,0,0,0,1.36.87,5,5,0,0,0,1.74.3,4.83,4.83,0,0,0,1.72-.3,3.8,3.8,0,0,0,1.36-.87,4,4,0,0,0,.89-1.41A5.36,5.36,0,0,0,5088,1097Zm-0.48-10.31a4.94,4.94,0,0,0-.29-1.74,4.27,4.27,0,0,0-.81-1.37,3.62,3.62,0,0,0-1.21-.89,3.67,3.67,0,0,0-1.53-.32,3.82,3.82,0,0,0-1.53.3,3.5,3.5,0,0,0-1.21.86,4,4,0,0,0-.79,1.36,5.31,5.31,0,0,0-.29,1.8,5.07,5.07,0,0,0,.28,1.74,3.84,3.84,0,0,0,.79,1.32,3.44,3.44,0,0,0,1.21.84,4,4,0,0,0,1.54.3,3.88,3.88,0,0,0,1.53-.3,3.51,3.51,0,0,0,1.21-.84,3.88,3.88,0,0,0,.8-1.32A5,5,0,0,0,5087.52,1086.66Z" transform="translate(-4832.05 -1063.46)"/><path class="cls-2" d="M5069.32,1316.69H5061l-1.88,6h-1.61l6.89-21.53h1.46l6.89,21.53h-1.6Zm-7.79-1.55h7.31l-3.65-11.72Z" transform="translate(-4832.05 -1063.46)"/><path class="cls-2" d="M5086,1314.88a14.69,14.69,0,0,1-.34,3.3,8.46,8.46,0,0,1-1,2.57,5.07,5.07,0,0,1-1.62,1.67,4,4,0,0,1-2.18.6,4.91,4.91,0,0,1-2.51-.61,5.05,5.05,0,0,1-1.75-1.69v8.16h-1.49v-22.15h1.39l0.08,2.26a5.37,5.37,0,0,1,1.74-1.88,4.5,4.5,0,0,1,2.5-.68,4.23,4.23,0,0,1,2.21.58,4.85,4.85,0,0,1,1.63,1.64,8.36,8.36,0,0,1,1,2.57,15.09,15.09,0,0,1,.34,3.36v0.31Zm-1.5-.31a13.23,13.23,0,0,0-.24-2.6,7.25,7.25,0,0,0-.74-2.1,4,4,0,0,0-1.26-1.4,3.15,3.15,0,0,0-1.79-.51,3.85,3.85,0,0,0-1.44.25,3.67,3.67,0,0,0-1.09.67,4.21,4.21,0,0,0-.8,1,6.38,6.38,0,0,0-.54,1.16v7.67a5.52,5.52,0,0,0,.59,1.12,4,4,0,0,0,.84.89,3.76,3.76,0,0,0,1.09.59,4.14,4.14,0,0,0,1.38.21,3.08,3.08,0,0,0,1.78-.51,4,4,0,0,0,1.25-1.4,7.36,7.36,0,0,0,.74-2.11,13.29,13.29,0,0,0,.24-2.62v-0.31Z" transform="translate(-4832.05 -1063.46)"/><path class="cls-2" d="M5095.59,1308.23a4.8,4.8,0,0,0-1-.1,3.32,3.32,0,0,0-2.46,1,4.33,4.33,0,0,0-.79,1.14,7.06,7.06,0,0,0-.51,1.46v11h-1.49v-16h1.46l0,2.54a5.16,5.16,0,0,1,1.49-2.08,3.58,3.58,0,0,1,2.32-.76,2.83,2.83,0,0,1,.56.06,1.68,1.68,0,0,1,.43.13Z" transform="translate(-4832.05 -1063.46)"/><rect class="cls-1" x="302.64" y="58.42" width="33.8" height="145.59" rx="7" ry="7"/><path class="cls-2" d="M5150.49,1113.42h-11.41v-1.36l6-8q0.84-1.12,1.42-2a13.76,13.76,0,0,0,.94-1.68,7.57,7.57,0,0,0,.51-1.46,6.37,6.37,0,0,0-.09-3.15,4,4,0,0,0-.73-1.4,3.26,3.26,0,0,0-1.19-.92,3.91,3.91,0,0,0-1.64-.33,3.71,3.71,0,0,0-3,1.42,4.82,4.82,0,0,0-.82,1.58,6.62,6.62,0,0,0-.29,2h-1.49a8.12,8.12,0,0,1,.38-2.51,6.27,6.27,0,0,1,1.11-2.07,5.34,5.34,0,0,1,1.76-1.4,5.15,5.15,0,0,1,2.35-.52,6,6,0,0,1,2.21.39,4.49,4.49,0,0,1,1.68,1.14,5.09,5.09,0,0,1,1.06,1.82,7.45,7.45,0,0,1,.37,2.43,6.75,6.75,0,0,1-.3,2,11.85,11.85,0,0,1-.8,2,18.69,18.69,0,0,1-1.15,1.94q-0.65,1-1.34,1.89l-5.08,6.79h9.57v1.49Z" transform="translate(-4832.05 -1063.46)"/><path class="cls-2" d="M5164.5,1092.91l-7.78,20.51h-1.56l7.73-20h-10.36v-1.51h12v1Z" transform="translate(-4832.05 -1063.46)"/><path class="cls-2" d="M5131,1301.19l6.72,19,6.74-19h2.05v21.53H5145v-9.4l0.13-9.58-6.78,19h-1.19l-6.76-18.91,0.13,9.51v9.4H5129v-21.53h2Z" transform="translate(-4832.05 -1063.46)"/><path class="cls-2" d="M5159.34,1322.72a5.9,5.9,0,0,1-.19-1q-0.07-.6-0.09-1.22a6,6,0,0,1-.8,1,5.32,5.32,0,0,1-1,.8,5.71,5.71,0,0,1-1.26.55,5.16,5.16,0,0,1-1.49.21,4.58,4.58,0,0,1-1.8-.34,3.94,3.94,0,0,1-1.38-1,4.38,4.38,0,0,1-.88-1.44,5.4,5.4,0,0,1,.11-3.91,4.38,4.38,0,0,1,1.23-1.6,5.58,5.58,0,0,1,1.95-1,8.84,8.84,0,0,1,2.57-.35H5159v-1.82a3.87,3.87,0,0,0-.89-2.7,3.35,3.35,0,0,0-2.61-1,4.06,4.06,0,0,0-1.45.25,3.52,3.52,0,0,0-1.14.69,3.2,3.2,0,0,0-.75,1,2.94,2.94,0,0,0-.27,1.25h-1.5a4.25,4.25,0,0,1,.38-1.75,4.75,4.75,0,0,1,1.06-1.5,5.23,5.23,0,0,1,1.64-1.06,5.45,5.45,0,0,1,2.12-.4,5.83,5.83,0,0,1,2,.33,4.16,4.16,0,0,1,1.56,1,4.46,4.46,0,0,1,1,1.63,6.54,6.54,0,0,1,.36,2.28v7.75q0,0.41,0,.86t0.08,0.86q0.06,0.41.13,0.79a4.58,4.58,0,0,0,.17.66v0.18h-1.6Zm-4.7-1.27a4.49,4.49,0,0,0,2.76-.92,4.75,4.75,0,0,0,1-1,5.22,5.22,0,0,0,.66-1.23v-3.52h-2.56a8,8,0,0,0-2.06.24,4.57,4.57,0,0,0-1.53.7,3.09,3.09,0,0,0-1,1.12,3.25,3.25,0,0,0-.33,1.49,3.45,3.45,0,0,0,.21,1.22,2.94,2.94,0,0,0,.61,1,2.84,2.84,0,0,0,1,.67A3.14,3.14,0,0,0,5154.64,1321.45Z" transform="translate(-4832.05 -1063.46)"/><path class="cls-2" d="M5168.63,1320.18l4-13.46h1.61l-5.73,18.56q-0.17.55-.44,1.23a5.73,5.73,0,0,1-.7,1.27,3.88,3.88,0,0,1-1.08,1,2.88,2.88,0,0,1-1.57.41l-0.29,0-0.33-.05-0.31-.07-0.23-.07v-1.46l0.41,0.06,0.37,0a2.86,2.86,0,0,0,1.06-.18,2.25,2.25,0,0,0,.81-0.55,3.53,3.53,0,0,0,.61-0.91,8.59,8.59,0,0,0,.48-1.26l0.65-2.11-5.1-15.87h1.64Z" transform="translate(-4832.05 -1063.46)"/><rect class="cls-1" x="377.64" y="77.59" width="33.8" height="126.42" rx="7" ry="7"/><path class="cls-2" d="M5220.6,1133.14h-1.5v-19.4l-5,2.17v-1.66l6.21-2.72h0.25v21.6Z" transform="translate(-4832.05 -1063.46)"/><path class="cls-2" d="M5238.56,1117.15a5.81,5.81,0,0,1-.22,1.62,5.4,5.4,0,0,1-.61,1.39,5.29,5.29,0,0,1-.94,1.12,4.86,4.86,0,0,1-1.23.81,5.45,5.45,0,0,1,1.41.83,5.5,5.5,0,0,1,1.1,1.21,5.57,5.57,0,0,1,.71,1.52,6.18,6.18,0,0,1,.25,1.78,6.94,6.94,0,0,1-.45,2.6,5.29,5.29,0,0,1-1.23,1.88,5.13,5.13,0,0,1-1.84,1.14,6.57,6.57,0,0,1-2.27.38,6.65,6.65,0,0,1-2.29-.38,5.14,5.14,0,0,1-1.84-1.14,5.22,5.22,0,0,1-1.23-1.88,7,7,0,0,1-.44-2.6,6.32,6.32,0,0,1,.24-1.78,5.75,5.75,0,0,1,.69-1.52,5.17,5.17,0,0,1,1.08-1.21,5.33,5.33,0,0,1,1.41-.83,4.74,4.74,0,0,1-1.22-.81,5,5,0,0,1-.93-1.12,5.5,5.5,0,0,1-.59-1.39,6,6,0,0,1-.21-1.62,7.16,7.16,0,0,1,.4-2.49,5.22,5.22,0,0,1,1.11-1.83,4.69,4.69,0,0,1,1.68-1.13,6,6,0,0,1,4.22,0,4.75,4.75,0,0,1,1.7,1.13,5.33,5.33,0,0,1,1.13,1.83A7,7,0,0,1,5238.56,1117.15Zm-1,10.29a5.15,5.15,0,0,0-.33-1.88,4.34,4.34,0,0,0-.91-1.45,4,4,0,0,0-1.37-.93,4.59,4.59,0,0,0-3.43,0,4,4,0,0,0-1.36.93,4.24,4.24,0,0,0-.89,1.45,5.81,5.81,0,0,0,0,3.8,4,4,0,0,0,.89,1.41,3.71,3.71,0,0,0,1.36.87,5,5,0,0,0,1.74.3,4.83,4.83,0,0,0,1.72-.3,3.8,3.8,0,0,0,1.36-.87,4,4,0,0,0,.89-1.41A5.36,5.36,0,0,0,5237.53,1127.44Zm-0.48-10.31a4.94,4.94,0,0,0-.29-1.74,4.27,4.27,0,0,0-.81-1.37,3.62,3.62,0,0,0-1.21-.89,3.67,3.67,0,0,0-1.53-.32,3.82,3.82,0,0,0-1.53.3,3.5,3.5,0,0,0-1.21.86,4,4,0,0,0-.79,1.36,5.31,5.31,0,0,0-.29,1.8,5.07,5.07,0,0,0,.28,1.74,3.84,3.84,0,0,0,.79,1.32,3.44,3.44,0,0,0,1.21.84,4,4,0,0,0,1.54.3,3.88,3.88,0,0,0,1.53-.3,3.51,3.51,0,0,0,1.21-.84,3.88,3.88,0,0,0,.8-1.32A5,5,0,0,0,5237.06,1117.14Z" transform="translate(-4832.05 -1063.46)"/><path class="cls-2" d="M5216.32,1301.19h1.55v15.13a9,9,0,0,1-.42,2.88,6.19,6.19,0,0,1-1.15,2.1,4.75,4.75,0,0,1-1.75,1.29,5.47,5.47,0,0,1-2.19.44,6.42,6.42,0,0,1-2.25-.38,4.44,4.44,0,0,1-1.73-1.15,5.4,5.4,0,0,1-1.12-1.94,8.5,8.5,0,0,1-.4-2.75h1.54a5.17,5.17,0,0,0,1,3.51,3.7,3.7,0,0,0,2.93,1.17,3.64,3.64,0,0,0,1.54-.33,3.57,3.57,0,0,0,1.26-1,4.79,4.79,0,0,0,.84-1.61,7.36,7.36,0,0,0,.31-2.23v-15.13Z" transform="translate(-4832.05 -1063.46)"/><path class="cls-2" d="M5230.73,1320.69a4.62,4.62,0,0,1-1.7,1.71,5.15,5.15,0,0,1-2.62.61,4.75,4.75,0,0,1-1.81-.33,3.5,3.5,0,0,1-1.4-1.06,5.1,5.1,0,0,1-.91-1.87,10.5,10.5,0,0,1-.32-2.79v-10.25h1.49V1317a7.77,7.77,0,0,0,.25,2.14,3.82,3.82,0,0,0,.67,1.38,2.41,2.41,0,0,0,1,.74,3.3,3.3,0,0,0,1.21.22,4.87,4.87,0,0,0,1.59-.24,3.6,3.6,0,0,0,1.19-.67,3.73,3.73,0,0,0,.83-1,5.48,5.48,0,0,0,.51-1.27v-11.58h1.5v16h-1.45Z" transform="translate(-4832.05 -1063.46)"/><path class="cls-2" d="M5237.53,1306.72l0,2.74a7.16,7.16,0,0,1,.81-1.24,5.2,5.2,0,0,1,1-1,4.54,4.54,0,0,1,1.21-.61,4.37,4.37,0,0,1,1.38-.21,4.79,4.79,0,0,1,1.81.33,3.28,3.28,0,0,1,1.36,1,5,5,0,0,1,.85,1.83,10.76,10.76,0,0,1,.29,2.7v10.41h-1.49V1312.3a8,8,0,0,0-.23-2.07,3.53,3.53,0,0,0-.64-1.33,2.3,2.3,0,0,0-1-.72,3.88,3.88,0,0,0-1.32-.21,3.26,3.26,0,0,0-1.45.32,3.94,3.94,0,0,0-1.15.85,5.52,5.52,0,0,0-.86,1.22,7.56,7.56,0,0,0-.58,1.41v11h-1.49v-16h1.43Z" transform="translate(-4832.05 -1063.46)"/><rect class="cls-1" x="452.64" y="125.27" width="33.8" height="78.74" rx="7" ry="7"/><path class="cls-2" d="M5295.71,1181h-1.5v-19.4l-5,2.17v-1.66l6.21-2.72h0.25V1181Z" transform="translate(-4832.05 -1063.46)"/><path class="cls-2" d="M5313.92,1172.06a19.63,19.63,0,0,1-.38,4.11,9,9,0,0,1-1.09,2.89,4.7,4.7,0,0,1-1.75,1.71,5.23,5.23,0,0,1-4.72,0,4.8,4.8,0,0,1-1.76-1.71,9,9,0,0,1-1.11-2.89,19.06,19.06,0,0,1-.39-4.11v-3.64a19.23,19.23,0,0,1,.38-4.1,8.91,8.91,0,0,1,1.1-2.87,4.75,4.75,0,0,1,1.76-1.69,5.29,5.29,0,0,1,4.71,0,4.73,4.73,0,0,1,1.76,1.69,8.91,8.91,0,0,1,1.1,2.87,19.35,19.35,0,0,1,.38,4.1v3.64Zm-1.5-3.86a12.1,12.1,0,0,0-1-5.59,3.45,3.45,0,0,0-6.16,0,12,12,0,0,0-1,5.59v4.05a17.73,17.73,0,0,0,.26,3.23,8.25,8.25,0,0,0,.78,2.38,3.88,3.88,0,0,0,1.29,1.47,3.44,3.44,0,0,0,3.58,0,3.79,3.79,0,0,0,1.28-1.47,8.27,8.27,0,0,0,.76-2.38,18.74,18.74,0,0,0,.25-3.23v-4.05Z" transform="translate(-4832.05 -1063.46)"/><path class="cls-2" d="M5295.59,1302.37h1.55v15.13a9,9,0,0,1-.42,2.88,6.19,6.19,0,0,1-1.15,2.1,4.75,4.75,0,0,1-1.75,1.29,5.47,5.47,0,0,1-2.19.44,6.42,6.42,0,0,1-2.25-.38,4.44,4.44,0,0,1-1.73-1.15,5.4,5.4,0,0,1-1.12-1.94,8.5,8.5,0,0,1-.4-2.75h1.54a5.17,5.17,0,0,0,1,3.51,3.7,3.7,0,0,0,2.93,1.17,3.64,3.64,0,0,0,1.54-.33,3.57,3.57,0,0,0,1.26-1,4.79,4.79,0,0,0,.84-1.61,7.36,7.36,0,0,0,.31-2.23v-15.13Z" transform="translate(-4832.05 -1063.46)"/><path class="cls-2" d="M5310,1321.88a4.62,4.62,0,0,1-1.7,1.71,5.15,5.15,0,0,1-2.62.61,4.75,4.75,0,0,1-1.81-.33,3.5,3.5,0,0,1-1.4-1.06,5.1,5.1,0,0,1-.91-1.87,10.5,10.5,0,0,1-.32-2.79V1307.9h1.49v10.28a7.77,7.77,0,0,0,.25,2.14,3.82,3.82,0,0,0,.67,1.38,2.41,2.41,0,0,0,1,.74,3.3,3.3,0,0,0,1.21.22,4.87,4.87,0,0,0,1.59-.24,3.6,3.6,0,0,0,1.19-.67,3.73,3.73,0,0,0,.83-1,5.48,5.48,0,0,0,.51-1.27V1307.9h1.5v16H5310Z" transform="translate(-4832.05 -1063.46)"/><path class="cls-2" d="M5317,1323.9h-1.5v-22.71h1.5v22.71Z" transform="translate(-4832.05 -1063.46)"/><rect class="cls-3" x="602.34" y="30.68" width="33.8" height="173.33" rx="7" ry="7"/><rect class="cls-1" x="602.93" y="30.68" width="33.8" height="173.33" rx="7" ry="7"/><path class="cls-2" d="M5444.57,1073.56h1.53a4.75,4.75,0,0,0,1.84-.33,3.85,3.85,0,0,0,1.33-.9,3.71,3.71,0,0,0,.81-1.33,4.84,4.84,0,0,0,.27-1.62,6.45,6.45,0,0,0-.23-1.78,3.92,3.92,0,0,0-.7-1.39,3.18,3.18,0,0,0-1.19-.91,4.12,4.12,0,0,0-1.71-.33,4,4,0,0,0-1.59.31,3.7,3.7,0,0,0-1.26.89,4.08,4.08,0,0,0-.84,1.4,5.33,5.33,0,0,0-.3,1.84H5441a6.65,6.65,0,0,1,.42-2.4,5.79,5.79,0,0,1,1.15-1.88,5.11,5.11,0,0,1,1.74-1.23,5.45,5.45,0,0,1,2.18-.44,5.8,5.8,0,0,1,2.19.4,4.55,4.55,0,0,1,1.68,1.16,5.3,5.3,0,0,1,1.08,1.87,7.81,7.81,0,0,1,.38,2.54,5.38,5.38,0,0,1-.79,2.79,5.19,5.19,0,0,1-2.33,2,5,5,0,0,1,1.55.81,4.53,4.53,0,0,1,1.07,1.19,5.34,5.34,0,0,1,.63,1.49,6.89,6.89,0,0,1,.21,1.7,7.41,7.41,0,0,1-.42,2.6,5.63,5.63,0,0,1-1.18,1.93,4.91,4.91,0,0,1-1.78,1.2,6,6,0,0,1-2.23.41,6.18,6.18,0,0,1-2.16-.38,5.5,5.5,0,0,1-1.86-1.15,5.58,5.58,0,0,1-1.31-1.92,6.79,6.79,0,0,1-.49-2.69h1.5a5.34,5.34,0,0,0,.32,1.88,4.33,4.33,0,0,0,.89,1.47,4,4,0,0,0,1.37,1,4.37,4.37,0,0,0,1.75.34,3.9,3.9,0,0,0,3-1.18,4.86,4.86,0,0,0,1.08-3.41,5.5,5.5,0,0,0-.33-2,3.57,3.57,0,0,0-.94-1.38,3.77,3.77,0,0,0-1.45-.79,6.56,6.56,0,0,0-1.87-.25h-1.53v-1.51Z" transform="translate(-4832.05 -1063.46)"/><path class="cls-2" d="M5462.41,1085.29h-1.5v-19.4l-5,2.17v-1.66l6.21-2.72h0.25v21.6Z" transform="translate(-4832.05 -1063.46)"/><path class="cls-2" d="M5443,1317.72a4.69,4.69,0,0,0-.24-1.58,3.3,3.3,0,0,0-.83-1.26,6,6,0,0,0-1.53-1,18.53,18.53,0,0,0-2.38-.95,19.84,19.84,0,0,1-2.48-1,7.52,7.52,0,0,1-1.87-1.26,5.11,5.11,0,0,1-1.19-1.67,5.42,5.42,0,0,1-.42-2.22,5.53,5.53,0,0,1,.45-2.26,5.09,5.09,0,0,1,1.26-1.75,5.81,5.81,0,0,1,1.94-1.14,7.21,7.21,0,0,1,2.46-.41,6.45,6.45,0,0,1,2.6.5,5.85,5.85,0,0,1,2,1.38,6.11,6.11,0,0,1,1.25,2,7.1,7.1,0,0,1,.44,2.51h-1.55a5.87,5.87,0,0,0-.31-1.94,4.38,4.38,0,0,0-.91-1.54,4.19,4.19,0,0,0-1.48-1,5.11,5.11,0,0,0-2-.37,5.69,5.69,0,0,0-2,.32,4.13,4.13,0,0,0-1.43.86,3.56,3.56,0,0,0-.86,1.26,4.21,4.21,0,0,0,0,3,3.27,3.27,0,0,0,.82,1.21,6.29,6.29,0,0,0,1.51,1,14.69,14.69,0,0,0,2.31.91,19.22,19.22,0,0,1,2.56,1,7.4,7.4,0,0,1,1.9,1.32,5.12,5.12,0,0,1,1.18,1.75,6.09,6.09,0,0,1,.4,2.29,5.69,5.69,0,0,1-.47,2.36,5.07,5.07,0,0,1-1.3,1.77,5.76,5.76,0,0,1-2,1.11,7.84,7.84,0,0,1-2.5.38,8.36,8.36,0,0,1-1.63-.16,7.58,7.58,0,0,1-1.58-.5,6.46,6.46,0,0,1-1.41-.85,5.33,5.33,0,0,1-1.14-1.23,6.13,6.13,0,0,1-.76-1.64,7.07,7.07,0,0,1-.28-2.06H5433a5,5,0,0,0,.48,2.3,4.35,4.35,0,0,0,1.23,1.52,4.87,4.87,0,0,0,1.69.83,7,7,0,0,0,1.88.26,6.12,6.12,0,0,0,1.93-.29,4.37,4.37,0,0,0,1.49-.82,3.59,3.59,0,0,0,1-1.28A4.06,4.06,0,0,0,5443,1317.72Z" transform="translate(-4832.05 -1063.46)"/><path class="cls-2" d="M5452.78,1323.31a5.18,5.18,0,0,1-2.44-.58,5.84,5.84,0,0,1-1.92-1.63,7.84,7.84,0,0,1-1.26-2.48,10.48,10.48,0,0,1-.45-3.15v-0.64a11.21,11.21,0,0,1,.47-3.35,8.3,8.3,0,0,1,1.27-2.56,5.88,5.88,0,0,1,1.85-1.63,4.5,4.5,0,0,1,2.21-.58,4.7,4.7,0,0,1,2.29.55,4.92,4.92,0,0,1,1.68,1.52,7.2,7.2,0,0,1,1,2.32,11.67,11.67,0,0,1,.35,2.94v1.08h-9.66v0.34a8.8,8.8,0,0,0,.34,2.48,6.61,6.61,0,0,0,1,2,4.68,4.68,0,0,0,1.46,1.35,3.68,3.68,0,0,0,1.89.5,4.25,4.25,0,0,0,2.12-.52,5,5,0,0,0,1.67-1.66l0.94,0.84a7.5,7.5,0,0,1-.78,1.09,4.8,4.8,0,0,1-1,.9,5.07,5.07,0,0,1-1.33.61A5.74,5.74,0,0,1,5452.78,1323.31Zm-0.28-15.08a3.32,3.32,0,0,0-1.58.38,4,4,0,0,0-1.28,1.09,6,6,0,0,0-.91,1.71,9.45,9.45,0,0,0-.48,2.21h8.12v-0.19a8.32,8.32,0,0,0-.28-1.94,5.59,5.59,0,0,0-.73-1.66,3.82,3.82,0,0,0-1.2-1.16A3.13,3.13,0,0,0,5452.5,1308.23Z" transform="translate(-4832.05 -1063.46)"/><path class="cls-2" d="M5471.65,1315.18a14.69,14.69,0,0,1-.34,3.3,8.46,8.46,0,0,1-1,2.57,5.07,5.07,0,0,1-1.62,1.67,4,4,0,0,1-2.18.6,4.91,4.91,0,0,1-2.51-.61,5.05,5.05,0,0,1-1.75-1.69v8.16h-1.49V1307h1.39l0.08,2.26a5.37,5.37,0,0,1,1.74-1.88,4.5,4.5,0,0,1,2.5-.68,4.23,4.23,0,0,1,2.21.58,4.85,4.85,0,0,1,1.63,1.64,8.36,8.36,0,0,1,1,2.57,15.09,15.09,0,0,1,.34,3.36v0.31Zm-1.5-.31a13.23,13.23,0,0,0-.24-2.6,7.25,7.25,0,0,0-.74-2.1,4,4,0,0,0-1.26-1.4,3.15,3.15,0,0,0-1.79-.51,3.85,3.85,0,0,0-1.44.25,3.67,3.67,0,0,0-1.09.67,4.21,4.21,0,0,0-.8,1,6.38,6.38,0,0,0-.54,1.16V1319a5.52,5.52,0,0,0,.59,1.12,4,4,0,0,0,.84.89,3.76,3.76,0,0,0,1.09.59,4.14,4.14,0,0,0,1.38.21,3.08,3.08,0,0,0,1.78-.51,4,4,0,0,0,1.25-1.4,7.36,7.36,0,0,0,.74-2.11,13.29,13.29,0,0,0,.24-2.62v-0.31Z" transform="translate(-4832.05 -1063.46)"/><rect class="cls-1" x="677.63" y="92.53" width="33.8" height="111.48" rx="7" ry="7"/><path class="cls-2" d="M5520.6,1147.7h-1.5v-19.4l-5,2.17v-1.66l6.21-2.72h0.25v21.6Z" transform="translate(-4832.05 -1063.46)"/><path class="cls-2" d="M5536.66,1126v1.55h-0.22a6.91,6.91,0,0,0-2.92.59,6.14,6.14,0,0,0-2.2,1.7,8.25,8.25,0,0,0-1.44,2.71,13.65,13.65,0,0,0-.63,3.59,5.35,5.35,0,0,1,1.92-1.91,5.13,5.13,0,0,1,2.61-.67,4.49,4.49,0,0,1,2.3.57,5,5,0,0,1,1.64,1.54,7.16,7.16,0,0,1,1,2.26,11.48,11.48,0,0,1,0,5.6,7.29,7.29,0,0,1-1.07,2.33,5.28,5.28,0,0,1-1.7,1.55,4.48,4.48,0,0,1-2.25.57,4.92,4.92,0,0,1-2.47-.62,5.71,5.71,0,0,1-1.86-1.7,8.17,8.17,0,0,1-1.17-2.51,11.16,11.16,0,0,1-.41-3.06v-1.91a21.74,21.74,0,0,1,.53-5,11.53,11.53,0,0,1,1.61-3.84,7.54,7.54,0,0,1,2.72-2.47,8.07,8.07,0,0,1,3.84-.87h0.22Zm-3.11,9.08a3.94,3.94,0,0,0-1.44.27,4.48,4.48,0,0,0-1.28.76,5.11,5.11,0,0,0-1,1.14,4.64,4.64,0,0,0-.61,1.4v1.46a9.5,9.5,0,0,0,.34,2.67,6.48,6.48,0,0,0,.94,2,4.2,4.2,0,0,0,1.39,1.26,3.55,3.55,0,0,0,1.73.44,3,3,0,0,0,1.64-.45,3.92,3.92,0,0,0,1.23-1.24,6.28,6.28,0,0,0,.78-1.84,9.49,9.49,0,0,0,0-4.41,5.89,5.89,0,0,0-.74-1.79,3.8,3.8,0,0,0-1.25-1.22A3.36,3.36,0,0,0,5533.54,1135.09Z" transform="translate(-4832.05 -1063.46)"/><path class="cls-2" d="M5522.63,1313.42a15.49,15.49,0,0,1-.5,4.09,9.72,9.72,0,0,1-1.42,3.11,6.5,6.5,0,0,1-2.23,2,6.11,6.11,0,0,1-2.93.7,6,6,0,0,1-2.91-.7,6.69,6.69,0,0,1-2.25-2,9.67,9.67,0,0,1-1.45-3.11,15.11,15.11,0,0,1-.51-4.09v-2.31a15.2,15.2,0,0,1,.51-4.1,9.92,9.92,0,0,1,1.44-3.13,6.54,6.54,0,0,1,2.23-2,6,6,0,0,1,2.91-.7,6.12,6.12,0,0,1,2.93.7,6.57,6.57,0,0,1,2.25,2,9.66,9.66,0,0,1,1.43,3.13,15.58,15.58,0,0,1,.5,4.1v2.31Zm-1.54-2.34a14.57,14.57,0,0,0-.38-3.45,8.17,8.17,0,0,0-1.09-2.61,5.1,5.1,0,0,0-1.75-1.66,4.71,4.71,0,0,0-2.35-.58,4.63,4.63,0,0,0-2.32.58,5.18,5.18,0,0,0-1.75,1.66,8.2,8.2,0,0,0-1.1,2.61,14.36,14.36,0,0,0-.38,3.45v2.34a14.16,14.16,0,0,0,.39,3.46,8.28,8.28,0,0,0,1.11,2.62,5.12,5.12,0,0,0,1.76,1.66,4.67,4.67,0,0,0,2.32.58,4.75,4.75,0,0,0,2.36-.58,5,5,0,0,0,1.74-1.66,8.28,8.28,0,0,0,1.08-2.62,14.91,14.91,0,0,0,.37-3.46v-2.34Z" transform="translate(-4832.05 -1063.46)"/><path class="cls-2" d="M5531.17,1321.82a3.92,3.92,0,0,0,1.37-.24,3.5,3.5,0,0,0,1.17-.72,3.75,3.75,0,0,0,.84-1.17,4.25,4.25,0,0,0,.38-1.61h1.44a5.7,5.7,0,0,1-.48,2.1,5.42,5.42,0,0,1-1.14,1.66,5.2,5.2,0,0,1-1.63,1.09,5.25,5.25,0,0,1-4.45-.22,5.4,5.4,0,0,1-1.81-1.69,8,8,0,0,1-1.1-2.54,12.75,12.75,0,0,1-.37-3.14v-0.62a12.75,12.75,0,0,1,.37-3.14,8,8,0,0,1,1.09-2.53,5.42,5.42,0,0,1,1.81-1.69,4.92,4.92,0,0,1,2.5-.62,5.07,5.07,0,0,1,2,.4,4.81,4.81,0,0,1,1.63,1.14,5.54,5.54,0,0,1,1.11,1.8,7.2,7.2,0,0,1,.46,2.36h-1.44a5.44,5.44,0,0,0-.36-1.74,4.22,4.22,0,0,0-.81-1.32,3.45,3.45,0,0,0-1.18-.83,3.58,3.58,0,0,0-1.43-.29,3.49,3.49,0,0,0-2,.53,4.13,4.13,0,0,0-1.32,1.43,6.87,6.87,0,0,0-.74,2.07,12.52,12.52,0,0,0-.23,2.44v0.62a12.73,12.73,0,0,0,.23,2.46,6.87,6.87,0,0,0,.74,2.07,4.05,4.05,0,0,0,1.33,1.43A3.56,3.56,0,0,0,5531.17,1321.82Z" transform="translate(-4832.05 -1063.46)"/><path class="cls-2" d="M5541.69,1302.92v4.1h2.8v1.45h-2.8v10.66a5.15,5.15,0,0,0,.14,1.35,2.12,2.12,0,0,0,.39.8,1.18,1.18,0,0,0,.56.38,2.32,2.32,0,0,0,.67.1,3.9,3.9,0,0,0,.65-0.05l0.56-.1,0.06,1.45a3,3,0,0,1-.72.19,6,6,0,0,1-.88.07,3.39,3.39,0,0,1-1.18-.2,2.11,2.11,0,0,1-.93-0.69,3.55,3.55,0,0,1-.61-1.29,7.75,7.75,0,0,1-.22-2v-10.66h-2.49V1307h2.49v-4.1h1.5Z" transform="translate(-4832.05 -1063.46)"/><rect class="cls-1" x="752.63" y="39.05" width="33.8" height="164.96" rx="7" ry="7"/><path class="cls-2" d="M5592.56,1082.11h1.53a4.75,4.75,0,0,0,1.84-.33,3.85,3.85,0,0,0,1.33-.9,3.71,3.71,0,0,0,.81-1.33,4.84,4.84,0,0,0,.27-1.62,6.45,6.45,0,0,0-.23-1.78,3.92,3.92,0,0,0-.7-1.39,3.18,3.18,0,0,0-1.19-.91,4.12,4.12,0,0,0-1.71-.33,4,4,0,0,0-1.59.31,3.7,3.7,0,0,0-1.26.89,4.08,4.08,0,0,0-.84,1.4,5.33,5.33,0,0,0-.3,1.84H5589a6.65,6.65,0,0,1,.42-2.4,5.79,5.79,0,0,1,1.15-1.88,5.11,5.11,0,0,1,1.74-1.23,5.45,5.45,0,0,1,2.18-.44,5.8,5.8,0,0,1,2.19.4,4.55,4.55,0,0,1,1.68,1.16,5.3,5.3,0,0,1,1.08,1.87,7.81,7.81,0,0,1,.38,2.54,5.38,5.38,0,0,1-.79,2.79,5.19,5.19,0,0,1-2.33,2,5,5,0,0,1,1.55.81,4.53,4.53,0,0,1,1.07,1.19,5.34,5.34,0,0,1,.63,1.49,6.89,6.89,0,0,1,.21,1.7,7.41,7.41,0,0,1-.42,2.6,5.63,5.63,0,0,1-1.18,1.93,4.91,4.91,0,0,1-1.78,1.2,6,6,0,0,1-2.23.41,6.18,6.18,0,0,1-2.16-.38,5.5,5.5,0,0,1-1.86-1.15,5.58,5.58,0,0,1-1.31-1.92,6.79,6.79,0,0,1-.49-2.69h1.5a5.34,5.34,0,0,0,.32,1.88,4.33,4.33,0,0,0,.89,1.47,4,4,0,0,0,1.37,1,4.37,4.37,0,0,0,1.75.34,3.9,3.9,0,0,0,3-1.18,4.86,4.86,0,0,0,1.08-3.41,5.5,5.5,0,0,0-.33-2,3.57,3.57,0,0,0-.94-1.38,3.77,3.77,0,0,0-1.45-.79,6.56,6.56,0,0,0-1.87-.25h-1.53v-1.51Z" transform="translate(-4832.05 -1063.46)"/><path class="cls-2" d="M5614.41,1084.86a19.7,19.7,0,0,1-.38,4.11,9.06,9.06,0,0,1-1.09,2.89,4.71,4.71,0,0,1-1.75,1.71,5.23,5.23,0,0,1-4.72,0,4.8,4.8,0,0,1-1.76-1.71,9.08,9.08,0,0,1-1.11-2.89,19.12,19.12,0,0,1-.39-4.11v-3.64a19.3,19.3,0,0,1,.38-4.1,8.89,8.89,0,0,1,1.1-2.87,4.73,4.73,0,0,1,1.76-1.69,5.28,5.28,0,0,1,4.71,0,4.72,4.72,0,0,1,1.76,1.69,8.91,8.91,0,0,1,1.1,2.87,19.36,19.36,0,0,1,.38,4.1v3.64Zm-1.5-3.86a12.1,12.1,0,0,0-1-5.59,3.45,3.45,0,0,0-6.16,0,12,12,0,0,0-1,5.59v4.05a17.83,17.83,0,0,0,.26,3.23,8.25,8.25,0,0,0,.78,2.38,3.88,3.88,0,0,0,1.29,1.47,3.44,3.44,0,0,0,3.58,0,3.81,3.81,0,0,0,1.28-1.47,8.24,8.24,0,0,0,.76-2.38,18.64,18.64,0,0,0,.25-3.23V1081Z" transform="translate(-4832.05 -1063.46)"/><path class="cls-2" d="M5594.21,1322.72h-1.54l-10.47-18.42v18.42h-1.55v-21.53h1.55l10.48,18.44v-18.44h1.53v21.53Z" transform="translate(-4832.05 -1063.46)"/><path class="cls-2" d="M5597.66,1314.48a11.46,11.46,0,0,1,.43-3.22,8.09,8.09,0,0,1,1.22-2.55,5.78,5.78,0,0,1,1.9-1.68,5.09,5.09,0,0,1,2.48-.61,5.18,5.18,0,0,1,2.51.61,5.75,5.75,0,0,1,1.91,1.68,8,8,0,0,1,1.21,2.55,11.61,11.61,0,0,1,.43,3.22V1315a11.6,11.6,0,0,1-.43,3.22,8,8,0,0,1-1.21,2.55,5.69,5.69,0,0,1-1.9,1.67,5.47,5.47,0,0,1-5,0,5.74,5.74,0,0,1-1.91-1.67,8,8,0,0,1-1.23-2.55,11.45,11.45,0,0,1-.43-3.22v-0.49Zm1.5,0.49a10.21,10.21,0,0,0,.3,2.51,7,7,0,0,0,.88,2.08,4.59,4.59,0,0,0,1.43,1.43,3.83,3.83,0,0,0,3.9,0,4.6,4.6,0,0,0,1.42-1.43,7,7,0,0,0,.88-2.08,10.21,10.21,0,0,0,.3-2.51v-0.49a10.08,10.08,0,0,0-.3-2.48,7.08,7.08,0,0,0-.88-2.09,4.6,4.6,0,0,0-1.43-1.44,3.6,3.6,0,0,0-2-.54,3.51,3.51,0,0,0-1.93.54,4.67,4.67,0,0,0-1.42,1.44,7.08,7.08,0,0,0-.88,2.09,10.08,10.08,0,0,0-.3,2.48V1315Z" transform="translate(-4832.05 -1063.46)"/><path class="cls-2" d="M5616.86,1320.28l4.12-13.56h1.54l-5.05,16h-1.21l-5.08-16h1.54Z" transform="translate(-4832.05 -1063.46)"/><rect class="cls-1" x="827.63" y="63.97" width="33.8" height="140.04" rx="7" ry="7"/><path class="cls-2" d="M5670.59,1118.78h-1.5v-19.4l-5,2.17v-1.66l6.21-2.72h0.25v21.6Z" transform="translate(-4832.05 -1063.46)"/><path class="cls-2" d="M5688.55,1102.8a5.81,5.81,0,0,1-.22,1.62,5.4,5.4,0,0,1-.61,1.39,5.29,5.29,0,0,1-.94,1.12,4.86,4.86,0,0,1-1.23.81,5.45,5.45,0,0,1,1.41.83,5.5,5.5,0,0,1,1.1,1.21,5.57,5.57,0,0,1,.71,1.52,6.18,6.18,0,0,1,.25,1.78,6.94,6.94,0,0,1-.45,2.6,5.29,5.29,0,0,1-1.23,1.88,5.13,5.13,0,0,1-1.84,1.14,6.57,6.57,0,0,1-2.27.38,6.65,6.65,0,0,1-2.29-.38,5.14,5.14,0,0,1-1.84-1.14,5.22,5.22,0,0,1-1.23-1.88,7,7,0,0,1-.44-2.6,6.32,6.32,0,0,1,.24-1.78,5.75,5.75,0,0,1,.69-1.52,5.17,5.17,0,0,1,1.08-1.21,5.33,5.33,0,0,1,1.41-.83,4.74,4.74,0,0,1-1.22-.81,5,5,0,0,1-.93-1.12,5.5,5.5,0,0,1-.59-1.39,6,6,0,0,1-.21-1.62,7.16,7.16,0,0,1,.4-2.49,5.22,5.22,0,0,1,1.11-1.83,4.69,4.69,0,0,1,1.68-1.13,6,6,0,0,1,4.22,0,4.75,4.75,0,0,1,1.7,1.13,5.33,5.33,0,0,1,1.13,1.83A7,7,0,0,1,5688.55,1102.8Zm-1,10.29a5.15,5.15,0,0,0-.33-1.88,4.34,4.34,0,0,0-.91-1.45,4,4,0,0,0-1.37-.93,4.59,4.59,0,0,0-3.43,0,4,4,0,0,0-1.36.93,4.24,4.24,0,0,0-.89,1.45,5.81,5.81,0,0,0,0,3.8,4,4,0,0,0,.89,1.41,3.71,3.71,0,0,0,1.36.87,5,5,0,0,0,1.74.3,4.83,4.83,0,0,0,1.72-.3,3.8,3.8,0,0,0,1.36-.87,4,4,0,0,0,.89-1.41A5.36,5.36,0,0,0,5687.52,1113.09Zm-0.48-10.31a4.94,4.94,0,0,0-.29-1.74,4.27,4.27,0,0,0-.81-1.37,3.62,3.62,0,0,0-1.21-.89,3.67,3.67,0,0,0-1.53-.32,3.82,3.82,0,0,0-1.53.3,3.5,3.5,0,0,0-1.21.86,4,4,0,0,0-.79,1.36,5.31,5.31,0,0,0-.29,1.8,5.07,5.07,0,0,0,.28,1.74,3.84,3.84,0,0,0,.79,1.32,3.44,3.44,0,0,0,1.21.84,4,4,0,0,0,1.54.3,3.88,3.88,0,0,0,1.53-.3,3.51,3.51,0,0,0,1.21-.84,3.88,3.88,0,0,0,.8-1.32A5,5,0,0,0,5687,1102.78Z" transform="translate(-4832.05 -1063.46)"/><path class="cls-2" d="M5656.64,1324.33V1302.8h5.09a7,7,0,0,1,5.6,2.68,9.5,9.5,0,0,1,1.61,3.09,13.19,13.19,0,0,1,.58,4v2a13.18,13.18,0,0,1-.58,4,9.33,9.33,0,0,1-1.61,3.08,7.15,7.15,0,0,1-2.49,2,7.31,7.31,0,0,1-3.2.7h-5Zm1.54-20v18.44h3.45a5.73,5.73,0,0,0,2.64-.6,5.79,5.79,0,0,0,2-1.69,8,8,0,0,0,1.27-2.6,11.88,11.88,0,0,0,.44-3.35v-2a11.82,11.82,0,0,0-.45-3.38,7.86,7.86,0,0,0-1.27-2.58,5.76,5.76,0,0,0-2-1.65,5.59,5.59,0,0,0-2.56-.58h-3.55Z" transform="translate(-4832.05 -1063.46)"/><path class="cls-2" d="M5678.31,1324.63a5.18,5.18,0,0,1-2.44-.58,5.84,5.84,0,0,1-1.92-1.63,7.84,7.84,0,0,1-1.26-2.48,10.48,10.48,0,0,1-.45-3.15v-0.64a11.21,11.21,0,0,1,.47-3.35,8.3,8.3,0,0,1,1.27-2.56,5.88,5.88,0,0,1,1.85-1.63,4.5,4.5,0,0,1,2.21-.58,4.7,4.7,0,0,1,2.29.55,4.92,4.92,0,0,1,1.68,1.52,7.2,7.2,0,0,1,1,2.32,11.67,11.67,0,0,1,.35,2.94v1.08h-9.66v0.34a8.8,8.8,0,0,0,.34,2.48,6.61,6.61,0,0,0,1,2,4.68,4.68,0,0,0,1.46,1.35,3.68,3.68,0,0,0,1.89.5,4.25,4.25,0,0,0,2.12-.52,5,5,0,0,0,1.67-1.66l0.94,0.84a7.5,7.5,0,0,1-.78,1.09,4.8,4.8,0,0,1-1,.9,5.07,5.07,0,0,1-1.33.61A5.74,5.74,0,0,1,5678.31,1324.63Zm-0.28-15.08a3.32,3.32,0,0,0-1.58.38,4,4,0,0,0-1.28,1.09,6,6,0,0,0-.91,1.71,9.45,9.45,0,0,0-.48,2.21h8.12v-0.19a8.32,8.32,0,0,0-.28-1.94,5.59,5.59,0,0,0-.73-1.66,3.82,3.82,0,0,0-1.2-1.16A3.13,3.13,0,0,0,5678,1309.54Z" transform="translate(-4832.05 -1063.46)"/><path class="cls-2" d="M5691.31,1323.13a3.92,3.92,0,0,0,1.37-.24,3.5,3.5,0,0,0,1.17-.72,3.75,3.75,0,0,0,.84-1.17,4.25,4.25,0,0,0,.38-1.61h1.44a5.7,5.7,0,0,1-.48,2.1,5.42,5.42,0,0,1-1.14,1.66,5.2,5.2,0,0,1-1.63,1.09,5.25,5.25,0,0,1-4.45-.22,5.4,5.4,0,0,1-1.81-1.69,8,8,0,0,1-1.1-2.54,12.75,12.75,0,0,1-.37-3.14V1316a12.75,12.75,0,0,1,.37-3.14,8,8,0,0,1,1.09-2.53,5.42,5.42,0,0,1,1.81-1.69,4.92,4.92,0,0,1,2.5-.62,5.07,5.07,0,0,1,2,.4,4.81,4.81,0,0,1,1.63,1.14,5.54,5.54,0,0,1,1.11,1.8,7.2,7.2,0,0,1,.46,2.36h-1.44a5.44,5.44,0,0,0-.36-1.74,4.22,4.22,0,0,0-.81-1.32,3.45,3.45,0,0,0-1.18-.83,3.58,3.58,0,0,0-1.43-.29,3.49,3.49,0,0,0-2,.53,4.13,4.13,0,0,0-1.32,1.43,6.87,6.87,0,0,0-.74,2.07,12.52,12.52,0,0,0-.23,2.44v0.62a12.73,12.73,0,0,0,.23,2.46,6.87,6.87,0,0,0,.74,2.07,4.05,4.05,0,0,0,1.33,1.43A3.56,3.56,0,0,0,5691.31,1323.13Z" transform="translate(-4832.05 -1063.46)"/><rect class="cls-1" x="527.64" y="92.53" width="33.8" height="111.48" rx="7" ry="7"/><path class="cls-2" d="M5370.59,1148.7h-1.5v-19.4l-5,2.17v-1.65l6.21-2.72h0.25v21.6Z" transform="translate(-4832.05 -1063.46)"/><path class="cls-2" d="M5389,1128.19l-7.78,20.51h-1.56l7.73-20h-10.36v-1.51h12v1Z" transform="translate(-4832.05 -1063.46)"/><path class="cls-2" d="M5367.43,1316.69h-8.27l-1.88,6h-1.61l6.89-21.53H5364l6.89,21.53h-1.6Zm-7.79-1.55h7.31l-3.65-11.72Z" transform="translate(-4832.05 -1063.46)"/><path class="cls-2" d="M5381.82,1320.69a4.62,4.62,0,0,1-1.7,1.71,5.15,5.15,0,0,1-2.62.61,4.75,4.75,0,0,1-1.81-.33,3.5,3.5,0,0,1-1.4-1.06,5.1,5.1,0,0,1-.91-1.87,10.5,10.5,0,0,1-.32-2.79v-10.25h1.49V1317a7.77,7.77,0,0,0,.25,2.14,3.82,3.82,0,0,0,.67,1.38,2.41,2.41,0,0,0,1,.74,3.3,3.3,0,0,0,1.21.22,4.87,4.87,0,0,0,1.59-.24,3.6,3.6,0,0,0,1.19-.67,3.73,3.73,0,0,0,.83-1,5.48,5.48,0,0,0,.51-1.27v-11.58h1.5v16h-1.45Z" transform="translate(-4832.05 -1063.46)"/><path class="cls-2" d="M5386.59,1314.57a14.55,14.55,0,0,1,.36-3.36,8.37,8.37,0,0,1,1-2.57,4.94,4.94,0,0,1,1.65-1.64,4.21,4.21,0,0,1,2.2-.58,4.41,4.41,0,0,1,2.49.69A5.31,5.31,0,0,1,5396,1309l0.08-2.31h1.4v15.72a9.28,9.28,0,0,1-.39,2.79,6.13,6.13,0,0,1-1.09,2.09,4.75,4.75,0,0,1-1.71,1.32,5.32,5.32,0,0,1-2.24.46,5.23,5.23,0,0,1-1.3-.17,5.49,5.49,0,0,1-1.28-.51,5.89,5.89,0,0,1-1.17-.85,5.39,5.39,0,0,1-1-1.21l0.84-1.07a5.88,5.88,0,0,0,1.75,1.75,3.88,3.88,0,0,0,2,.55,4,4,0,0,0,1.71-.35,3.41,3.41,0,0,0,1.26-1,4.64,4.64,0,0,0,.78-1.6,7.75,7.75,0,0,0,.27-2.14v-1.86a5.07,5.07,0,0,1-1.71,1.74,4.7,4.7,0,0,1-2.48.63,4,4,0,0,1-2.18-.6,5.17,5.17,0,0,1-1.64-1.67,8.47,8.47,0,0,1-1-2.57,14.17,14.17,0,0,1-.36-3.3v-0.31Zm1.51,0.31a13.43,13.43,0,0,0,.24,2.61,7.21,7.21,0,0,0,.73,2.09,3.91,3.91,0,0,0,1.23,1.39,3.08,3.08,0,0,0,1.77.5,4.12,4.12,0,0,0,1.39-.22,3.62,3.62,0,0,0,1.09-.61,4.14,4.14,0,0,0,.83-0.92,6.29,6.29,0,0,0,.6-1.17v-7.44a6.64,6.64,0,0,0-.54-1.19,4.33,4.33,0,0,0-.8-1,3.63,3.63,0,0,0-1.09-.69,3.77,3.77,0,0,0-1.45-.26,3.11,3.11,0,0,0-1.79.51,4,4,0,0,0-1.24,1.4,7.22,7.22,0,0,0-.73,2.1,13.47,13.47,0,0,0-.24,2.6v0.31Z" transform="translate(-4832.05 -1063.46)"/></svg>