<svg id="Layer_1" data-name="Layer 1" xmlns="http://www.w3.org/2000/svg" viewBox="0 0 556.39 253.41"><defs><style>.cls-1{fill:#87d8ce;}.cls-1,.cls-3,.cls-5{opacity:0.7;}.cls-2,.cls-3{fill:#17a697;}.cls-4{fill:#636363;}</style></defs><title>overall_mood</title><rect class="cls-1" x="71.2" y="35.4" width="33.41" height="116.17" rx="7" ry="7"/><rect class="cls-2" x="71.2" y="97.5" width="33.41" height="54.07" rx="7" ry="7"/><path class="cls-3" d="M3005.22,1514.22c-10.4,0-18.83,8.85-18.83,19.79s8.42,19.79,18.83,19.79,18.86-8.85,18.86-19.79S3015.64,1514.22,3005.22,1514.22Zm0,35.62c-8.33,0-15.08-7.09-15.08-15.83s6.75-15.83,15.08-15.83,15.08,7.09,15.08,15.83S3013.57,1549.84,3005.24,1549.84Zm1.88-19.91,2,2.1,2-2.1,2,2.1,2-2.1-4-4.2Zm-7.76,0,2,2.1,2-2.1-4-4.2-4,4.2,2,2.1Zm5.88,15a10.38,10.38,0,0,0,9.63-6.93h-19.26A10.38,10.38,0,0,0,3005.24,1544.89Z" transform="translate(-2917.33 -1300.44)"/><path class="cls-4" d="M3003,1316.7a5.78,5.78,0,0,0,2.57-.52,4.42,4.42,0,0,0,1.69-1.43,6.17,6.17,0,0,0,.94-2.16,12.92,12.92,0,0,0,.32-2.71,5.5,5.5,0,0,1-.68.94,4.44,4.44,0,0,1-.85.73,3.86,3.86,0,0,1-1,.47,3.67,3.67,0,0,1-1.1.16,3.31,3.31,0,0,1-1.78-.48,4.2,4.2,0,0,1-1.3-1.28,6,6,0,0,1-.79-1.83,8.44,8.44,0,0,1-.27-2.13,8.72,8.72,0,0,1,.3-2.31,6.32,6.32,0,0,1,.86-1.9,4.26,4.26,0,0,1,1.37-1.29,3.57,3.57,0,0,1,1.84-.47,3.94,3.94,0,0,1,2,.5,4.18,4.18,0,0,1,1.43,1.41,6.82,6.82,0,0,1,.85,2.16,12.47,12.47,0,0,1,.28,2.74v1.36a21.49,21.49,0,0,1-.13,2.44,12.46,12.46,0,0,1-.45,2.21,8.45,8.45,0,0,1-.82,1.88,5.39,5.39,0,0,1-1.25,1.45,5.55,5.55,0,0,1-1.75.94,7.31,7.31,0,0,1-2.3.33h-0.26v-1.22H3003Zm2.05-5.71a3,3,0,0,0,1.24-.26,3.62,3.62,0,0,0,1-.68,4.34,4.34,0,0,0,.75-1,5.06,5.06,0,0,0,.48-1.11v-0.81a10.17,10.17,0,0,0-.25-2.37,5.41,5.41,0,0,0-.7-1.71,3.14,3.14,0,0,0-1.08-1,2.74,2.74,0,0,0-1.37-.35,2.45,2.45,0,0,0-1.35.38,3.33,3.33,0,0,0-1,1,5.1,5.1,0,0,0-.63,1.51,7.27,7.27,0,0,0-.22,1.8,7,7,0,0,0,.2,1.7,5.09,5.09,0,0,0,.59,1.46,3.22,3.22,0,0,0,1,1A2.39,2.39,0,0,0,3005.05,1311Z" transform="translate(-2917.33 -1300.44)"/><path class="cls-4" d="M2992.92,1495.09a4.17,4.17,0,0,1-1.56,1.45,6.58,6.58,0,0,1-1.47.57,7.58,7.58,0,0,1-2,.23,5,5,0,0,1-2.34-.54,5.36,5.36,0,0,1-1.83-1.56,7.57,7.57,0,0,1-1.19-2.46,11.39,11.39,0,0,1-.43-3.23v-2.07a12.07,12.07,0,0,1,.39-3.18,7.31,7.31,0,0,1,1.12-2.41,5.09,5.09,0,0,1,1.76-1.54,5,5,0,0,1,2.33-.54,5.53,5.53,0,0,1,2.12.38,4.49,4.49,0,0,1,1.57,1.06,5.13,5.13,0,0,1,1,1.6,7.38,7.38,0,0,1,.5,2h-1.22a6.67,6.67,0,0,0-.38-1.45,3.84,3.84,0,0,0-.74-1.21,3.48,3.48,0,0,0-1.17-.83,4.12,4.12,0,0,0-1.68-.31,3.72,3.72,0,0,0-1.87.46,4.06,4.06,0,0,0-1.37,1.3,6.3,6.3,0,0,0-.85,2,11.14,11.14,0,0,0-.29,2.63v2.1a10.43,10.43,0,0,0,.33,2.71,6.54,6.54,0,0,0,.93,2.07,4.33,4.33,0,0,0,1.44,1.32,3.79,3.79,0,0,0,1.87.47,6.57,6.57,0,0,0,1.47-.15,5.35,5.35,0,0,0,1.1-.37,3.54,3.54,0,0,0,.77-0.48,2.59,2.59,0,0,0,.46-0.49v-4.41h-3.88V1489h5.1v6.07Z" transform="translate(-2917.33 -1300.44)"/><path class="cls-4" d="M3001.06,1485.63a3.76,3.76,0,0,0-.8-0.08,2.71,2.71,0,0,0-1.09.21,2.68,2.68,0,0,0-.86.59,3.41,3.41,0,0,0-.62.9,5.55,5.55,0,0,0-.4,1.15v8.71h-1.18v-12.68h1.16l0,2a4.09,4.09,0,0,1,1.18-1.65,2.84,2.84,0,0,1,1.84-.6,2.21,2.21,0,0,1,.45,0,1.32,1.32,0,0,1,.34.11Z" transform="translate(-2917.33 -1300.44)"/><path class="cls-4" d="M3006.9,1497.35a4.1,4.1,0,0,1-1.93-.46,4.62,4.62,0,0,1-1.52-1.29,6.21,6.21,0,0,1-1-2,8.32,8.32,0,0,1-.36-2.5v-0.5a8.9,8.9,0,0,1,.37-2.65,6.59,6.59,0,0,1,1-2,4.66,4.66,0,0,1,1.46-1.29,3.57,3.57,0,0,1,1.75-.46,3.72,3.72,0,0,1,1.81.43,3.89,3.89,0,0,1,1.33,1.21,5.67,5.67,0,0,1,.82,1.84,9.22,9.22,0,0,1,.28,2.33v0.86h-7.65v0.27a7,7,0,0,0,.27,2,5.25,5.25,0,0,0,.75,1.6,3.72,3.72,0,0,0,1.16,1.07,2.93,2.93,0,0,0,1.5.39,3.37,3.37,0,0,0,1.68-.41,4,4,0,0,0,1.32-1.31l0.74,0.67a6,6,0,0,1-.62.87,3.86,3.86,0,0,1-.82.71,4,4,0,0,1-1.05.48A4.54,4.54,0,0,1,3006.9,1497.35Zm-0.22-12a2.63,2.63,0,0,0-1.25.3,3.19,3.19,0,0,0-1,.87,4.76,4.76,0,0,0-.72,1.35,7.44,7.44,0,0,0-.38,1.75h6.43v-0.15a6.65,6.65,0,0,0-.22-1.54,4.4,4.4,0,0,0-.58-1.32,3,3,0,0,0-.95-0.92A2.48,2.48,0,0,0,3006.68,1485.39Z" transform="translate(-2917.33 -1300.44)"/><path class="cls-4" d="M3020,1497.11a4.61,4.61,0,0,1-.15-0.8q-0.06-.47-0.07-1a4.75,4.75,0,0,1-.63.77,4.23,4.23,0,0,1-.82.63,4.51,4.51,0,0,1-1,.43,4.08,4.08,0,0,1-1.18.16,3.63,3.63,0,0,1-1.42-.27,3.12,3.12,0,0,1-1.09-.76,3.45,3.45,0,0,1-.7-1.14,4.28,4.28,0,0,1,.09-3.1,3.47,3.47,0,0,1,1-1.27,4.42,4.42,0,0,1,1.54-.8,7,7,0,0,1,2-.28h2.2v-1.44a3.06,3.06,0,0,0-.71-2.14,2.65,2.65,0,0,0-2.07-.78,3.22,3.22,0,0,0-1.15.2,2.77,2.77,0,0,0-.91.55,2.53,2.53,0,0,0-.59.81,2.33,2.33,0,0,0-.21,1h-1.19a3.37,3.37,0,0,1,.3-1.38,3.77,3.77,0,0,1,.84-1.19,4.14,4.14,0,0,1,1.3-.84,4.32,4.32,0,0,1,1.68-.32,4.62,4.62,0,0,1,1.57.26,3.3,3.3,0,0,1,1.23.77,3.53,3.53,0,0,1,.8,1.29,5.18,5.18,0,0,1,.29,1.8v6.14c0,0.22,0,.45,0,0.68s0,0.46.06,0.68,0.06,0.43.1,0.63a3.68,3.68,0,0,0,.14.52v0.14H3020Zm-3.73-1a3.55,3.55,0,0,0,2.19-.73,3.76,3.76,0,0,0,.77-0.79,4.11,4.11,0,0,0,.53-1v-2.79h-2a6.29,6.29,0,0,0-1.63.19,3.63,3.63,0,0,0-1.21.56,2.46,2.46,0,0,0-.76.88,2.57,2.57,0,0,0-.26,1.18,2.74,2.74,0,0,0,.17,1,2.32,2.32,0,0,0,.48.79,2.25,2.25,0,0,0,.76.53A2.5,2.5,0,0,0,3016.28,1496.11Z" transform="translate(-2917.33 -1300.44)"/><path class="cls-4" d="M3026,1481.19v3.25h2.22v1.15H3026V1494a4.07,4.07,0,0,0,.11,1.07,1.68,1.68,0,0,0,.31.63,0.93,0.93,0,0,0,.45.3,1.82,1.82,0,0,0,.53.08,3.17,3.17,0,0,0,.52,0l0.45-.08,0,1.15a2.35,2.35,0,0,1-.57.15,4.7,4.7,0,0,1-.7.05,2.71,2.71,0,0,1-.94-0.16,1.67,1.67,0,0,1-.74-0.54,2.81,2.81,0,0,1-.48-1,6.14,6.14,0,0,1-.17-1.59v-8.45h-2v-1.15h2v-3.25H3026Z" transform="translate(-2917.33 -1300.44)"/><path class="cls-4" d="M2917.33,1317.93v-17.06h4a5.55,5.55,0,0,1,4.44,2.12,7.5,7.5,0,0,1,1.27,2.45,10.47,10.47,0,0,1,.46,3.19v1.56a10.47,10.47,0,0,1-.46,3.19,7.39,7.39,0,0,1-1.28,2.44,5.66,5.66,0,0,1-2,1.56,5.8,5.8,0,0,1-2.54.55h-4Zm1.22-15.83v14.61h2.74a4.54,4.54,0,0,0,2.09-.47,4.6,4.6,0,0,0,1.59-1.34,6.31,6.31,0,0,0,1-2.06,9.43,9.43,0,0,0,.35-2.65v-1.59a9.37,9.37,0,0,0-.36-2.68,6.23,6.23,0,0,0-1-2,4.56,4.56,0,0,0-1.56-1.31,4.42,4.42,0,0,0-2-.46h-2.82Z" transform="translate(-2917.33 -1300.44)"/><path class="cls-4" d="M2937.12,1317.93a4.61,4.61,0,0,1-.15-0.8q-0.06-.47-0.07-1a4.75,4.75,0,0,1-.63.77,4.23,4.23,0,0,1-.82.63,4.51,4.51,0,0,1-1,.43,4.08,4.08,0,0,1-1.18.16,3.63,3.63,0,0,1-1.42-.27,3.12,3.12,0,0,1-1.09-.76,3.45,3.45,0,0,1-.7-1.14,4.28,4.28,0,0,1,.09-3.1,3.47,3.47,0,0,1,1-1.27,4.42,4.42,0,0,1,1.54-.8,7,7,0,0,1,2-.28h2.2v-1.44a3.06,3.06,0,0,0-.71-2.14,2.65,2.65,0,0,0-2.07-.78,3.22,3.22,0,0,0-1.15.2,2.77,2.77,0,0,0-.91.55,2.53,2.53,0,0,0-.59.81,2.33,2.33,0,0,0-.21,1h-1.19a3.37,3.37,0,0,1,.3-1.38,3.77,3.77,0,0,1,.84-1.19,4.14,4.14,0,0,1,1.3-.84,4.32,4.32,0,0,1,1.68-.32,4.62,4.62,0,0,1,1.57.26,3.3,3.3,0,0,1,1.23.77,3.53,3.53,0,0,1,.8,1.29,5.18,5.18,0,0,1,.29,1.8v6.14c0,0.22,0,.45,0,0.68s0,0.46.06,0.68,0.06,0.43.1,0.63a3.68,3.68,0,0,0,.14.52v0.14h-1.27Zm-3.73-1a3.55,3.55,0,0,0,2.19-.73,3.76,3.76,0,0,0,.77-0.79,4.11,4.11,0,0,0,.53-1v-2.79h-2a6.29,6.29,0,0,0-1.63.19,3.63,3.63,0,0,0-1.21.56,2.46,2.46,0,0,0-.76.88,2.57,2.57,0,0,0-.26,1.18,2.74,2.74,0,0,0,.17,1,2.32,2.32,0,0,0,.48.79,2.25,2.25,0,0,0,.76.53A2.5,2.5,0,0,0,2933.4,1316.93Z" transform="translate(-2917.33 -1300.44)"/><path class="cls-4" d="M2944.48,1315.92l3.13-10.66h1.28l-4.54,14.71q-0.14.43-.35,1a4.53,4.53,0,0,1-.56,1,3.06,3.06,0,0,1-.85.79,2.29,2.29,0,0,1-1.24.32l-0.23,0-0.26,0-0.24-.05-0.18-.05v-1.16l0.32,0,0.29,0a2.26,2.26,0,0,0,.84-0.15,1.79,1.79,0,0,0,.64-0.43,2.79,2.79,0,0,0,.48-0.72,6.75,6.75,0,0,0,.38-1l0.52-1.68-4-12.57h1.3Z" transform="translate(-2917.33 -1300.44)"/><path class="cls-4" d="M2957.15,1314.71a2.72,2.72,0,0,0-.11-0.77,1.89,1.89,0,0,0-.43-0.73,3.18,3.18,0,0,0-.87-0.64,6.45,6.45,0,0,0-1.45-.52,11,11,0,0,1-1.59-.52,4.37,4.37,0,0,1-1.18-.71,2.72,2.72,0,0,1-.73-1,3.37,3.37,0,0,1-.25-1.35,3.46,3.46,0,0,1,.26-1.34,3.2,3.2,0,0,1,.75-1.1,3.62,3.62,0,0,1,1.19-.74,4.25,4.25,0,0,1,1.57-.28,4.59,4.59,0,0,1,1.67.29,3.58,3.58,0,0,1,1.25.8,3.42,3.42,0,0,1,.78,1.2,4.11,4.11,0,0,1,.27,1.5h-1.19a2.62,2.62,0,0,0-.18-1,2.42,2.42,0,0,0-.54-0.83,2.7,2.7,0,0,0-.87-0.58,3,3,0,0,0-1.18-.22,3.15,3.15,0,0,0-1.18.2,2.37,2.37,0,0,0-.8.52,2,2,0,0,0-.46.71,2.29,2.29,0,0,0-.14.79,2.53,2.53,0,0,0,.11.77,1.53,1.53,0,0,0,.42.64,3.1,3.1,0,0,0,.87.55,10.18,10.18,0,0,0,1.46.5,10.87,10.87,0,0,1,1.68.6,4.16,4.16,0,0,1,1.17.78,2.88,2.88,0,0,1,.68,1,3.73,3.73,0,0,1,.22,1.34,3.63,3.63,0,0,1-.28,1.44,3.14,3.14,0,0,1-.79,1.11,3.66,3.66,0,0,1-1.25.72,5.36,5.36,0,0,1-3.44-.05,3.91,3.91,0,0,1-1.32-.84,3.51,3.51,0,0,1-.81-1.21,3.8,3.8,0,0,1-.27-1.42h1.19a2.76,2.76,0,0,0,.33,1.25,2.45,2.45,0,0,0,.71.8,2.81,2.81,0,0,0,.95.43,4.26,4.26,0,0,0,1,.13,3.47,3.47,0,0,0,1.19-.19,2.63,2.63,0,0,0,.87-0.5A2.1,2.1,0,0,0,2957.15,1314.71Z" transform="translate(-2917.33 -1300.44)"/><rect class="cls-1" x="184.93" y="35.45" width="33.41" height="116.17" rx="7" ry="7"/><rect class="cls-2" x="184.93" y="62.27" width="33.41" height="89.35" rx="7" ry="7"/><ellipse class="cls-3" cx="208.08" cy="229.21" rx="2.77" ry="2.9"/><ellipse class="cls-3" cx="195.18" cy="229.21" rx="2.77" ry="2.9"/><path class="cls-3" d="M3118.95,1515.13c-10.18,0-18.42,8.67-18.42,19.36s8.24,19.36,18.42,19.36,18.45-8.67,18.45-19.36S3129.14,1515.13,3118.95,1515.13Zm0,34.85c-8.15,0-14.75-6.93-14.75-15.49s6.6-15.49,14.75-15.49,14.75,6.93,14.75,15.49S3127.11,1550,3119,1550Zm0-7.74a7.31,7.31,0,0,1-6.36-3.87h-3.08a10,10,0,0,0,18.88,0h-3.08A7.31,7.31,0,0,1,3119,1542.24Z" transform="translate(-2917.33 -1300.44)"/><path class="cls-4" d="M3114.32,1317.74h-1.19v-15.37l-3.93,1.72v-1.31l4.92-2.16h0.2v17.12Z" transform="translate(-2917.33 -1300.44)"/><path class="cls-4" d="M3122.69,1308.44h1.21a3.76,3.76,0,0,0,1.46-.26,3.06,3.06,0,0,0,1.06-.71,3,3,0,0,0,.64-1.05,3.84,3.84,0,0,0,.21-1.28,5.11,5.11,0,0,0-.18-1.41,3.11,3.11,0,0,0-.55-1.1,2.52,2.52,0,0,0-.94-0.72,3.26,3.26,0,0,0-1.35-.26,3.16,3.16,0,0,0-1.26.25,2.92,2.92,0,0,0-1,.7,3.22,3.22,0,0,0-.67,1.11,4.23,4.23,0,0,0-.24,1.46h-1.19a5.28,5.28,0,0,1,.33-1.9,4.61,4.61,0,0,1,.91-1.49,4,4,0,0,1,1.38-1,4.3,4.3,0,0,1,1.73-.35,4.59,4.59,0,0,1,1.74.32,3.61,3.61,0,0,1,1.33.92,4.21,4.21,0,0,1,.85,1.48,6.2,6.2,0,0,1,.3,2,4.28,4.28,0,0,1-.62,2.21A4.11,4.11,0,0,1,3126,1309a4,4,0,0,1,1.23.64,3.58,3.58,0,0,1,.85.94,4.22,4.22,0,0,1,.5,1.18,5.44,5.44,0,0,1,.16,1.35,5.87,5.87,0,0,1-.34,2.06,4.45,4.45,0,0,1-.93,1.53,3.9,3.9,0,0,1-1.41.95,4.74,4.74,0,0,1-1.76.32,4.91,4.91,0,0,1-1.71-.3,4.3,4.3,0,0,1-2.52-2.43,5.39,5.39,0,0,1-.39-2.13h1.19a4.25,4.25,0,0,0,.25,1.49,3.44,3.44,0,0,0,.71,1.17,3.19,3.19,0,0,0,1.09.76,3.48,3.48,0,0,0,1.38.27,3.09,3.09,0,0,0,2.39-.93,3.85,3.85,0,0,0,.86-2.7,4.36,4.36,0,0,0-.26-1.59,2.82,2.82,0,0,0-.74-1.1,3,3,0,0,0-1.15-.63,5.18,5.18,0,0,0-1.48-.2h-1.21v-1.2Z" transform="translate(-2917.33 -1300.44)"/><path class="cls-4" d="M3107.32,1495.49a4.17,4.17,0,0,1-1.56,1.45,6.58,6.58,0,0,1-1.47.57,7.58,7.58,0,0,1-2,.23,5,5,0,0,1-2.34-.54,5.36,5.36,0,0,1-1.83-1.56,7.57,7.57,0,0,1-1.19-2.46,11.39,11.39,0,0,1-.43-3.23v-2.07a12.07,12.07,0,0,1,.39-3.18,7.31,7.31,0,0,1,1.12-2.41,5.09,5.09,0,0,1,1.76-1.54,5,5,0,0,1,2.33-.54,5.53,5.53,0,0,1,2.12.38,4.49,4.49,0,0,1,1.57,1.06,5.13,5.13,0,0,1,1,1.6,7.38,7.38,0,0,1,.5,2h-1.22a6.67,6.67,0,0,0-.38-1.45,3.84,3.84,0,0,0-.74-1.21,3.48,3.48,0,0,0-1.17-.83,4.12,4.12,0,0,0-1.68-.31,3.72,3.72,0,0,0-1.87.46,4.06,4.06,0,0,0-1.37,1.3,6.3,6.3,0,0,0-.85,2,11.14,11.14,0,0,0-.29,2.63v2.1a10.43,10.43,0,0,0,.33,2.71,6.54,6.54,0,0,0,.93,2.07,4.33,4.33,0,0,0,1.44,1.32,3.79,3.79,0,0,0,1.87.47,6.57,6.57,0,0,0,1.47-.15,5.35,5.35,0,0,0,1.1-.37,3.54,3.54,0,0,0,.77-0.48,2.59,2.59,0,0,0,.46-0.49v-4.41h-3.88v-1.22h5.1v6.07Z" transform="translate(-2917.33 -1300.44)"/><path class="cls-4" d="M3109.85,1491a9.07,9.07,0,0,1,.34-2.55,6.41,6.41,0,0,1,1-2,4.57,4.57,0,0,1,1.51-1.33,4,4,0,0,1,2-.48,4.11,4.11,0,0,1,2,.48,4.55,4.55,0,0,1,1.51,1.33,6.32,6.32,0,0,1,1,2,9.22,9.22,0,0,1,.34,2.55v0.39a9.22,9.22,0,0,1-.34,2.55,6.32,6.32,0,0,1-1,2,4.51,4.51,0,0,1-1.51,1.32,4.34,4.34,0,0,1-3.95,0,4.56,4.56,0,0,1-1.51-1.32,6.36,6.36,0,0,1-1-2,9.07,9.07,0,0,1-.34-2.55V1491Zm1.19,0.39a8.07,8.07,0,0,0,.24,2,5.53,5.53,0,0,0,.69,1.65,3.62,3.62,0,0,0,1.13,1.13,3,3,0,0,0,3.09,0,3.65,3.65,0,0,0,1.13-1.13,5.53,5.53,0,0,0,.69-1.65,8.07,8.07,0,0,0,.24-2V1491a8,8,0,0,0-.24-2,5.61,5.61,0,0,0-.69-1.66,3.65,3.65,0,0,0-1.14-1.14,2.85,2.85,0,0,0-1.55-.43,2.78,2.78,0,0,0-1.53.43,3.69,3.69,0,0,0-1.13,1.14,5.61,5.61,0,0,0-.69,1.66,8,8,0,0,0-.24,2v0.39Z" transform="translate(-2917.33 -1300.44)"/><path class="cls-4" d="M3121.23,1491a9.07,9.07,0,0,1,.34-2.55,6.41,6.41,0,0,1,1-2,4.57,4.57,0,0,1,1.51-1.33,4,4,0,0,1,2-.48,4.11,4.11,0,0,1,2,.48,4.55,4.55,0,0,1,1.51,1.33,6.32,6.32,0,0,1,1,2,9.22,9.22,0,0,1,.34,2.55v0.39a9.22,9.22,0,0,1-.34,2.55,6.32,6.32,0,0,1-1,2,4.51,4.51,0,0,1-1.51,1.32,4.34,4.34,0,0,1-3.95,0,4.56,4.56,0,0,1-1.51-1.32,6.36,6.36,0,0,1-1-2,9.07,9.07,0,0,1-.34-2.55V1491Zm1.19,0.39a8.07,8.07,0,0,0,.24,2,5.53,5.53,0,0,0,.69,1.65,3.62,3.62,0,0,0,1.13,1.13,3,3,0,0,0,3.09,0,3.65,3.65,0,0,0,1.13-1.13,5.53,5.53,0,0,0,.69-1.65,8.07,8.07,0,0,0,.24-2V1491a8,8,0,0,0-.24-2,5.61,5.61,0,0,0-.69-1.66,3.65,3.65,0,0,0-1.14-1.14,2.85,2.85,0,0,0-1.55-.43,2.78,2.78,0,0,0-1.53.43,3.69,3.69,0,0,0-1.13,1.14,5.61,5.61,0,0,0-.69,1.66,8,8,0,0,0-.24,2v0.39Z" transform="translate(-2917.33 -1300.44)"/><path class="cls-4" d="M3132.78,1491.06a11.38,11.38,0,0,1,.29-2.67,6.7,6.7,0,0,1,.82-2,3.91,3.91,0,0,1,1.3-1.3,3.32,3.32,0,0,1,1.73-.46,3.47,3.47,0,0,1,2,.54,4.22,4.22,0,0,1,1.35,1.49v-7.11h1.18v18h-1.11l0-1.69a4.05,4.05,0,0,1-1.36,1.41,3.72,3.72,0,0,1-2,.51,3.18,3.18,0,0,1-1.71-.47,4.08,4.08,0,0,1-1.3-1.32,6.78,6.78,0,0,1-.82-2,11.09,11.09,0,0,1-.29-2.61v-0.25Zm1.2,0.25a10.66,10.66,0,0,0,.19,2.07,5.71,5.71,0,0,0,.58,1.66,3.1,3.1,0,0,0,1,1.1,2.44,2.44,0,0,0,1.4.4,3.33,3.33,0,0,0,1.1-.17,2.92,2.92,0,0,0,.87-0.47,3.22,3.22,0,0,0,.66-0.73,5,5,0,0,0,.48-0.91v-6a6.15,6.15,0,0,0-.44-0.93,3.36,3.36,0,0,0-.63-0.79,3,3,0,0,0-.87-0.55,3,3,0,0,0-1.15-.21,2.46,2.46,0,0,0-1.42.4,3.14,3.14,0,0,0-1,1.11,5.71,5.71,0,0,0-.58,1.66,10.69,10.69,0,0,0-.19,2.06v0.25Z" transform="translate(-2917.33 -1300.44)"/><rect class="cls-1" x="293.32" y="35.22" width="33.41" height="116.17" rx="7" ry="7"/><rect class="cls-2" x="293.32" y="101.32" width="33.41" height="50.07" rx="7" ry="7"/><g class="cls-5"><path class="cls-2" d="M3221.7,1537.77H3233v3H3221.7v-3Z" transform="translate(-2917.33 -1300.44)"/><ellipse class="cls-2" cx="316.63" cy="228.42" rx="2.83" ry="2.97"/><ellipse class="cls-2" cx="303.42" cy="228.42" rx="2.83" ry="2.97"/><path class="cls-2" d="M3227.34,1514c-10.41,0-18.84,8.88-18.84,19.81s8.43,19.81,18.84,19.81,18.88-8.88,18.88-19.81S3237.77,1514,3227.34,1514Zm0,35.66c-8.34,0-15.09-7.09-15.09-15.85S3219,1518,3227.36,1518s15.09,7.09,15.09,15.85S3235.7,1549.66,3227.36,1549.66Z" transform="translate(-2917.33 -1300.44)"/></g><path class="cls-4" d="M3232.1,1301.48l-6.17,16.25h-1.24l6.13-15.87h-8.21v-1.2h9.49v0.81Z" transform="translate(-2917.33 -1300.44)"/><path class="cls-4" d="M3217.35,1489.23a12.25,12.25,0,0,1-.4,3.24,7.72,7.72,0,0,1-1.12,2.47,5.15,5.15,0,0,1-1.77,1.58,4.84,4.84,0,0,1-2.32.56,4.79,4.79,0,0,1-2.31-.56,5.3,5.3,0,0,1-1.78-1.58,7.67,7.67,0,0,1-1.15-2.47,12,12,0,0,1-.41-3.24v-1.83a12.06,12.06,0,0,1,.41-3.25,7.87,7.87,0,0,1,1.14-2.48,5.18,5.18,0,0,1,1.77-1.58,5.08,5.08,0,0,1,4.63,0,5.22,5.22,0,0,1,1.78,1.58,7.65,7.65,0,0,1,1.13,2.48,12.32,12.32,0,0,1,.4,3.25v1.83Zm-1.22-1.85a11.54,11.54,0,0,0-.3-2.73,6.5,6.5,0,0,0-.86-2.07,4,4,0,0,0-1.39-1.31,3.74,3.74,0,0,0-1.86-.46,3.67,3.67,0,0,0-1.84.46,4.1,4.1,0,0,0-1.39,1.31,6.51,6.51,0,0,0-.87,2.07,11.38,11.38,0,0,0-.3,2.73v1.85a11.22,11.22,0,0,0,.31,2.74,6.56,6.56,0,0,0,.88,2.07,4.07,4.07,0,0,0,1.39,1.31,3.7,3.7,0,0,0,1.84.46,3.77,3.77,0,0,0,1.87-.46,4,4,0,0,0,1.38-1.31,6.57,6.57,0,0,0,.85-2.07,11.76,11.76,0,0,0,.29-2.74v-1.85Z" transform="translate(-2917.33 -1300.44)"/><path class="cls-4" d="M3222.69,1490.45l-1.36,1.55v4.84h-1.19v-18h1.19v11.52l1.12-1.43,4.11-4.77h1.5l-4.55,5.34,4.95,7.34H3227Z" transform="translate(-2917.33 -1300.44)"/><path class="cls-4" d="M3236.86,1496.84a4.61,4.61,0,0,1-.15-0.8q-0.06-.47-0.07-1a4.75,4.75,0,0,1-.63.77,4.23,4.23,0,0,1-.82.63,4.51,4.51,0,0,1-1,.43,4.08,4.08,0,0,1-1.18.16,3.63,3.63,0,0,1-1.42-.27,3.12,3.12,0,0,1-1.09-.76,3.45,3.45,0,0,1-.7-1.14,4.28,4.28,0,0,1,.09-3.1,3.47,3.47,0,0,1,1-1.27,4.42,4.42,0,0,1,1.54-.8,7,7,0,0,1,2-.28h2.2V1488a3.06,3.06,0,0,0-.71-2.14,2.65,2.65,0,0,0-2.07-.78,3.22,3.22,0,0,0-1.15.2,2.77,2.77,0,0,0-.91.55,2.53,2.53,0,0,0-.59.81,2.33,2.33,0,0,0-.21,1h-1.19a3.37,3.37,0,0,1,.3-1.38,3.77,3.77,0,0,1,.84-1.19,4.14,4.14,0,0,1,1.3-.84,4.32,4.32,0,0,1,1.68-.32,4.62,4.62,0,0,1,1.57.26,3.3,3.3,0,0,1,1.23.77,3.53,3.53,0,0,1,.8,1.29,5.18,5.18,0,0,1,.29,1.8v6.14c0,0.22,0,.45,0,0.68s0,0.46.06,0.68,0.06,0.43.1,0.63a3.68,3.68,0,0,0,.14.52v0.14h-1.27Zm-3.73-1a3.55,3.55,0,0,0,2.19-.73,3.76,3.76,0,0,0,.77-0.79,4.11,4.11,0,0,0,.53-1v-2.79h-2a6.29,6.29,0,0,0-1.63.19,3.63,3.63,0,0,0-1.21.56,2.46,2.46,0,0,0-.76.88,2.57,2.57,0,0,0-.26,1.18,2.74,2.74,0,0,0,.17,1,2.32,2.32,0,0,0,.48.79,2.25,2.25,0,0,0,.76.53A2.5,2.5,0,0,0,3233.13,1495.83Z" transform="translate(-2917.33 -1300.44)"/><path class="cls-4" d="M3244.21,1494.82l3.13-10.66h1.28l-4.54,14.71q-0.14.43-.35,1a4.53,4.53,0,0,1-.56,1,3.06,3.06,0,0,1-.85.79,2.29,2.29,0,0,1-1.24.32l-0.23,0-0.26,0-0.24-.05-0.18-.05v-1.16l0.32,0,0.29,0a2.26,2.26,0,0,0,.84-0.15,1.79,1.79,0,0,0,.64-0.43,2.79,2.79,0,0,0,.48-0.72,6.75,6.75,0,0,0,.38-1l0.52-1.68-4-12.57h1.3Z" transform="translate(-2917.33 -1300.44)"/><rect class="cls-1" x="405.43" y="35.33" width="33.41" height="116.17" rx="7" ry="7"/><rect class="cls-2" x="405.43" y="127.58" width="33.41" height="23.93" rx="6.69" ry="6.69"/><ellipse class="cls-3" cx="428.72" cy="228.59" rx="2.82" ry="2.96"/><ellipse class="cls-3" cx="415.55" cy="228.59" rx="2.82" ry="2.96"/><path class="cls-3" d="M3339.45,1514.2c-10.39,0-18.8,8.86-18.8,19.77s8.41,19.77,18.8,19.77,18.84-8.86,18.84-19.77S3349.86,1514.2,3339.45,1514.2Zm0,35.58c-8.32,0-15.06-7.08-15.06-15.81s6.74-15.81,15.06-15.81,15.06,7.08,15.06,15.81S3347.79,1549.78,3339.47,1549.78Zm0-11.86a10.37,10.37,0,0,0-9.64,6.92H3333a7.31,7.31,0,0,1,13,0h3.14A10.37,10.37,0,0,0,3339.47,1537.92Z" transform="translate(-2917.33 -1300.44)"/><path class="cls-4" d="M3344.15,1317.85h-9v-1.08l4.73-6.34q0.66-.89,1.13-1.61a10.66,10.66,0,0,0,.74-1.33,6,6,0,0,0,.41-1.16,4.91,4.91,0,0,0,.12-1.08,4.86,4.86,0,0,0-.19-1.41,3.21,3.21,0,0,0-.58-1.11,2.59,2.59,0,0,0-.95-0.73,3.1,3.1,0,0,0-1.3-.26,2.94,2.94,0,0,0-2.37,1.13,3.8,3.8,0,0,0-.65,1.25,5.25,5.25,0,0,0-.23,1.58h-1.18a6.43,6.43,0,0,1,.3-2,5,5,0,0,1,.88-1.64,4.23,4.23,0,0,1,1.39-1.11,4.09,4.09,0,0,1,1.86-.41,4.73,4.73,0,0,1,1.75.31,3.57,3.57,0,0,1,1.33.9,4,4,0,0,1,.84,1.44,5.92,5.92,0,0,1,.29,1.93,5.33,5.33,0,0,1-.24,1.56,9.39,9.39,0,0,1-.63,1.56,15,15,0,0,1-.91,1.54q-0.52.76-1.06,1.5l-4,5.38h7.58v1.18Z" transform="translate(-2917.33 -1300.44)"/><path class="cls-4" d="M3320.78,1490v6.95h-1.22v-17.06h4.92a5.45,5.45,0,0,1,2.1.38,4.19,4.19,0,0,1,1.52,1,4.43,4.43,0,0,1,.93,1.61,6.5,6.5,0,0,1,.31,2.06,6.64,6.64,0,0,1-.31,2.12,4.2,4.2,0,0,1-.92,1.58,4,4,0,0,1-1.52,1,6,6,0,0,1-2.1.34h-3.7Zm0-1.22h3.7a4.32,4.32,0,0,0,1.66-.29,2.93,2.93,0,0,0,1.13-.8,3.3,3.3,0,0,0,.64-1.2,5.14,5.14,0,0,0,.21-1.49,5.28,5.28,0,0,0-.21-1.49,3.52,3.52,0,0,0-.64-1.24,3,3,0,0,0-1.13-.84,4,4,0,0,0-1.66-.31h-3.7v7.66Z" transform="translate(-2917.33 -1300.44)"/><path class="cls-4" d="M3331,1490.4a9.07,9.07,0,0,1,.34-2.55,6.41,6.41,0,0,1,1-2,4.57,4.57,0,0,1,1.51-1.33,4,4,0,0,1,2-.48,4.11,4.11,0,0,1,2,.48,4.55,4.55,0,0,1,1.51,1.33,6.32,6.32,0,0,1,1,2,9.22,9.22,0,0,1,.34,2.55v0.39a9.22,9.22,0,0,1-.34,2.55,6.32,6.32,0,0,1-1,2,4.51,4.51,0,0,1-1.51,1.32,4.34,4.34,0,0,1-3.95,0,4.56,4.56,0,0,1-1.51-1.32,6.36,6.36,0,0,1-1-2,9.07,9.07,0,0,1-.34-2.55v-0.39Zm1.19,0.39a8.07,8.07,0,0,0,.24,2,5.53,5.53,0,0,0,.69,1.65,3.62,3.62,0,0,0,1.13,1.13,3,3,0,0,0,3.09,0,3.65,3.65,0,0,0,1.13-1.13,5.53,5.53,0,0,0,.69-1.65,8.07,8.07,0,0,0,.24-2v-0.39a8,8,0,0,0-.24-2,5.61,5.61,0,0,0-.69-1.66,3.65,3.65,0,0,0-1.14-1.14,2.85,2.85,0,0,0-1.55-.43,2.78,2.78,0,0,0-1.53.43,3.69,3.69,0,0,0-1.13,1.14,5.61,5.61,0,0,0-.69,1.66,8,8,0,0,0-.24,2v0.39Z" transform="translate(-2917.33 -1300.44)"/><path class="cls-4" d="M3342.37,1490.4a9.07,9.07,0,0,1,.34-2.55,6.41,6.41,0,0,1,1-2,4.57,4.57,0,0,1,1.51-1.33,4,4,0,0,1,2-.48,4.11,4.11,0,0,1,2,.48,4.55,4.55,0,0,1,1.51,1.33,6.32,6.32,0,0,1,1,2,9.22,9.22,0,0,1,.34,2.55v0.39a9.22,9.22,0,0,1-.34,2.55,6.32,6.32,0,0,1-1,2,4.51,4.51,0,0,1-1.51,1.32,4.34,4.34,0,0,1-3.95,0,4.56,4.56,0,0,1-1.51-1.32,6.36,6.36,0,0,1-1-2,9.07,9.07,0,0,1-.34-2.55v-0.39Zm1.19,0.39a8.07,8.07,0,0,0,.24,2,5.53,5.53,0,0,0,.69,1.65,3.62,3.62,0,0,0,1.13,1.13,3,3,0,0,0,3.09,0,3.65,3.65,0,0,0,1.13-1.13,5.53,5.53,0,0,0,.69-1.65,8.07,8.07,0,0,0,.24-2v-0.39a8,8,0,0,0-.24-2,5.61,5.61,0,0,0-.69-1.66,3.65,3.65,0,0,0-1.14-1.14,2.85,2.85,0,0,0-1.55-.43,2.78,2.78,0,0,0-1.53.43,3.69,3.69,0,0,0-1.13,1.14,5.61,5.61,0,0,0-.69,1.66,8,8,0,0,0-.24,2v0.39Z" transform="translate(-2917.33 -1300.44)"/><path class="cls-4" d="M3359.35,1485.45a3.76,3.76,0,0,0-.8-0.08,2.71,2.71,0,0,0-1.09.21,2.68,2.68,0,0,0-.86.59,3.41,3.41,0,0,0-.62.9,5.55,5.55,0,0,0-.4,1.15v8.71h-1.18v-12.68h1.16l0,2a4.09,4.09,0,0,1,1.18-1.65,2.84,2.84,0,0,1,1.84-.6,2.21,2.21,0,0,1,.45,0,1.32,1.32,0,0,1,.34.11Z" transform="translate(-2917.33 -1300.44)"/><rect class="cls-1" x="515.63" y="35.45" width="33.41" height="116.17" rx="7" ry="7"/><g class="cls-5"><path class="cls-2" d="M3449.65,1514.91c-10.23,0-18.52,8.7-18.52,19.47s8.29,19.47,18.52,19.47,18.56-8.7,18.56-19.47S3459.9,1514.91,3449.65,1514.91Zm0,35.05c-8.2,0-14.83-7-14.83-15.58s6.64-15.58,14.83-15.58,14.83,7,14.83,15.58S3457.86,1550,3449.66,1550Zm7.75-23.83-2,2.06-2-2.06-2,2.06,2,2.06-2,2.06,2,2.06,2-2.06,2,2.06,2-2.06-2-2.06,2-2.06Zm-15.5,8.26,2-2.06,2,2.06,2-2.06-2-2.06,2-2.06-2-2.06-2,2.06-2-2.06-2,2.06,2,2.06-2,2.06Zm7.75,3.89a10.22,10.22,0,0,0-9.47,6.82h18.95A10.22,10.22,0,0,0,3449.66,1538.27Z" transform="translate(-2917.33 -1300.44)"/></g><path class="cls-4" d="M3454.1,1310.62a15.66,15.66,0,0,1-.3,3.26,7.18,7.18,0,0,1-.86,2.29,3.74,3.74,0,0,1-1.39,1.35,4.15,4.15,0,0,1-3.74,0,3.8,3.8,0,0,1-1.4-1.35,7.18,7.18,0,0,1-.88-2.29,15.16,15.16,0,0,1-.31-3.26v-2.88a15.29,15.29,0,0,1,.3-3.25,7,7,0,0,1,.87-2.27,3.75,3.75,0,0,1,1.39-1.34,4.18,4.18,0,0,1,3.73,0,3.74,3.74,0,0,1,1.4,1.34,7,7,0,0,1,.87,2.27,15.29,15.29,0,0,1,.3,3.25v2.88Zm-1.19-3.06a9.58,9.58,0,0,0-.81-4.43,2.74,2.74,0,0,0-4.88,0,9.54,9.54,0,0,0-.81,4.43v3.21a14.11,14.11,0,0,0,.21,2.56,6.51,6.51,0,0,0,.62,1.89,3.08,3.08,0,0,0,1,1.17,2.73,2.73,0,0,0,2.84,0,3,3,0,0,0,1-1.17,6.56,6.56,0,0,0,.6-1.89,14.83,14.83,0,0,0,.2-2.56v-3.21Z" transform="translate(-2917.33 -1300.44)"/><path class="cls-4" d="M3434.93,1492.86h-6.55l-1.49,4.78h-1.28l5.46-17.06h1.16l5.46,17.06h-1.27Zm-6.18-1.23h5.79l-2.89-9.29Z" transform="translate(-2917.33 -1300.44)"/><path class="cls-4" d="M3441.78,1494.72l0.18,1.09,0.24-1.15,2.58-9.7h1l2.55,9.62,0.28,1.34,0.23-1.23,2.2-9.73h1.23l-3.12,12.68h-1l-2.76-10.05-0.13-.69-0.13.7-2.71,10h-1l-3.11-12.68h1.22Z" transform="translate(-2917.33 -1300.44)"/><path class="cls-4" d="M3455.37,1497.64v-11.53h-1.77V1485h1.77v-1.57a6.13,6.13,0,0,1,.22-1.71,3.5,3.5,0,0,1,.63-1.25,2.71,2.71,0,0,1,1-.77,3.2,3.2,0,0,1,1.33-.26,4.37,4.37,0,0,1,.63,0,3.48,3.48,0,0,1,.63.15l-0.09,1.17a3.68,3.68,0,0,0-.5-0.11,4.26,4.26,0,0,0-.58,0,1.8,1.8,0,0,0-1.53.72,3.33,3.33,0,0,0-.55,2V1485h2.56v1.15h-2.56v11.53h-1.19Z" transform="translate(-2917.33 -1300.44)"/><path class="cls-4" d="M3468.14,1496a3.67,3.67,0,0,1-1.34,1.35,4.08,4.08,0,0,1-2.08.49,3.77,3.77,0,0,1-1.44-.26,2.76,2.76,0,0,1-1.11-.84,4.06,4.06,0,0,1-.72-1.48,8.32,8.32,0,0,1-.25-2.21V1485h1.18v8.14a6.18,6.18,0,0,0,.2,1.7,3,3,0,0,0,.54,1.09,1.91,1.91,0,0,0,.79.59,2.61,2.61,0,0,0,1,.18,3.87,3.87,0,0,0,1.26-.19,2.85,2.85,0,0,0,.94-0.53,2.94,2.94,0,0,0,.65-0.8,4.37,4.37,0,0,0,.41-1V1485h1.19v12.68h-1.15Z" transform="translate(-2917.33 -1300.44)"/><path class="cls-4" d="M3473.72,1497.64h-1.19v-18h1.19v18Z" transform="translate(-2917.33 -1300.44)"/></svg>