<svg id="Layer_1" data-name="Layer 1" xmlns="http://www.w3.org/2000/svg" viewBox="0 0 566.53 254.73"><defs><style>.cls-1{fill:#87d8ce;}.cls-1,.cls-4,.cls-6{opacity:0.7;}.cls-2,.cls-4{fill:#17a697;}.cls-3{font-size:24.16px;}.cls-3,.cls-5{fill:#a3a7a8;font-family:Roboto;}.cls-5{font-size:24px;}</style></defs><title>overall_mood_graph</title><rect class="cls-1" x="78.7" y="36.77" width="33.41" height="116.17" rx="7" ry="7"/><rect class="cls-2" x="78.7" y="98.87" width="33.41" height="54.07" rx="7" ry="7"/><text class="cls-3" transform="translate(67.29 193.46) scale(0.93 1)">G<tspan x="16.51" y="0">r</tspan><tspan x="24.41" y="0">eat</tspan></text><path class="cls-4" d="M5194,1784.08c-10.4,0-18.83,8.85-18.83,19.79s8.42,19.79,18.83,19.79,18.86-8.85,18.86-19.79S5204.39,1784.08,5194,1784.08Zm0,35.62c-8.33,0-15.08-7.09-15.08-15.83S5185.66,1788,5194,1788s15.08,7.09,15.08,15.83S5202.32,1819.71,5194,1819.71Zm1.88-19.91,2,2.1,2-2.1,2,2.1,2-2.1-4-4.2Zm-7.76,0,2,2.1,2-2.1-4-4.2-4,4.2,2,2.1Zm5.88,15a10.38,10.38,0,0,0,9.63-6.93h-19.26A10.38,10.38,0,0,0,5194,1814.76Z" transform="translate(-5098.58 -1568.94)"/><text class="cls-5" transform="translate(86.71 22.56) scale(0.93 1)">9</text><rect class="cls-1" x="189.06" y="31.28" width="33.41" height="116.17" rx="7" ry="7"/><rect class="cls-2" x="189.06" y="58.1" width="33.41" height="89.35" rx="7" ry="7"/><text class="cls-3" transform="translate(177.83 187.7) scale(0.93 1)">Good</text><ellipse class="cls-4" cx="212.21" cy="224.6" rx="2.77" ry="2.9"/><ellipse class="cls-4" cx="199.31" cy="224.6" rx="2.77" ry="2.9"/><path class="cls-4" d="M5304.32,1779c-10.18,0-18.42,8.67-18.42,19.36s8.24,19.36,18.42,19.36,18.45-8.67,18.45-19.36S5314.52,1779,5304.32,1779Zm0,34.85c-8.15,0-14.75-6.93-14.75-15.49s6.6-15.49,14.75-15.49,14.75,6.93,14.75,15.49S5312.49,1813.86,5304.34,1813.86Zm0-7.74a7.31,7.31,0,0,1-6.36-3.87h-3.08a10,10,0,0,0,18.88,0h-3.08A7.31,7.31,0,0,1,5304.34,1806.12Z" transform="translate(-5098.58 -1568.94)"/><text class="cls-5" transform="translate(187.99 21.67) scale(0.93 1)">15 </text><rect class="cls-1" x="299.41" y="31.28" width="33.41" height="116.17" rx="7" ry="7"/><rect class="cls-2" x="299.41" y="97.38" width="33.41" height="50.07" rx="7" ry="7"/><text class="cls-3" transform="translate(291.58 187.59) scale(0.93 1)">Ok<tspan x="28.18" y="0">a</tspan><tspan x="40.94" y="0">y</tspan></text><g class="cls-6"><path class="cls-2" d="M5409,1802.33h11.32v3H5409v-3Z" transform="translate(-5098.58 -1568.94)"/><ellipse class="cls-2" cx="322.72" cy="224.48" rx="2.83" ry="2.97"/><ellipse class="cls-2" cx="309.51" cy="224.48" rx="2.83" ry="2.97"/><path class="cls-2" d="M5414.67,1778.55c-10.41,0-18.84,8.88-18.84,19.81s8.43,19.81,18.84,19.81,18.88-8.88,18.88-19.81S5425.11,1778.55,5414.67,1778.55Zm0,35.66c-8.34,0-15.09-7.09-15.09-15.85s6.75-15.85,15.09-15.85,15.09,7.09,15.09,15.85S5423,1814.21,5414.69,1814.21Z" transform="translate(-5098.58 -1568.94)"/></g><text class="cls-5" transform="translate(307.3 23.68) scale(0.93 1)">7 </text><rect class="cls-1" x="409.76" y="31.28" width="33.41" height="116.17" rx="7" ry="7"/><rect class="cls-2" x="409.76" y="123.52" width="33.41" height="23.93" rx="6.69" ry="6.69"/><text class="cls-3" transform="translate(402.21 188.19) scale(0.93 1)">P<tspan x="14.72" y="0">oor</tspan></text><ellipse class="cls-4" cx="433.05" cy="224.5" rx="2.82" ry="2.96"/><ellipse class="cls-4" cx="419.88" cy="224.5" rx="2.82" ry="2.96"/><path class="cls-4" d="M5525,1778.61c-10.39,0-18.8,8.86-18.8,19.77s8.41,19.77,18.8,19.77,18.84-8.86,18.84-19.77S5535.44,1778.61,5525,1778.61Zm0,35.58c-8.32,0-15.06-7.08-15.06-15.81s6.74-15.81,15.06-15.81,15.06,7.08,15.06,15.81S5533.36,1814.19,5525,1814.19Zm0-11.86a10.37,10.37,0,0,0-9.64,6.92h3.14a7.31,7.31,0,0,1,13,0h3.14A10.37,10.37,0,0,0,5525,1802.33Z" transform="translate(-5098.58 -1568.94)"/><text class="cls-5" transform="translate(418.54 20.53) scale(0.93 1)">2 </text><rect class="cls-1" x="520.11" y="31.59" width="33.41" height="116.17" rx="7" ry="7"/><text class="cls-3" transform="translate(507.1 188.6) scale(0.93 1)">A<tspan x="14.7" y="0">wful</tspan></text><g class="cls-6"><path class="cls-2" d="M5635.38,1779.22c-10.23,0-18.52,8.7-18.52,19.47s8.29,19.47,18.52,19.47,18.56-8.7,18.56-19.47S5645.63,1779.22,5635.38,1779.22Zm0,35.05c-8.2,0-14.83-7-14.83-15.58s6.64-15.58,14.83-15.58,14.83,7,14.83,15.58S5643.59,1814.27,5635.4,1814.27Zm7.75-23.83-2,2.06-2-2.06-2,2.06,2,2.06-2,2.06,2,2.06,2-2.06,2,2.06,2-2.06-2-2.06,2-2.06Zm-15.5,8.26,2-2.06,2,2.06,2-2.06-2-2.06,2-2.06-2-2.06-2,2.06-2-2.06-2,2.06,2,2.06-2,2.06Zm7.75,3.89a10.22,10.22,0,0,0-9.47,6.82h18.95A10.22,10.22,0,0,0,5635.4,1802.58Z" transform="translate(-5098.58 -1568.94)"/></g><text class="cls-5" transform="translate(527.71 21.96) scale(0.93 1)">0 </text><text class="cls-5" transform="translate(0 23.12) scale(0.93 1)">D<tspan x="15.71" y="0">a</tspan><tspan x="28.4" y="0">ys</tspan></text></svg>