<svg id="Layer_1" data-name="Layer 1" xmlns="http://www.w3.org/2000/svg" viewBox="0 0 64.93 64.93"><defs><style>.cls-1{fill:#354458;}</style></defs><title>poor</title><circle class="cls-1" cx="43.82" cy="24.35" r="4.87"/><circle class="cls-1" cx="21.1" cy="24.35" r="4.87"/><path class="cls-1" d="M6375.28,3177.1a32.46,32.46,0,1,0,32.5,32.46A32.45,32.45,0,0,0,6375.28,3177.1Zm0,58.43a26,26,0,1,1,26-26A26,26,0,0,1,6375.32,3235.53Zm0-19.48a17.84,17.84,0,0,0-16.62,11.36h5.42a12.91,12.91,0,0,1,22.4,0h5.42A17.84,17.84,0,0,0,6375.32,3216.05Z" transform="translate(-6342.85 -3177.1)"/></svg>