<svg id="Layer_1" data-name="Layer 1" xmlns="http://www.w3.org/2000/svg" viewBox="0 0 26.44 45.46"><defs><style>.cls-1{fill:#17a697;}.cls-2{fill:#fff;}</style></defs><title>begreatful_icons</title><path class="cls-1" d="M0.09,14L0,43.45a2,2,0,0,0,2,2l22.25,0.07a2,2,0,0,0,2-2l0.09-29.46a2,2,0,0,0-.15-0.78L21.33,1.46A2,2,0,0,0,19.47.21L7,0.17A2,2,0,0,0,5.1,1.42L0.24,13.21A2,2,0,0,0,.09,14Z"/><circle class="cls-2" cx="13.09" cy="8.25" r="3.39" transform="translate(4.8 21.31) rotate(-89.82)"/></svg>