<svg id="Layer_1" data-name="Layer 1" xmlns="http://www.w3.org/2000/svg" viewBox="0 0 52.15 73.86"><defs><style>.cls-1{fill:#18a798;}.cls-2{fill:#fff;}</style></defs><title>tag_icon</title><path class="cls-1" d="M505.66,1053l-14,42.43a3,3,0,0,0,1.94,3.83l32.06,10.59a3,3,0,0,0,3.83-1.94l14-42.45a3,3,0,0,0,.15-1.2L542.21,1045a3,3,0,0,0-2.09-2.68l-18-5.93a3,3,0,0,0-3.33.91L506.25,1052A3,3,0,0,0,505.66,1053Z" transform="translate(-491.5 -1036.18)"/><circle class="cls-2" cx="527.12" cy="1050.88" r="5.14" transform="translate(-1127.54 185.69) rotate(-71.72)"/></svg>