<svg id="Layer_1" data-name="Layer 1" xmlns="http://www.w3.org/2000/svg" xmlns:xlink="http://www.w3.org/1999/xlink" viewBox="0 0 858.88 312.77"><defs><style>.cls-1,.cls-2,.cls-3,.cls-5{fill:none;stroke-miterlimit:10;}.cls-1,.cls-2,.cls-5{stroke:#87d8ce;}.cls-1{opacity:0.7;}.cls-2,.cls-3{stroke-width:3px;}.cls-3{stroke:#17a697;}.cls-4{fill:#17a697;}.cls-6{fill:url(#linear-gradient);}.cls-7{fill:#636363;}</style><linearGradient id="linear-gradient" x1="452.31" y1="43.41" x2="463.33" y2="43.41" gradientUnits="userSpaceOnUse"><stop offset="0" stop-color="#fff"/><stop offset="0" stop-color="#a8dcdc"/><stop offset="0" stop-color="#30acac"/><stop offset="0" stop-color="#099"/><stop offset="0.03" stop-color="#019999"/><stop offset="1" stop-color="#17a697"/><stop offset="1" stop-color="#16a699"/><stop offset="1" stop-color="#0eabaf"/><stop offset="1" stop-color="#08afc0"/><stop offset="1" stop-color="#03b1cb"/><stop offset="1" stop-color="#01b3d2"/><stop offset="1" stop-color="#00b3d4"/><stop offset="1" stop-color="#00b1d2"/><stop offset="1" stop-color="#00accb"/><stop offset="1" stop-color="#00a2c0"/><stop offset="1" stop-color="#0093af"/><stop offset="1" stop-color="#008199"/><stop offset="1" stop-color="#006a7d"/><stop offset="1" stop-color="#004f5d"/><stop offset="1" stop-color="#002f37"/><stop offset="1" stop-color="#000c0e"/><stop offset="1"/></linearGradient></defs><title>weekly_mood_graph</title><line class="cls-1" x1="15.28" y1="40.21" x2="15.28" y2="267.28"/><line class="cls-1" x1="79.15" y1="42.43" x2="79.15" y2="269.5"/><line class="cls-1" x1="143.02" y1="40.95" x2="143.02" y2="268.02"/><line class="cls-1" x1="206.89" y1="42.43" x2="206.89" y2="269.5"/><line class="cls-1" x1="270.75" y1="40.95" x2="270.75" y2="268.02"/><line class="cls-1" x1="334.62" y1="42.43" x2="334.62" y2="269.5"/><line class="cls-1" x1="398.49" y1="40.95" x2="398.49" y2="268.02"/><line class="cls-1" x1="457.82" y1="41.75" x2="457.82" y2="268.82"/><line class="cls-1" x1="521.69" y1="43.97" x2="521.69" y2="271.05"/><line class="cls-1" x1="585.56" y1="42.49" x2="585.56" y2="269.57"/><line class="cls-1" x1="649.43" y1="271.05" x2="649.43" y2="43.97"/><line class="cls-1" x1="713.29" y1="42.49" x2="713.29" y2="269.57"/><line class="cls-1" x1="777.16" y1="271.05" x2="777.16" y2="43.97"/><line class="cls-1" x1="841.03" y1="42.49" x2="841.03" y2="269.57"/><path class="cls-2" d="M1833.16,1357.43" transform="translate(-1817.88 -1250.18)"/><polyline class="cls-3" points="15.29 104.42 79.15 153.81 143.02 44.34 207.11 106.17 270.75 204.23 334.62 44.78 398.49 114.25"/><ellipse class="cls-4" cx="15.28" cy="104.42" rx="5.51" ry="5.54"/><ellipse class="cls-4" cx="79.15" cy="153.01" rx="5.51" ry="5.54"/><ellipse class="cls-4" cx="143.02" cy="44.35" rx="5.51" ry="5.54"/><ellipse class="cls-4" cx="207.11" cy="106.17" rx="5.51" ry="5.54"/><ellipse class="cls-4" cx="270.75" cy="204.23" rx="5.51" ry="5.54"/><ellipse class="cls-4" cx="334.41" cy="44.78" rx="5.51" ry="5.54"/><path class="cls-5" d="M2222.43,1364.42" transform="translate(-1817.88 -1250.18)"/><line class="cls-3" x1="398.49" y1="114.25" x2="457.82" y2="43.41"/><line class="cls-3" x1="585.56" y1="158.54" x2="649.43" y2="111.71"/><line class="cls-3" x1="649.69" y1="111.51" x2="713.29" y2="43.23"/><line class="cls-3" x1="713.29" y1="43.23" x2="777.16" y2="44.23"/><line class="cls-3" x1="777.16" y1="44.23" x2="841.03" y2="107.26"/><ellipse class="cls-4" cx="585.56" cy="158.54" rx="5.51" ry="5.54"/><ellipse class="cls-4" cx="649.69" cy="111.51" rx="5.51" ry="5.54"/><ellipse class="cls-4" cx="713.29" cy="43.23" rx="5.51" ry="5.54"/><ellipse class="cls-4" cx="777.16" cy="44.23" rx="5.51" ry="5.54"/><ellipse class="cls-4" cx="841.03" cy="107.26" rx="5.51" ry="5.54"/><line class="cls-3" x1="457.82" y1="43.41" x2="521.69" y2="113.04"/><line class="cls-3" x1="521.69" y1="113.04" x2="585.56" y2="158.54"/><ellipse class="cls-4" cx="398.49" cy="114.25" rx="5.51" ry="5.54"/><ellipse class="cls-6" cx="457.82" cy="43.41" rx="5.51" ry="5.54"/><ellipse class="cls-4" cx="521.69" cy="113.04" rx="5.51" ry="5.54"/><path class="cls-7" d="M1831.83,1557.2a3.75,3.75,0,0,0-.19-1.26,2.63,2.63,0,0,0-.66-1,4.78,4.78,0,0,0-1.22-.83,14.89,14.89,0,0,0-1.9-.75,15.8,15.8,0,0,1-2-.8,6,6,0,0,1-1.49-1,4.09,4.09,0,0,1-.95-1.33,4.33,4.33,0,0,1-.33-1.77,4.42,4.42,0,0,1,.36-1.8,4.06,4.06,0,0,1,1-1.4,4.66,4.66,0,0,1,1.55-.91,5.76,5.76,0,0,1,2-.32,5.15,5.15,0,0,1,2.07.4,4.66,4.66,0,0,1,1.57,1.1,4.86,4.86,0,0,1,1,1.63,5.67,5.67,0,0,1,.35,2h-1.24a4.67,4.67,0,0,0-.25-1.55,3.49,3.49,0,0,0-.73-1.23,3.36,3.36,0,0,0-1.18-.81,4.08,4.08,0,0,0-1.6-.29,4.54,4.54,0,0,0-1.58.25,3.29,3.29,0,0,0-1.14.68,2.85,2.85,0,0,0-.69,1,3.36,3.36,0,0,0,0,2.36,2.61,2.61,0,0,0,.65,1,5.06,5.06,0,0,0,1.21.83,11.91,11.91,0,0,0,1.85.73,15.2,15.2,0,0,1,2,.83,5.92,5.92,0,0,1,1.52,1.06,4.09,4.09,0,0,1,.94,1.4,4.85,4.85,0,0,1,.32,1.83,4.54,4.54,0,0,1-.37,1.88,4,4,0,0,1-1,1.41,4.61,4.61,0,0,1-1.58.88,6.28,6.28,0,0,1-2,.31,6.71,6.71,0,0,1-1.3-.13,6.08,6.08,0,0,1-1.26-.4,5.18,5.18,0,0,1-1.13-.68,4.26,4.26,0,0,1-.91-1,4.88,4.88,0,0,1-.61-1.31,5.63,5.63,0,0,1-.22-1.65h1.23a4,4,0,0,0,.38,1.83,3.46,3.46,0,0,0,1,1.21,3.88,3.88,0,0,0,1.35.67,5.61,5.61,0,0,0,1.5.21,4.88,4.88,0,0,0,1.54-.23,3.48,3.48,0,0,0,1.19-.66,2.86,2.86,0,0,0,.76-1A3.23,3.23,0,0,0,1831.83,1557.2Z" transform="translate(-1817.88 -1250.18)"/><path class="cls-7" d="M1842.38,1559.81a3.69,3.69,0,0,1-1.35,1.36,4.11,4.11,0,0,1-2.09.49,3.79,3.79,0,0,1-1.45-.27,2.78,2.78,0,0,1-1.12-.84,4.07,4.07,0,0,1-.72-1.49,8.4,8.4,0,0,1-.25-2.22v-8.18h1.19v8.2a6.2,6.2,0,0,0,.2,1.71,3.07,3.07,0,0,0,.54,1.1,1.93,1.93,0,0,0,.79.59,2.63,2.63,0,0,0,1,.18,3.89,3.89,0,0,0,1.27-.19,2.87,2.87,0,0,0,.95-0.53,3,3,0,0,0,.66-0.8,4.35,4.35,0,0,0,.41-1v-9.24h1.2v12.76h-1.16Z" transform="translate(-1817.88 -1250.18)"/><path class="cls-7" d="M1891.65,1544.25l5.36,15.16,5.38-15.16H1904v17.18h-1.23v-7.5l0.1-7.64-5.41,15.15h-0.95l-5.39-15.09,0.1,7.58v7.5H1890v-17.18h1.63Z" transform="translate(-1817.88 -1250.18)"/><path class="cls-7" d="M1966.48,1547h-5v15.94h-1.23V1547h-5v-1.24h11.18V1547Z" transform="translate(-1817.88 -1250.18)"/><path class="cls-7" d="M2020.3,1556.79l0.45,2.67,0.55-2.55,3.15-12.66h1.11l3.11,12.66,0.54,2.57,0.48-2.69,2.63-12.54h1.26l-3.72,17.18h-1.18l-3.29-13.44-0.37-1.7-0.36,1.7-3.37,13.44h-1.18l-3.71-17.18h1.26Z" transform="translate(-1817.88 -1250.18)"/><path class="cls-7" d="M2089.11,1546h-5v15.94h-1.23V1546h-5v-1.24h11.18V1546Z" transform="translate(-1817.88 -1250.18)"/><path class="cls-7" d="M2092.37,1551.29a5.35,5.35,0,0,1,.65-1,4.23,4.23,0,0,1,.81-0.75,3.68,3.68,0,0,1,1-.48,3.43,3.43,0,0,1,1.09-.17,3.82,3.82,0,0,1,1.45.26,2.61,2.61,0,0,1,1.08.83,4,4,0,0,1,.68,1.46,8.57,8.57,0,0,1,.23,2.15v8.3h-1.19v-8.32a6.45,6.45,0,0,0-.18-1.65,2.82,2.82,0,0,0-.51-1.06,1.83,1.83,0,0,0-.8-0.57,3.11,3.11,0,0,0-1.05-.17,2.6,2.6,0,0,0-1.16.25,3.16,3.16,0,0,0-.92.68,4.45,4.45,0,0,0-.69,1,6.14,6.14,0,0,0-.46,1.13v8.74h-1.19v-18.12h1.19v7.51Z" transform="translate(-1817.88 -1250.18)"/><path class="cls-7" d="M2156.62,1553.4h-6.78v8h-1.23v-17.18h9v1.24h-7.78v6.68h6.78v1.24Z" transform="translate(-1817.88 -1250.18)"/><path class="cls-7" d="M2217.84,1557.2a3.76,3.76,0,0,0-.19-1.26,2.63,2.63,0,0,0-.66-1,4.79,4.79,0,0,0-1.22-.83,14.9,14.9,0,0,0-1.9-.75,15.82,15.82,0,0,1-2-.8,6,6,0,0,1-1.49-1,4.09,4.09,0,0,1-.95-1.33,4.32,4.32,0,0,1-.33-1.77,4.42,4.42,0,0,1,.36-1.8,4.06,4.06,0,0,1,1-1.4,4.65,4.65,0,0,1,1.55-.91,5.76,5.76,0,0,1,2-.32,5.15,5.15,0,0,1,2.07.4,4.66,4.66,0,0,1,1.57,1.1,4.85,4.85,0,0,1,1,1.63,5.66,5.66,0,0,1,.35,2h-1.24a4.66,4.66,0,0,0-.25-1.55,3.49,3.49,0,0,0-.73-1.23,3.36,3.36,0,0,0-1.18-.81,4.08,4.08,0,0,0-1.6-.29,4.54,4.54,0,0,0-1.58.25,3.29,3.29,0,0,0-1.14.68,2.85,2.85,0,0,0-.69,1,3.36,3.36,0,0,0,0,2.36,2.62,2.62,0,0,0,.65,1,5.07,5.07,0,0,0,1.21.83,11.89,11.89,0,0,0,1.85.73,15.22,15.22,0,0,1,2,.83,5.92,5.92,0,0,1,1.52,1.06,4.08,4.08,0,0,1,.94,1.4,4.85,4.85,0,0,1,.32,1.83,4.55,4.55,0,0,1-.37,1.88,4.05,4.05,0,0,1-1,1.41,4.61,4.61,0,0,1-1.58.88,6.28,6.28,0,0,1-2,.31,6.72,6.72,0,0,1-1.3-.13,6.09,6.09,0,0,1-1.26-.4,5.16,5.16,0,0,1-1.13-.68,4.26,4.26,0,0,1-.91-1,4.87,4.87,0,0,1-.61-1.31,5.64,5.64,0,0,1-.22-1.65h1.23a4,4,0,0,0,.38,1.83,3.45,3.45,0,0,0,1,1.21,3.89,3.89,0,0,0,1.35.67,5.61,5.61,0,0,0,1.5.21,4.88,4.88,0,0,0,1.54-.23,3.48,3.48,0,0,0,1.19-.66,2.87,2.87,0,0,0,.76-1A3.24,3.24,0,0,0,2217.84,1557.2Z" transform="translate(-1817.88 -1250.18)"/><path class="cls-7" d="M2228.26,1561.43a4.64,4.64,0,0,1-.16-0.81c0-.32-0.06-0.64-0.07-1a4.73,4.73,0,0,1-.64.78,4.26,4.26,0,0,1-.83.64,4.51,4.51,0,0,1-1,.44,4.1,4.1,0,0,1-1.19.17,3.66,3.66,0,0,1-1.43-.27,3.14,3.14,0,0,1-1.1-.76,3.49,3.49,0,0,1-.7-1.15,4.31,4.31,0,0,1,.09-3.12,3.49,3.49,0,0,1,1-1.27,4.45,4.45,0,0,1,1.55-.8,7,7,0,0,1,2.05-.28H2228v-1.45a3.08,3.08,0,0,0-.71-2.15,2.67,2.67,0,0,0-2.08-.78,3.24,3.24,0,0,0-1.16.2,2.79,2.79,0,0,0-.91.55,2.57,2.57,0,0,0-.6.82,2.34,2.34,0,0,0-.21,1h-1.2a3.39,3.39,0,0,1,.3-1.39,3.8,3.8,0,0,1,.84-1.2,4.14,4.14,0,0,1,1.31-.84,4.36,4.36,0,0,1,1.69-.32,4.66,4.66,0,0,1,1.58.26,3.31,3.31,0,0,1,1.24.78,3.56,3.56,0,0,1,.81,1.3,5.19,5.19,0,0,1,.29,1.82v6.18q0,0.33,0,.68c0,0.24,0,.46.06,0.68s0.07,0.43.11,0.63a3.71,3.71,0,0,0,.14.53v0.14h-1.28Zm-3.75-1a3.57,3.57,0,0,0,2.21-.73,3.79,3.79,0,0,0,.78-0.8,4.2,4.2,0,0,0,.53-1v-2.81h-2a6.32,6.32,0,0,0-1.64.19,3.67,3.67,0,0,0-1.22.56,2.48,2.48,0,0,0-.76.89,2.59,2.59,0,0,0-.26,1.19,2.75,2.75,0,0,0,.17,1,2.34,2.34,0,0,0,.48.79,2.25,2.25,0,0,0,.76.53A2.51,2.51,0,0,0,2224.5,1560.41Z" transform="translate(-1817.88 -1250.18)"/><path class="cls-7" d="M2274.43,1557.2a3.74,3.74,0,0,0-.19-1.26,2.63,2.63,0,0,0-.66-1,4.77,4.77,0,0,0-1.22-.83,14.88,14.88,0,0,0-1.9-.75,15.78,15.78,0,0,1-2-.8,6,6,0,0,1-1.49-1,4.09,4.09,0,0,1-.95-1.33,4.34,4.34,0,0,1-.33-1.77,4.41,4.41,0,0,1,.36-1.8,4.06,4.06,0,0,1,1-1.4,4.66,4.66,0,0,1,1.55-.91,5.76,5.76,0,0,1,2-.32,5.14,5.14,0,0,1,2.07.4,4.66,4.66,0,0,1,1.57,1.1,4.87,4.87,0,0,1,1,1.63,5.68,5.68,0,0,1,.35,2h-1.24a4.68,4.68,0,0,0-.25-1.55,3.5,3.5,0,0,0-.73-1.23,3.36,3.36,0,0,0-1.18-.81,4.08,4.08,0,0,0-1.6-.29,4.53,4.53,0,0,0-1.58.25,3.29,3.29,0,0,0-1.14.68,2.85,2.85,0,0,0-.69,1,3.36,3.36,0,0,0,0,2.36,2.61,2.61,0,0,0,.65,1,5,5,0,0,0,1.21.83,11.93,11.93,0,0,0,1.85.73,15.17,15.17,0,0,1,2,.83,5.93,5.93,0,0,1,1.52,1.06,4.11,4.11,0,0,1,.94,1.4,4.85,4.85,0,0,1,.32,1.83,4.53,4.53,0,0,1-.37,1.88,4,4,0,0,1-1,1.41,4.61,4.61,0,0,1-1.58.88,6.28,6.28,0,0,1-2,.31,6.71,6.71,0,0,1-1.3-.13,6.06,6.06,0,0,1-1.26-.4,5.19,5.19,0,0,1-1.13-.68,4.26,4.26,0,0,1-.91-1,4.9,4.9,0,0,1-.61-1.31,5.61,5.61,0,0,1-.22-1.65h1.23a4,4,0,0,0,.38,1.83,3.47,3.47,0,0,0,1,1.21,3.88,3.88,0,0,0,1.35.67,5.61,5.61,0,0,0,1.5.21,4.88,4.88,0,0,0,1.54-.23,3.49,3.49,0,0,0,1.19-.66,2.85,2.85,0,0,0,.76-1A3.22,3.22,0,0,0,2274.43,1557.2Z" transform="translate(-1817.88 -1250.18)"/><path class="cls-7" d="M2285,1559.81a3.69,3.69,0,0,1-1.35,1.36,4.11,4.11,0,0,1-2.09.49,3.79,3.79,0,0,1-1.45-.27,2.79,2.79,0,0,1-1.12-.84,4.08,4.08,0,0,1-.72-1.49,8.42,8.42,0,0,1-.25-2.22v-8.18h1.19v8.2a6.22,6.22,0,0,0,.2,1.71,3.08,3.08,0,0,0,.54,1.1,1.93,1.93,0,0,0,.79.59,2.63,2.63,0,0,0,1,.18,3.89,3.89,0,0,0,1.27-.19,2.87,2.87,0,0,0,.95-0.53,3,3,0,0,0,.66-0.8,4.33,4.33,0,0,0,.41-1v-9.24h1.2v12.76H2285Z" transform="translate(-1817.88 -1250.18)"/><path class="cls-7" d="M2336.05,1544.25l5.36,15.16,5.38-15.16h1.64v17.18h-1.23v-7.5l0.1-7.64-5.41,15.15h-0.95l-5.39-15.09,0.1,7.58v7.5h-1.23v-17.18h1.63Z" transform="translate(-1817.88 -1250.18)"/><path class="cls-7" d="M2409,1545.49h-5v15.94h-1.23v-15.94h-5v-1.24H2409v1.24Z" transform="translate(-1817.88 -1250.18)"/><path class="cls-7" d="M2462.62,1556.79l0.45,2.67,0.55-2.55,3.15-12.66h1.11l3.11,12.66,0.54,2.57,0.48-2.69,2.63-12.54h1.26l-3.72,17.18H2471L2467.7,1548l-0.37-1.7L2467,1548l-3.37,13.44h-1.18l-3.71-17.18H2460Z" transform="translate(-1817.88 -1250.18)"/><path class="cls-7" d="M2531.65,1546h-5v15.94h-1.23V1546h-5v-1.24h11.18V1546Z" transform="translate(-1817.88 -1250.18)"/><path class="cls-7" d="M2534.91,1551.29a5.35,5.35,0,0,1,.65-1,4.23,4.23,0,0,1,.81-0.75,3.68,3.68,0,0,1,1-.48,3.43,3.43,0,0,1,1.09-.17,3.82,3.82,0,0,1,1.45.26,2.61,2.61,0,0,1,1.08.83,4,4,0,0,1,.68,1.46,8.57,8.57,0,0,1,.23,2.15v8.3h-1.19v-8.32a6.45,6.45,0,0,0-.18-1.65,2.82,2.82,0,0,0-.51-1.06,1.83,1.83,0,0,0-.8-0.57,3.11,3.11,0,0,0-1.05-.17,2.6,2.6,0,0,0-1.16.25,3.16,3.16,0,0,0-.92.68,4.45,4.45,0,0,0-.69,1,6.14,6.14,0,0,0-.46,1.13v8.74h-1.19v-18.12h1.19v7.51Z" transform="translate(-1817.88 -1250.18)"/><path class="cls-7" d="M2597.9,1553.4h-6.78v8h-1.23v-17.18h9v1.24h-7.78v6.68h6.78v1.24Z" transform="translate(-1817.88 -1250.18)"/><path class="cls-7" d="M2657.49,1557.2a3.74,3.74,0,0,0-.19-1.26,2.63,2.63,0,0,0-.66-1,4.77,4.77,0,0,0-1.22-.83,14.88,14.88,0,0,0-1.9-.75,15.78,15.78,0,0,1-2-.8,6,6,0,0,1-1.49-1,4.09,4.09,0,0,1-.95-1.33,4.34,4.34,0,0,1-.33-1.77,4.41,4.41,0,0,1,.36-1.8,4.06,4.06,0,0,1,1-1.4,4.66,4.66,0,0,1,1.55-.91,5.76,5.76,0,0,1,2-.32,5.14,5.14,0,0,1,2.07.4,4.66,4.66,0,0,1,1.57,1.1,4.87,4.87,0,0,1,1,1.63,5.68,5.68,0,0,1,.35,2h-1.24a4.68,4.68,0,0,0-.25-1.55,3.5,3.5,0,0,0-.73-1.23,3.36,3.36,0,0,0-1.18-.81,4.08,4.08,0,0,0-1.6-.29,4.53,4.53,0,0,0-1.58.25,3.29,3.29,0,0,0-1.14.68,2.85,2.85,0,0,0-.69,1,3.36,3.36,0,0,0,0,2.36,2.61,2.61,0,0,0,.65,1,5,5,0,0,0,1.21.83,11.93,11.93,0,0,0,1.85.73,15.17,15.17,0,0,1,2,.83,5.93,5.93,0,0,1,1.52,1.06,4.11,4.11,0,0,1,.94,1.4,4.85,4.85,0,0,1,.32,1.83,4.53,4.53,0,0,1-.37,1.88,4,4,0,0,1-1,1.41,4.61,4.61,0,0,1-1.58.88,6.28,6.28,0,0,1-2,.31,6.71,6.71,0,0,1-1.3-.13,6.06,6.06,0,0,1-1.26-.4,5.19,5.19,0,0,1-1.13-.68,4.26,4.26,0,0,1-.91-1,4.9,4.9,0,0,1-.61-1.31,5.61,5.61,0,0,1-.22-1.65h1.23a4,4,0,0,0,.38,1.83,3.47,3.47,0,0,0,1,1.21,3.88,3.88,0,0,0,1.35.67,5.61,5.61,0,0,0,1.5.21,4.88,4.88,0,0,0,1.54-.23,3.49,3.49,0,0,0,1.19-.66,2.85,2.85,0,0,0,.76-1A3.22,3.22,0,0,0,2657.49,1557.2Z" transform="translate(-1817.88 -1250.18)"/><path class="cls-7" d="M2667.91,1561.43a4.65,4.65,0,0,1-.15-0.81c0-.32-0.06-0.64-0.08-1a4.72,4.72,0,0,1-.64.78,4.26,4.26,0,0,1-.83.64,4.53,4.53,0,0,1-1,.44,4.09,4.09,0,0,1-1.19.17,3.65,3.65,0,0,1-1.43-.27,3.14,3.14,0,0,1-1.1-.76,3.47,3.47,0,0,1-.7-1.15,4.3,4.3,0,0,1,.09-3.12,3.48,3.48,0,0,1,1-1.27,4.45,4.45,0,0,1,1.55-.8,7,7,0,0,1,2.05-.28h2.22v-1.45a3.08,3.08,0,0,0-.71-2.15,2.67,2.67,0,0,0-2.08-.78,3.24,3.24,0,0,0-1.16.2,2.79,2.79,0,0,0-.91.55,2.58,2.58,0,0,0-.6.82,2.36,2.36,0,0,0-.21,1h-1.2a3.38,3.38,0,0,1,.3-1.39,3.79,3.79,0,0,1,.84-1.2,4.17,4.17,0,0,1,1.31-.84,4.36,4.36,0,0,1,1.69-.32,4.66,4.66,0,0,1,1.58.26,3.32,3.32,0,0,1,1.24.78,3.56,3.56,0,0,1,.81,1.3,5.21,5.21,0,0,1,.29,1.82v6.18q0,0.33,0,.68c0,0.24,0,.46.07,0.68s0.06,0.43.1,0.63a3.84,3.84,0,0,0,.14.53v0.14h-1.28Zm-3.75-1a3.57,3.57,0,0,0,2.21-.73,3.78,3.78,0,0,0,.78-0.8,4.2,4.2,0,0,0,.53-1v-2.81h-2a6.33,6.33,0,0,0-1.64.19,3.67,3.67,0,0,0-1.22.56,2.48,2.48,0,0,0-.76.89,2.59,2.59,0,0,0-.26,1.19,2.78,2.78,0,0,0,.17,1,2.35,2.35,0,0,0,.48.79,2.26,2.26,0,0,0,.76.53A2.51,2.51,0,0,0,2664.16,1560.41Z" transform="translate(-1817.88 -1250.18)"/><path class="cls-7" d="M1820.4,1256.84h1a3.13,3.13,0,0,0,1.22-.22,2.52,2.52,0,0,0,.88-0.6,2.45,2.45,0,0,0,.53-0.88,3.19,3.19,0,0,0,.18-1.07,4.28,4.28,0,0,0-.15-1.18,2.61,2.61,0,0,0-.46-0.92,2.1,2.1,0,0,0-.78-0.6,2.7,2.7,0,0,0-1.13-.21,2.64,2.64,0,0,0-1,.21,2.44,2.44,0,0,0-.83.59,2.69,2.69,0,0,0-.55.92,3.52,3.52,0,0,0-.2,1.22h-1a4.38,4.38,0,0,1,.28-1.58,3.84,3.84,0,0,1,.76-1.25,3.4,3.4,0,0,1,1.15-.81,3.6,3.6,0,0,1,1.44-.29,3.83,3.83,0,0,1,1.45.26,3,3,0,0,1,1.11.77,3.5,3.5,0,0,1,.71,1.24,5.15,5.15,0,0,1,.25,1.68,3.58,3.58,0,0,1-.52,1.85,3.44,3.44,0,0,1-1.54,1.34,3.3,3.3,0,0,1,1,.53,3,3,0,0,1,.71.79,3.49,3.49,0,0,1,.41,1,4.55,4.55,0,0,1,.14,1.12,4.9,4.9,0,0,1-.28,1.72,3.72,3.72,0,0,1-.78,1.27,3.21,3.21,0,0,1-1.17.79,3.94,3.94,0,0,1-1.47.27,4.12,4.12,0,0,1-1.42-.25,3.59,3.59,0,0,1-2.1-2,4.49,4.49,0,0,1-.33-1.78h1a3.54,3.54,0,0,0,.21,1.24,2.86,2.86,0,0,0,.59,1,2.65,2.65,0,0,0,.9.63,2.92,2.92,0,0,0,1.15.22,2.58,2.58,0,0,0,2-.78,3.21,3.21,0,0,0,.71-2.25,3.62,3.62,0,0,0-.22-1.33,2.36,2.36,0,0,0-.62-0.91,2.48,2.48,0,0,0-1-.52,4.3,4.3,0,0,0-1.23-.17h-1v-1Z" transform="translate(-1817.88 -1250.18)"/><path class="cls-7" d="M1827.59,1265.81h-0.9l5-15.44h0.89Z" transform="translate(-1817.88 -1250.18)"/><path class="cls-7" d="M1838.89,1264.59h-1v-12.81l-3.27,1.44v-1.09l4.1-1.8h0.17v14.27Z" transform="translate(-1817.88 -1250.18)"/><path class="cls-7" d="M1848.27,1264.59h-1v-12.81l-3.27,1.44v-1.09l4.1-1.8h0.17v14.27Z" transform="translate(-1817.88 -1250.18)"/><path class="cls-7" d="M2203.43,1256.84h1a3.13,3.13,0,0,0,1.22-.22,2.51,2.51,0,0,0,.88-0.6,2.43,2.43,0,0,0,.53-0.88,3.19,3.19,0,0,0,.18-1.07,4.28,4.28,0,0,0-.15-1.18,2.62,2.62,0,0,0-.46-0.92,2.11,2.11,0,0,0-.79-0.6,2.7,2.7,0,0,0-1.13-.21,2.64,2.64,0,0,0-1,.21,2.45,2.45,0,0,0-.83.59,2.7,2.7,0,0,0-.55.92,3.53,3.53,0,0,0-.2,1.22h-1a4.38,4.38,0,0,1,.28-1.58,3.84,3.84,0,0,1,.76-1.25,3.4,3.4,0,0,1,1.15-.81,3.6,3.6,0,0,1,1.44-.29,3.83,3.83,0,0,1,1.45.26,3,3,0,0,1,1.11.77,3.5,3.5,0,0,1,.71,1.24,5.15,5.15,0,0,1,.25,1.68,3.57,3.57,0,0,1-.52,1.85,3.44,3.44,0,0,1-1.54,1.34,3.3,3.3,0,0,1,1,.53,3,3,0,0,1,.71.79,3.49,3.49,0,0,1,.41,1,4.55,4.55,0,0,1,.14,1.12,4.89,4.89,0,0,1-.28,1.72,3.72,3.72,0,0,1-.78,1.27,3.22,3.22,0,0,1-1.17.79,3.94,3.94,0,0,1-1.47.27,4.12,4.12,0,0,1-1.42-.25,3.59,3.59,0,0,1-2.1-2,4.49,4.49,0,0,1-.33-1.78h1a3.53,3.53,0,0,0,.21,1.24,2.85,2.85,0,0,0,.59,1,2.65,2.65,0,0,0,.9.63,2.92,2.92,0,0,0,1.15.22,2.58,2.58,0,0,0,2-.78,3.21,3.21,0,0,0,.71-2.25,3.61,3.61,0,0,0-.22-1.33,2.36,2.36,0,0,0-.62-0.91,2.49,2.49,0,0,0-1-.52,4.29,4.29,0,0,0-1.23-.17h-1v-1Z" transform="translate(-1817.88 -1250.18)"/><path class="cls-7" d="M2210.62,1265.81h-0.9l5-15.44h0.89Z" transform="translate(-1817.88 -1250.18)"/><path class="cls-7" d="M2221.93,1264.59h-1v-12.81l-3.27,1.44v-1.09l4.1-1.8h0.17v14.27Z" transform="translate(-1817.88 -1250.18)"/><path class="cls-7" d="M2233.79,1254a3.83,3.83,0,0,1-.14,1.07,3.55,3.55,0,0,1-.4.92,3.45,3.45,0,0,1-.62.74,3.18,3.18,0,0,1-.81.53,3.61,3.61,0,0,1,1.66,1.34,3.69,3.69,0,0,1,.47,1,4.12,4.12,0,0,1,.17,1.18,4.61,4.61,0,0,1-.3,1.72,3.52,3.52,0,0,1-.81,1.24,3.41,3.41,0,0,1-1.21.75,4.38,4.38,0,0,1-1.5.25,4.44,4.44,0,0,1-1.52-.25,3.41,3.41,0,0,1-1.21-.75,3.47,3.47,0,0,1-.81-1.24,4.67,4.67,0,0,1-.29-1.72,4.19,4.19,0,0,1,.16-1.18,3.83,3.83,0,0,1,.45-1,3.41,3.41,0,0,1,.71-0.79,3.5,3.5,0,0,1,.93-0.55,3.11,3.11,0,0,1-.81-0.53,3.31,3.31,0,0,1-.61-0.74,3.63,3.63,0,0,1-.39-0.92,3.94,3.94,0,0,1-.14-1.07,4.73,4.73,0,0,1,.26-1.65,3.45,3.45,0,0,1,.74-1.21,3.08,3.08,0,0,1,1.11-.75,4,4,0,0,1,2.79,0,3.12,3.12,0,0,1,1.12.75,3.54,3.54,0,0,1,.75,1.21A4.62,4.62,0,0,1,2233.79,1254Zm-0.68,6.8a3.39,3.39,0,0,0-.22-1.25,2.88,2.88,0,0,0-.6-1,2.66,2.66,0,0,0-.9-0.62,3.05,3.05,0,0,0-2.27,0,2.64,2.64,0,0,0-.9.62,2.8,2.8,0,0,0-.59,1,3.84,3.84,0,0,0,0,2.51,2.64,2.64,0,0,0,.59.93,2.46,2.46,0,0,0,.9.58,3.32,3.32,0,0,0,1.15.2,3.22,3.22,0,0,0,1.14-.2,2.51,2.51,0,0,0,.9-0.58,2.63,2.63,0,0,0,.59-0.93A3.52,3.52,0,0,0,2233.11,1260.83Zm-0.31-6.81a3.27,3.27,0,0,0-.19-1.15,2.82,2.82,0,0,0-.53-0.9,2.39,2.39,0,0,0-.8-0.59,2.43,2.43,0,0,0-1-.21,2.52,2.52,0,0,0-1,.2,2.33,2.33,0,0,0-.8.57,2.64,2.64,0,0,0-.52.9,3.51,3.51,0,0,0-.19,1.19,3.35,3.35,0,0,0,.19,1.15,2.55,2.55,0,0,0,.52.88,2.29,2.29,0,0,0,.8.56,2.64,2.64,0,0,0,1,.2,2.58,2.58,0,0,0,1-.2,2.34,2.34,0,0,0,.8-0.56,2.59,2.59,0,0,0,.53-0.87A3.3,3.3,0,0,0,2232.8,1254Z" transform="translate(-1817.88 -1250.18)"/><path class="cls-7" d="M2646,1256.84h1a3.13,3.13,0,0,0,1.22-.22,2.53,2.53,0,0,0,.88-0.6,2.46,2.46,0,0,0,.53-0.88,3.19,3.19,0,0,0,.18-1.07,4.28,4.28,0,0,0-.15-1.18,2.59,2.59,0,0,0-.46-0.92,2.1,2.1,0,0,0-.78-0.6,2.7,2.7,0,0,0-1.13-.21,2.64,2.64,0,0,0-1,.21,2.44,2.44,0,0,0-.83.59,2.67,2.67,0,0,0-.55.92,3.51,3.51,0,0,0-.2,1.22h-1a4.38,4.38,0,0,1,.28-1.58,3.84,3.84,0,0,1,.76-1.25,3.4,3.4,0,0,1,1.15-.81,3.6,3.6,0,0,1,1.44-.29,3.82,3.82,0,0,1,1.45.26,3,3,0,0,1,1.11.77,3.5,3.5,0,0,1,.71,1.24,5.15,5.15,0,0,1,.25,1.68,3.49,3.49,0,0,1-.13,1,3.53,3.53,0,0,1-.39.89,3.44,3.44,0,0,1-1.54,1.34,3.29,3.29,0,0,1,1,.53,3,3,0,0,1,.71.79,3.49,3.49,0,0,1,.41,1,4.55,4.55,0,0,1,.14,1.12,4.91,4.91,0,0,1-.28,1.72,3.71,3.71,0,0,1-.78,1.27,3.21,3.21,0,0,1-1.17.79,4,4,0,0,1-1.47.27,4.12,4.12,0,0,1-1.42-.25,3.59,3.59,0,0,1-2.1-2,4.49,4.49,0,0,1-.33-1.78h1a3.56,3.56,0,0,0,.21,1.24,2.86,2.86,0,0,0,.59,1,2.65,2.65,0,0,0,.91.63,2.92,2.92,0,0,0,1.15.22,2.58,2.58,0,0,0,2-.78,3.21,3.21,0,0,0,.71-2.25,3.63,3.63,0,0,0-.22-1.33,2.36,2.36,0,0,0-.62-0.91,2.48,2.48,0,0,0-1-.52,4.3,4.3,0,0,0-1.24-.17h-1v-1Z" transform="translate(-1817.88 -1250.18)"/><path class="cls-7" d="M2653.16,1265.81h-0.9l5-15.44h0.89Z" transform="translate(-1817.88 -1250.18)"/><path class="cls-7" d="M2667.4,1264.59h-7.54v-0.9l3.94-5.28q0.55-.74.94-1.34a9.06,9.06,0,0,0,.62-1.11,5,5,0,0,0,.34-1,4.22,4.22,0,0,0-.06-2.08,2.67,2.67,0,0,0-.48-0.92,2.14,2.14,0,0,0-.79-0.61,2.56,2.56,0,0,0-1.08-.21,2.45,2.45,0,0,0-2,.94,3.17,3.17,0,0,0-.54,1,4.36,4.36,0,0,0-.19,1.32h-1a5.37,5.37,0,0,1,.25-1.66,4.14,4.14,0,0,1,.73-1.37,3.51,3.51,0,0,1,1.16-.93,3.4,3.4,0,0,1,1.55-.34,4,4,0,0,1,1.46.26,3,3,0,0,1,1.11.75,3.4,3.4,0,0,1,.7,1.2,4.94,4.94,0,0,1,.24,1.61,4.48,4.48,0,0,1-.2,1.3,7.85,7.85,0,0,1-.53,1.3,12.48,12.48,0,0,1-.76,1.28c-0.29.42-.58,0.84-0.88,1.25l-3.35,4.48h6.32v1Z" transform="translate(-1817.88 -1250.18)"/><path class="cls-7" d="M2669.91,1257.3l0.59-6.93h6v1.08h-5.16l-0.42,4.8a3.62,3.62,0,0,1,.39-0.27,3.44,3.44,0,0,1,.52-0.25,4.23,4.23,0,0,1,.63-0.19,3.45,3.45,0,0,1,.72-0.07,3.31,3.31,0,0,1,1.46.32,3.16,3.16,0,0,1,1.12.91,4.37,4.37,0,0,1,.72,1.44,6.58,6.58,0,0,1,.26,1.91,8,8,0,0,1-.21,1.89,4.38,4.38,0,0,1-.65,1.49,3.11,3.11,0,0,1-1.12,1,3.41,3.41,0,0,1-1.61.36,3.8,3.8,0,0,1-1.35-.24,3.12,3.12,0,0,1-1.12-.73,3.77,3.77,0,0,1-.8-1.23,5.59,5.59,0,0,1-.38-1.74h1a3.67,3.67,0,0,0,.83,2.2,2.43,2.43,0,0,0,1.88.75,2.2,2.2,0,0,0,1.95-1,4.88,4.88,0,0,0,.66-2.75,5.13,5.13,0,0,0-.18-1.4,3.53,3.53,0,0,0-.53-1.12,2.47,2.47,0,0,0-.86-0.75,2.51,2.51,0,0,0-1.17-.27,3.59,3.59,0,0,0-.77.07,2.75,2.75,0,0,0-.6.21,2.4,2.4,0,0,0-.5.32,5.5,5.5,0,0,0-.45.43Z" transform="translate(-1817.88 -1250.18)"/></svg>