<svg id="Layer_1" data-name="Layer 1" xmlns="http://www.w3.org/2000/svg" xmlns:xlink="http://www.w3.org/1999/xlink" viewBox="0 0 1086.72 384.28"><defs><style>.cls-1{font-size:36.72px;fill:#636363;}.cls-1,.cls-4,.cls-9{font-family:Roboto;}.cls-2{fill:#87d8ce;}.cls-3,.cls-5{opacity:0.7;}.cls-4{font-size:24.16px;}.cls-4,.cls-9{fill:#a3a7a8;}.cls-10,.cls-5,.cls-6,.cls-7{fill:none;stroke-miterlimit:10;}.cls-10,.cls-5,.cls-6{stroke:#87d8ce;}.cls-6,.cls-7{stroke-width:3px;}.cls-7{stroke:#17a697;}.cls-8{fill:#17a697;}.cls-9{font-size:19.32px;}.cls-11{fill:url(#linear-gradient);}.cls-12{fill:#50bfb3;}</style><linearGradient id="linear-gradient" x1="607.08" y1="108.91" x2="618.1" y2="108.91" gradientUnits="userSpaceOnUse"><stop offset="0" stop-color="#fff"/><stop offset="0" stop-color="#a8dcdc"/><stop offset="0" stop-color="#30acac"/><stop offset="0" stop-color="#099"/><stop offset="0.03" stop-color="#019999"/><stop offset="1" stop-color="#17a697"/><stop offset="1" stop-color="#16a699"/><stop offset="1" stop-color="#0eabaf"/><stop offset="1" stop-color="#08afc0"/><stop offset="1" stop-color="#03b1cb"/><stop offset="1" stop-color="#01b3d2"/><stop offset="1" stop-color="#00b3d4"/><stop offset="1" stop-color="#00b1d2"/><stop offset="1" stop-color="#00accb"/><stop offset="1" stop-color="#00a2c0"/><stop offset="1" stop-color="#0093af"/><stop offset="1" stop-color="#008199"/><stop offset="1" stop-color="#006a7d"/><stop offset="1" stop-color="#004f5d"/><stop offset="1" stop-color="#002f37"/><stop offset="1" stop-color="#000c0e"/><stop offset="1"/></linearGradient></defs><title>weekly_mood_full</title><text class="cls-1" transform="translate(439.02 31.42) scale(0.93 1)">W<tspan x="32.02" y="0">eekly Mood</tspan></text><path class="cls-2" d="M4876.5,1272.65l25.95,27.88a1.47,1.47,0,0,0,1.09.5,1.51,1.51,0,0,0,1.09-.5,1.76,1.76,0,0,0,0-2.37l-24.84-26.69,24.84-26.69a1.76,1.76,0,0,0,0-2.37,1.48,1.48,0,0,0-2.2,0l-25.95,27.88A1.75,1.75,0,0,0,4876.5,1272.65Z" transform="translate(-4876.04 -1070.85)"/><g class="cls-3"><path class="cls-2" d="M5962.27,1270.19L5934,1239.84a1.61,1.61,0,0,0-2.4,0,1.91,1.91,0,0,0,0,2.58l27,29.05-27,29.05a1.91,1.91,0,0,0,0,2.58,1.65,1.65,0,0,0,1.19.54,1.6,1.6,0,0,0,1.19-.54l28.24-30.35A1.91,1.91,0,0,0,5962.27,1270.19Z" transform="translate(-4876.04 -1070.85)"/></g><text class="cls-4" transform="translate(155.86 377.74) scale(0.93 1)">Su</text><line class="cls-5" x1="170.05" y1="105.7" x2="170.05" y2="332.78"/><text class="cls-4" transform="translate(222.54 377.09) scale(0.93 1)">M</text><line class="cls-5" x1="233.92" y1="107.93" x2="233.92" y2="335"/><text class="cls-4" transform="translate(290.96 377.09) scale(0.93 1)">T</text><line class="cls-5" x1="297.79" y1="106.45" x2="297.79" y2="333.52"/><text class="cls-4" transform="translate(350.49 377.09) scale(0.93 1)">W</text><line class="cls-5" x1="361.65" y1="107.93" x2="361.65" y2="335"/><text class="cls-4" transform="translate(412.13 377.09) scale(0.93 1)">Th</text><line class="cls-5" x1="425.52" y1="106.45" x2="425.52" y2="333.52"/><text class="cls-4" transform="translate(481.42 377.09) scale(0.93 1)">F</text><line class="cls-5" x1="489.39" y1="107.93" x2="489.39" y2="335"/><text class="cls-4" transform="translate(539.58 377.09) scale(0.93 1)">Sa</text><line class="cls-5" x1="553.25" y1="106.45" x2="553.25" y2="333.52"/><text class="cls-4" transform="translate(598.76 377.09) scale(0.93 1)">Su</text><text class="cls-4" transform="translate(665.08 377.09) scale(0.93 1)">M</text><text class="cls-4" transform="translate(733.5 377.09) scale(0.93 1)">T</text><text class="cls-4" transform="translate(792.82 377.09) scale(0.93 1)">W</text><text class="cls-4" transform="translate(854.67 377.09) scale(0.93 1)">Th</text><text class="cls-4" transform="translate(923.96 377.09) scale(0.93 1)">F</text><text class="cls-4" transform="translate(982.12 377.09) scale(0.93 1)">Sa</text><line class="cls-5" x1="612.59" y1="107.25" x2="612.59" y2="334.32"/><line class="cls-5" x1="676.46" y1="109.47" x2="676.46" y2="336.55"/><line class="cls-5" x1="740.32" y1="107.99" x2="740.32" y2="335.06"/><line class="cls-5" x1="804.19" y1="336.55" x2="804.19" y2="109.47"/><line class="cls-5" x1="868.06" y1="107.99" x2="868.06" y2="335.06"/><line class="cls-5" x1="931.93" y1="336.55" x2="931.93" y2="109.47"/><line class="cls-5" x1="995.79" y1="107.99" x2="995.79" y2="335.06"/><path class="cls-6" d="M5046.09,1243.61" transform="translate(-4876.04 -1070.85)"/><polyline class="cls-7" points="170.05 169.92 233.92 219.31 297.79 109.84 361.87 171.67 425.52 269.73 489.39 110.28 553.25 179.75"/><ellipse class="cls-8" cx="170.05" cy="169.92" rx="5.51" ry="5.54"/><ellipse class="cls-8" cx="233.92" cy="218.51" rx="5.51" ry="5.54"/><ellipse class="cls-8" cx="297.79" cy="109.84" rx="5.51" ry="5.54"/><ellipse class="cls-8" cx="361.87" cy="171.67" rx="5.51" ry="5.54"/><ellipse class="cls-8" cx="425.52" cy="269.73" rx="5.51" ry="5.54"/><ellipse class="cls-8" cx="489.18" cy="110.28" rx="5.51" ry="5.54"/><text class="cls-9" transform="translate(152.26 92.58) scale(0.93 1)">3/11</text><text class="cls-9" transform="translate(533.62 88.36) scale(0.93 1)">3/18</text><path class="cls-10" d="M5435.36,1250.6" transform="translate(-4876.04 -1070.85)"/><line class="cls-7" x1="553.25" y1="179.75" x2="612.59" y2="108.91"/><line class="cls-7" x1="740.32" y1="224.04" x2="804.19" y2="177.21"/><line class="cls-7" x1="804.46" y1="177.01" x2="868.06" y2="108.73"/><line class="cls-7" x1="868.06" y1="108.73" x2="931.93" y2="109.73"/><line class="cls-7" x1="931.93" y1="109.73" x2="995.79" y2="172.76"/><ellipse class="cls-8" cx="740.32" cy="224.04" rx="5.51" ry="5.54"/><ellipse class="cls-8" cx="804.46" cy="177.01" rx="5.51" ry="5.54"/><ellipse class="cls-8" cx="868.06" cy="108.73" rx="5.51" ry="5.54"/><ellipse class="cls-8" cx="931.93" cy="109.73" rx="5.51" ry="5.54"/><ellipse class="cls-8" cx="995.79" cy="172.76" rx="5.51" ry="5.54"/><text class="cls-9" transform="translate(975.17 88.36) scale(0.93 1)">3/25</text><line class="cls-7" x1="612.59" y1="108.91" x2="676.46" y2="178.54"/><line class="cls-7" x1="676.46" y1="178.54" x2="740.32" y2="224.04"/><ellipse class="cls-8" cx="553.25" cy="179.75" rx="5.51" ry="5.54"/><ellipse class="cls-11" cx="612.59" cy="108.91" rx="5.51" ry="5.54"/><path class="cls-12" d="M4969.45,1177.19a12.68,12.68,0,1,0,12.69,12.68A12.66,12.66,0,0,0,4969.45,1177.19Zm0,22.82a10.14,10.14,0,1,1,10.14-10.14A10.14,10.14,0,0,1,4969.46,1200Zm1.27-12.75,1.34,1.34,1.34-1.34,1.34,1.34,1.34-1.34-2.69-2.69Zm-5.22,0,1.34,1.34,1.34-1.34-2.69-2.69-2.69,2.69,1.34,1.34Zm4,9.58a7,7,0,0,0,6.48-4.44h-13A7,7,0,0,0,4969.46,1196.84Z" transform="translate(-4876.04 -1070.85)"/><ellipse class="cls-8" cx="676.46" cy="178.54" rx="5.51" ry="5.54"/><path class="cls-12" d="M4965.51,1292.55h7.67v1.92h-7.67v-1.92Z" transform="translate(-4876.04 -1070.85)"/><circle class="cls-12" cx="97.79" cy="215.95" r="1.92"/><circle class="cls-12" cx="88.83" cy="215.95" r="1.92"/><path class="cls-12" d="M4969.34,1277.21a12.79,12.79,0,1,0,12.8,12.79A12.78,12.78,0,0,0,4969.34,1277.21Zm0,23a10.23,10.23,0,1,1,10.23-10.23A10.23,10.23,0,0,1,4969.35,1300.23Z" transform="translate(-4876.04 -1070.85)"/><circle class="cls-12" cx="97.96" cy="165.95" r="1.88"/><circle class="cls-12" cx="89.2" cy="165.95" r="1.88"/><path class="cls-12" d="M4969.61,1227.41a12.52,12.52,0,1,0,12.53,12.52A12.51,12.51,0,0,0,4969.61,1227.41Zm0,22.54a10,10,0,1,1,10-10A10,10,0,0,1,4969.62,1249.95Zm0-5a5,5,0,0,1-4.32-2.5h-2.09a6.88,6.88,0,0,0,12.82,0h-2.09A5,5,0,0,1,4969.62,1244.94Z" transform="translate(-4876.04 -1070.85)"/><path class="cls-12" d="M4969.26,1377.26a12.86,12.86,0,1,0,12.88,12.86A12.85,12.85,0,0,0,4969.26,1377.26Zm0,23.16a10.29,10.29,0,1,1,10.29-10.29A10.29,10.29,0,0,1,4969.27,1400.41Zm5.38-15.75-1.36,1.36-1.36-1.36-1.36,1.36,1.36,1.36-1.36,1.36,1.36,1.36,1.36-1.36,1.36,1.36,1.36-1.36-1.36-1.36L4976,1386Zm-10.75,5.45,1.36-1.36,1.36,1.36,1.36-1.36-1.36-1.36L4968,1386l-1.36-1.36-1.36,1.36-1.36-1.36-1.36,1.36,1.36,1.36-1.36,1.36Zm5.38,2.57a7.07,7.07,0,0,0-6.57,4.5h13.15A7.07,7.07,0,0,0,4969.27,1392.7Z" transform="translate(-4876.04 -1070.85)"/><circle class="cls-12" cx="97.7" cy="265.98" r="1.94"/><circle class="cls-12" cx="88.64" cy="265.98" r="1.94"/><path class="cls-12" d="M4969.2,1327.13a12.93,12.93,0,1,0,12.94,12.93A12.92,12.92,0,0,0,4969.2,1327.13Zm0,23.27a10.34,10.34,0,1,1,10.34-10.34A10.34,10.34,0,0,1,4969.21,1350.4Zm0-7.76a7.11,7.11,0,0,0-6.62,4.53h2.16a5.14,5.14,0,0,1,8.92,0h2.16A7.11,7.11,0,0,0,4969.21,1342.65Z" transform="translate(-4876.04 -1070.85)"/></svg>